M48
INCH,TZ
T1C0.0591
T2C0.0670
T3C0.0866
T4C0.1570
%
G90
G05
T1
X7.1964Y-3.3758
X7.2643Y-3.5437
X7.452Y-3.2726
X7.5198Y-3.4405
T2
X1.7525Y-2.9749
X2.1525Y-2.9749
X6.4481Y-2.8229
X6.4481Y-3.2229
X4.7496Y-3.5396
X5.1496Y-3.5396
X4.7496Y-2.0411
X5.1496Y-2.0411
X5.5025Y-2.1444
X5.9025Y-2.1444
X4.6566Y-4.3464
X5.0505Y-4.4159
X6.4481Y-1.8854
X6.4481Y-2.2854
X2.5018Y-2.9158
X2.9018Y-2.9158
X5.5025Y-1.3952
X5.9025Y-1.3952
X4.0003Y-1.1479
X4.4003Y-1.1479
X2.5018Y-2.1666
X2.9018Y-2.1666
X3.251Y-2.0263
X3.651Y-2.0263
X6.9245Y-4.9882
X7.3004Y-5.125
X5.5025Y-3.643
X5.9025Y-3.643
X3.801Y-4.2741
X4.201Y-4.2741
X1.7525Y-3.7242
X2.1525Y-3.7242
X3.251Y-3.5249
X3.651Y-3.5249
X4.0003Y-1.8971
X4.4003Y-1.8971
X2.5018Y-1.4173
X2.9018Y-1.4173
X3.0517Y-4.4144
X3.4517Y-4.4144
X3.251Y-2.7756
X3.651Y-2.7756
X1.7525Y-2.2256
X2.1525Y-2.2256
X5.4392Y-4.5065
X5.8255Y-4.6101
X7.1829Y-4.2832
X7.5588Y-4.42
X1.7525Y-1.4764
X2.1525Y-1.4764
X4.0003Y-3.3957
X4.4003Y-3.3957
X2.5018Y-3.6651
X2.9018Y-3.6651
X6.2232Y-4.7335
X6.5991Y-4.8703
X4.7496Y-1.2918
X5.1496Y-1.2918
X3.251Y-1.2771
X3.651Y-1.2771
X4.0003Y-2.6464
X4.4003Y-2.6464
X5.5025Y-2.8937
X5.9025Y-2.8937
X6.4816Y-4.0285
X6.8575Y-4.1653
X4.7496Y-2.7904
X5.1496Y-2.7904
T3
X1.8344Y-4.1376
X3.0967Y-3.1558
X6.3743Y-1.4247
X4.3775Y-4.7318
X6.1085Y-2.5541
X7.7953Y-4.0453
X4.6801Y-0.8194
X5.8944Y-5.1046
X5.9424Y-4.1154
X1.8123Y-1.0667
X2.3364Y-2.5394
X4.5952Y-3.1631
T4
X2.7018Y-2.1666
X3.451Y-2.0263
X7.1124Y-5.0566
X5.7025Y-3.643
X4.001Y-4.2741
X1.9525Y-3.7242
X3.451Y-3.5249
X4.2003Y-1.8971
X2.7018Y-1.4173
X3.2517Y-4.4144
X3.451Y-2.7756
X1.9525Y-2.2256
X5.6324Y-4.5583
X7.3708Y-4.3516
X1.9525Y-1.4764
X4.2003Y-3.3957
X2.7018Y-3.6651
X6.4112Y-4.8019
X4.9496Y-1.2918
X3.451Y-1.2771
X4.2003Y-2.6464
X5.7025Y-2.8937
X6.6695Y-4.0969
X4.9496Y-2.7904
X1.9525Y-2.9749
X6.4481Y-3.0229
X4.9496Y-3.5396
X4.9496Y-2.0411
X5.7025Y-2.1444
X4.8536Y-4.3811
X6.4481Y-2.0854
X2.7018Y-2.9158
X5.7025Y-1.3952
X4.2003Y-1.1479
T0
M30
