G04 #@! TF.GenerationSoftware,KiCad,Pcbnew,(5.0.0)*
G04 #@! TF.CreationDate,2018-10-18T18:59:20-04:00*
G04 #@! TF.ProjectId,orthomac2,6F7274686F6D6163322E6B696361645F,rev?*
G04 #@! TF.SameCoordinates,Original*
G04 #@! TF.FileFunction,Legend,Bot*
G04 #@! TF.FilePolarity,Positive*
%FSLAX46Y46*%
G04 Gerber Fmt 4.6, Leading zero omitted, Abs format (unit mm)*
G04 Created by KiCad (PCBNEW (5.0.0)) date 10/18/18 18:59:20*
%MOMM*%
%LPD*%
G01*
G04 APERTURE LIST*
%ADD10C,0.150000*%
G04 APERTURE END LIST*
D10*
G04 #@! TO.C,K20*
X169781000Y-69781200D02*
X170781000Y-69781200D01*
X156781000Y-69781200D02*
X157781000Y-69781200D01*
X156781000Y-70781200D02*
X156781000Y-69781200D01*
X157781000Y-83781200D02*
X156781000Y-83781200D01*
X156781000Y-83781200D02*
X156781000Y-82781200D01*
X170781000Y-83781200D02*
X169781000Y-83781200D01*
X170781000Y-82781200D02*
X170781000Y-83781200D01*
X170781000Y-69781200D02*
X170781000Y-70781200D01*
G04 #@! TO.C,K13*
X169781000Y-45968800D02*
X170781000Y-45968800D01*
X156781000Y-45968800D02*
X157781000Y-45968800D01*
X156781000Y-46968800D02*
X156781000Y-45968800D01*
X157781000Y-59968800D02*
X156781000Y-59968800D01*
X156781000Y-59968800D02*
X156781000Y-58968800D01*
X170781000Y-59968800D02*
X169781000Y-59968800D01*
X170781000Y-58968800D02*
X170781000Y-59968800D01*
X170781000Y-45968800D02*
X170781000Y-46968800D01*
G04 #@! TO.C,K21*
X42593800Y-87593800D02*
X43593800Y-87593800D01*
X55593800Y-87593800D02*
X56593800Y-87593800D01*
X56593800Y-87593800D02*
X56593800Y-88593800D01*
X56593800Y-101593800D02*
X55593800Y-101593800D01*
X56593800Y-100593800D02*
X56593800Y-101593800D01*
X43593800Y-101593800D02*
X42593800Y-101593800D01*
X42593800Y-101593800D02*
X42593800Y-100593800D01*
X42593800Y-88593800D02*
X42593800Y-87593800D01*
G04 #@! TO.C,K14*
X42593800Y-68562500D02*
X43593800Y-68562500D01*
X55593800Y-68562500D02*
X56593800Y-68562500D01*
X56593800Y-68562500D02*
X56593800Y-69562500D01*
X56593800Y-82562500D02*
X55593800Y-82562500D01*
X56593800Y-81562500D02*
X56593800Y-82562500D01*
X43593800Y-82562500D02*
X42593800Y-82562500D01*
X42593800Y-82562500D02*
X42593800Y-81562500D01*
X42593800Y-69562500D02*
X42593800Y-68562500D01*
G04 #@! TO.C,K7*
X42593800Y-49531200D02*
X43593800Y-49531200D01*
X55593800Y-49531200D02*
X56593800Y-49531200D01*
X56593800Y-49531200D02*
X56593800Y-50531200D01*
X56593800Y-63531200D02*
X55593800Y-63531200D01*
X56593800Y-62531200D02*
X56593800Y-63531200D01*
X43593800Y-63531200D02*
X42593800Y-63531200D01*
X42593800Y-63531200D02*
X42593800Y-62531200D01*
X42593800Y-50531200D02*
X42593800Y-49531200D01*
G04 #@! TO.C,K8*
X61625000Y-48031200D02*
X62625000Y-48031200D01*
X74625000Y-48031200D02*
X75625000Y-48031200D01*
X75625000Y-48031200D02*
X75625000Y-49031200D01*
X75625000Y-62031200D02*
X74625000Y-62031200D01*
X75625000Y-61031200D02*
X75625000Y-62031200D01*
X62625000Y-62031200D02*
X61625000Y-62031200D01*
X61625000Y-62031200D02*
X61625000Y-61031200D01*
X61625000Y-49031200D02*
X61625000Y-48031200D01*
G04 #@! TO.C,K15*
X61625000Y-67062500D02*
X62625000Y-67062500D01*
X74625000Y-67062500D02*
X75625000Y-67062500D01*
X75625000Y-67062500D02*
X75625000Y-68062500D01*
X75625000Y-81062500D02*
X74625000Y-81062500D01*
X75625000Y-80062500D02*
X75625000Y-81062500D01*
X62625000Y-81062500D02*
X61625000Y-81062500D01*
X61625000Y-81062500D02*
X61625000Y-80062500D01*
X61625000Y-68062500D02*
X61625000Y-67062500D01*
G04 #@! TO.C,K22*
X61625000Y-86093800D02*
X62625000Y-86093800D01*
X74625000Y-86093800D02*
X75625000Y-86093800D01*
X75625000Y-86093800D02*
X75625000Y-87093800D01*
X75625000Y-100093800D02*
X74625000Y-100093800D01*
X75625000Y-99093800D02*
X75625000Y-100093800D01*
X62625000Y-100093800D02*
X61625000Y-100093800D01*
X61625000Y-100093800D02*
X61625000Y-99093800D01*
X61625000Y-87093800D02*
X61625000Y-86093800D01*
G04 #@! TO.C,K23*
X80656200Y-82531200D02*
X81656200Y-82531200D01*
X93656200Y-82531200D02*
X94656200Y-82531200D01*
X94656200Y-82531200D02*
X94656200Y-83531200D01*
X94656200Y-96531200D02*
X93656200Y-96531200D01*
X94656200Y-95531200D02*
X94656200Y-96531200D01*
X81656200Y-96531200D02*
X80656200Y-96531200D01*
X80656200Y-96531200D02*
X80656200Y-95531200D01*
X80656200Y-83531200D02*
X80656200Y-82531200D01*
G04 #@! TO.C,K16*
X80656200Y-63500000D02*
X81656200Y-63500000D01*
X93656200Y-63500000D02*
X94656200Y-63500000D01*
X94656200Y-63500000D02*
X94656200Y-64500000D01*
X94656200Y-77500000D02*
X93656200Y-77500000D01*
X94656200Y-76500000D02*
X94656200Y-77500000D01*
X81656200Y-77500000D02*
X80656200Y-77500000D01*
X80656200Y-77500000D02*
X80656200Y-76500000D01*
X80656200Y-64500000D02*
X80656200Y-63500000D01*
G04 #@! TO.C,K9*
X80656200Y-44468800D02*
X81656200Y-44468800D01*
X93656200Y-44468800D02*
X94656200Y-44468800D01*
X94656200Y-44468800D02*
X94656200Y-45468800D01*
X94656200Y-58468800D02*
X93656200Y-58468800D01*
X94656200Y-57468800D02*
X94656200Y-58468800D01*
X81656200Y-58468800D02*
X80656200Y-58468800D01*
X80656200Y-58468800D02*
X80656200Y-57468800D01*
X80656200Y-45468800D02*
X80656200Y-44468800D01*
G04 #@! TO.C,K24*
X99688000Y-79250000D02*
X100688000Y-79250000D01*
X112688000Y-79250000D02*
X113688000Y-79250000D01*
X113688000Y-79250000D02*
X113688000Y-80250000D01*
X113688000Y-93250000D02*
X112688000Y-93250000D01*
X113688000Y-92250000D02*
X113688000Y-93250000D01*
X100688000Y-93250000D02*
X99688000Y-93250000D01*
X99688000Y-93250000D02*
X99688000Y-92250000D01*
X99688000Y-80250000D02*
X99688000Y-79250000D01*
G04 #@! TO.C,K17*
X99688000Y-60218800D02*
X100688000Y-60218800D01*
X112688000Y-60218800D02*
X113688000Y-60218800D01*
X113688000Y-60218800D02*
X113688000Y-61218800D01*
X113688000Y-74218800D02*
X112688000Y-74218800D01*
X113688000Y-73218800D02*
X113688000Y-74218800D01*
X100688000Y-74218800D02*
X99688000Y-74218800D01*
X99688000Y-74218800D02*
X99688000Y-73218800D01*
X99688000Y-61218800D02*
X99688000Y-60218800D01*
G04 #@! TO.C,K10*
X99688000Y-41187500D02*
X100688000Y-41187500D01*
X112688000Y-41187500D02*
X113688000Y-41187500D01*
X113688000Y-41187500D02*
X113688000Y-42187500D01*
X113688000Y-55187500D02*
X112688000Y-55187500D01*
X113688000Y-54187500D02*
X113688000Y-55187500D01*
X100688000Y-55187500D02*
X99688000Y-55187500D01*
X99688000Y-55187500D02*
X99688000Y-54187500D01*
X99688000Y-42187500D02*
X99688000Y-41187500D01*
G04 #@! TO.C,K11*
X118719000Y-44843800D02*
X119719000Y-44843800D01*
X131719000Y-44843800D02*
X132719000Y-44843800D01*
X132719000Y-44843800D02*
X132719000Y-45843800D01*
X132719000Y-58843800D02*
X131719000Y-58843800D01*
X132719000Y-57843800D02*
X132719000Y-58843800D01*
X119719000Y-58843800D02*
X118719000Y-58843800D01*
X118719000Y-58843800D02*
X118719000Y-57843800D01*
X118719000Y-45843800D02*
X118719000Y-44843800D01*
G04 #@! TO.C,K18*
X118719000Y-63875000D02*
X119719000Y-63875000D01*
X131719000Y-63875000D02*
X132719000Y-63875000D01*
X132719000Y-63875000D02*
X132719000Y-64875000D01*
X132719000Y-77875000D02*
X131719000Y-77875000D01*
X132719000Y-76875000D02*
X132719000Y-77875000D01*
X119719000Y-77875000D02*
X118719000Y-77875000D01*
X118719000Y-77875000D02*
X118719000Y-76875000D01*
X118719000Y-64875000D02*
X118719000Y-63875000D01*
G04 #@! TO.C,K25*
X118719000Y-82906200D02*
X119719000Y-82906200D01*
X131719000Y-82906200D02*
X132719000Y-82906200D01*
X132719000Y-82906200D02*
X132719000Y-83906200D01*
X132719000Y-96906200D02*
X131719000Y-96906200D01*
X132719000Y-95906200D02*
X132719000Y-96906200D01*
X119719000Y-96906200D02*
X118719000Y-96906200D01*
X118719000Y-96906200D02*
X118719000Y-95906200D01*
X118719000Y-83906200D02*
X118719000Y-82906200D01*
G04 #@! TO.C,K26*
X137844000Y-85531200D02*
X138844000Y-85531200D01*
X150844000Y-85531200D02*
X151844000Y-85531200D01*
X151844000Y-85531200D02*
X151844000Y-86531200D01*
X151844000Y-99531200D02*
X150844000Y-99531200D01*
X151844000Y-98531200D02*
X151844000Y-99531200D01*
X138844000Y-99531200D02*
X137844000Y-99531200D01*
X137844000Y-99531200D02*
X137844000Y-98531200D01*
X137844000Y-86531200D02*
X137844000Y-85531200D01*
G04 #@! TO.C,K19*
X137844000Y-66500000D02*
X138844000Y-66500000D01*
X150844000Y-66500000D02*
X151844000Y-66500000D01*
X151844000Y-66500000D02*
X151844000Y-67500000D01*
X151844000Y-80500000D02*
X150844000Y-80500000D01*
X151844000Y-79500000D02*
X151844000Y-80500000D01*
X138844000Y-80500000D02*
X137844000Y-80500000D01*
X137844000Y-80500000D02*
X137844000Y-79500000D01*
X137844000Y-67500000D02*
X137844000Y-66500000D01*
G04 #@! TO.C,K12*
X137844000Y-47468800D02*
X138844000Y-47468800D01*
X150844000Y-47468800D02*
X151844000Y-47468800D01*
X151844000Y-47468800D02*
X151844000Y-48468800D01*
X151844000Y-61468800D02*
X150844000Y-61468800D01*
X151844000Y-60468800D02*
X151844000Y-61468800D01*
X138844000Y-61468800D02*
X137844000Y-61468800D01*
X137844000Y-61468800D02*
X137844000Y-60468800D01*
X137844000Y-48468800D02*
X137844000Y-47468800D01*
G04 #@! TO.C,K31*
X158660293Y-112997011D02*
X159599985Y-113339031D01*
X170876297Y-117443273D02*
X171815989Y-117785293D01*
X171815989Y-117785293D02*
X171473969Y-118724985D01*
X167027707Y-130940989D02*
X166088015Y-130598969D01*
X167369727Y-130001297D02*
X167027707Y-130940989D01*
X154811703Y-126494727D02*
X153872011Y-126152707D01*
X153872011Y-126152707D02*
X154214031Y-125213015D01*
X158318273Y-113936703D02*
X158660293Y-112997011D01*
G04 #@! TO.C,K34*
X176472293Y-119466011D02*
X177411985Y-119808031D01*
X188688297Y-123912273D02*
X189627989Y-124254293D01*
X189627989Y-124254293D02*
X189285969Y-125193985D01*
X184839707Y-137409989D02*
X183900015Y-137067969D01*
X185181727Y-136470297D02*
X184839707Y-137409989D01*
X172623703Y-132963727D02*
X171684011Y-132621707D01*
X171684011Y-132621707D02*
X172026031Y-131682015D01*
X176130273Y-120405703D02*
X176472293Y-119466011D01*
G04 #@! TO.C,K33*
X183035293Y-101559011D02*
X183974985Y-101901031D01*
X195251297Y-106005273D02*
X196190989Y-106347293D01*
X196190989Y-106347293D02*
X195848969Y-107286985D01*
X191402707Y-119502989D02*
X190463015Y-119160969D01*
X191744727Y-118563297D02*
X191402707Y-119502989D01*
X179186703Y-115056727D02*
X178247011Y-114714707D01*
X178247011Y-114714707D02*
X178589031Y-113775015D01*
X182693273Y-102498703D02*
X183035293Y-101559011D01*
G04 #@! TO.C,K4*
X99688000Y-22156200D02*
X100688000Y-22156200D01*
X112688000Y-22156200D02*
X113688000Y-22156200D01*
X113688000Y-22156200D02*
X113688000Y-23156200D01*
X113688000Y-36156200D02*
X112688000Y-36156200D01*
X113688000Y-35156200D02*
X113688000Y-36156200D01*
X100688000Y-36156200D02*
X99688000Y-36156200D01*
X99688000Y-36156200D02*
X99688000Y-35156200D01*
X99688000Y-23156200D02*
X99688000Y-22156200D01*
G04 #@! TO.C,K1*
X42593800Y-30500000D02*
X43593800Y-30500000D01*
X55593800Y-30500000D02*
X56593800Y-30500000D01*
X56593800Y-30500000D02*
X56593800Y-31500000D01*
X56593800Y-44500000D02*
X55593800Y-44500000D01*
X56593800Y-43500000D02*
X56593800Y-44500000D01*
X43593800Y-44500000D02*
X42593800Y-44500000D01*
X42593800Y-44500000D02*
X42593800Y-43500000D01*
X42593800Y-31500000D02*
X42593800Y-30500000D01*
G04 #@! TO.C,K32*
X165222293Y-95090011D02*
X166161985Y-95432031D01*
X177438297Y-99536273D02*
X178377989Y-99878293D01*
X178377989Y-99878293D02*
X178035969Y-100817985D01*
X173589707Y-113033989D02*
X172650015Y-112691969D01*
X173931727Y-112094297D02*
X173589707Y-113033989D01*
X161373703Y-108587727D02*
X160434011Y-108245707D01*
X160434011Y-108245707D02*
X160776031Y-107306015D01*
X164880273Y-96029703D02*
X165222293Y-95090011D01*
G04 #@! TO.C,K30*
X138112253Y-107207786D02*
X139078178Y-107466605D01*
X150669288Y-110572433D02*
X151635214Y-110831253D01*
X151635214Y-110831253D02*
X151376395Y-111797178D01*
X148011747Y-124354214D02*
X147045822Y-124095395D01*
X148270567Y-123388288D02*
X148011747Y-124354214D01*
X135454712Y-120989567D02*
X134488786Y-120730747D01*
X134488786Y-120730747D02*
X134747605Y-119764822D01*
X137853433Y-108173712D02*
X138112253Y-107207786D01*
G04 #@! TO.C,K6*
X137844000Y-28437500D02*
X138844000Y-28437500D01*
X150844000Y-28437500D02*
X151844000Y-28437500D01*
X151844000Y-28437500D02*
X151844000Y-29437500D01*
X151844000Y-42437500D02*
X150844000Y-42437500D01*
X151844000Y-41437500D02*
X151844000Y-42437500D01*
X138844000Y-42437500D02*
X137844000Y-42437500D01*
X137844000Y-42437500D02*
X137844000Y-41437500D01*
X137844000Y-29437500D02*
X137844000Y-28437500D01*
G04 #@! TO.C,K2*
X61625000Y-29000000D02*
X62625000Y-29000000D01*
X74625000Y-29000000D02*
X75625000Y-29000000D01*
X75625000Y-29000000D02*
X75625000Y-30000000D01*
X75625000Y-43000000D02*
X74625000Y-43000000D01*
X75625000Y-42000000D02*
X75625000Y-43000000D01*
X62625000Y-43000000D02*
X61625000Y-43000000D01*
X61625000Y-43000000D02*
X61625000Y-42000000D01*
X61625000Y-30000000D02*
X61625000Y-29000000D01*
G04 #@! TO.C,K3*
X80656200Y-25437500D02*
X81656200Y-25437500D01*
X93656200Y-25437500D02*
X94656200Y-25437500D01*
X94656200Y-25437500D02*
X94656200Y-26437500D01*
X94656200Y-39437500D02*
X93656200Y-39437500D01*
X94656200Y-38437500D02*
X94656200Y-39437500D01*
X81656200Y-39437500D02*
X80656200Y-39437500D01*
X80656200Y-39437500D02*
X80656200Y-38437500D01*
X80656200Y-26437500D02*
X80656200Y-25437500D01*
G04 #@! TO.C,K5*
X118719000Y-25812500D02*
X119719000Y-25812500D01*
X131719000Y-25812500D02*
X132719000Y-25812500D01*
X132719000Y-25812500D02*
X132719000Y-26812500D01*
X132719000Y-39812500D02*
X131719000Y-39812500D01*
X132719000Y-38812500D02*
X132719000Y-39812500D01*
X119719000Y-39812500D02*
X118719000Y-39812500D01*
X118719000Y-39812500D02*
X118719000Y-38812500D01*
X118719000Y-26812500D02*
X118719000Y-25812500D01*
G04 #@! TO.C,K27*
X75593800Y-105125000D02*
X76593800Y-105125000D01*
X88593800Y-105125000D02*
X89593800Y-105125000D01*
X89593800Y-105125000D02*
X89593800Y-106125000D01*
X89593800Y-119125000D02*
X88593800Y-119125000D01*
X89593800Y-118125000D02*
X89593800Y-119125000D01*
X76593800Y-119125000D02*
X75593800Y-119125000D01*
X75593800Y-119125000D02*
X75593800Y-118125000D01*
X75593800Y-106125000D02*
X75593800Y-105125000D01*
G04 #@! TO.C,K28*
X94625000Y-101562000D02*
X95625000Y-101562000D01*
X107625000Y-101562000D02*
X108625000Y-101562000D01*
X108625000Y-101562000D02*
X108625000Y-102562000D01*
X108625000Y-115562000D02*
X107625000Y-115562000D01*
X108625000Y-114562000D02*
X108625000Y-115562000D01*
X95625000Y-115562000D02*
X94625000Y-115562000D01*
X94625000Y-115562000D02*
X94625000Y-114562000D01*
X94625000Y-102562000D02*
X94625000Y-101562000D01*
G04 #@! TO.C,K29*
X117602883Y-103171808D02*
X118587691Y-103345457D01*
X130405384Y-105429235D02*
X131390192Y-105602883D01*
X131390192Y-105602883D02*
X131216543Y-106587691D01*
X128959117Y-119390192D02*
X127974309Y-119216543D01*
X129132765Y-118405384D02*
X128959117Y-119390192D01*
X116156616Y-117132765D02*
X115171808Y-116959117D01*
X115171808Y-116959117D02*
X115345457Y-115974309D01*
X117429235Y-104156616D02*
X117602883Y-103171808D01*
G04 #@! TO.C,J1*
X193535494Y-89384838D02*
X195389861Y-88635624D01*
X193292064Y-83443395D02*
X195389861Y-88635624D01*
X191437697Y-84192608D02*
X193292064Y-83443395D01*
X180125120Y-88493552D02*
X182410221Y-94149373D01*
X193629145Y-89616634D02*
X182410221Y-94149373D01*
X191344045Y-83960812D02*
X193629145Y-89616634D01*
X191344045Y-83960812D02*
X180125120Y-88493552D01*
G04 #@! TO.C,R1*
X174382000Y-69807600D02*
X174382000Y-68607600D01*
X175182000Y-75607600D02*
X174382000Y-75807600D01*
X175382000Y-75407600D02*
X175182000Y-75607600D01*
X175382000Y-75007600D02*
X175382000Y-75407600D01*
X175182000Y-74807600D02*
X175382000Y-75007600D01*
X175182000Y-70807600D02*
X175182000Y-74807600D01*
X175382000Y-70607600D02*
X175182000Y-70807600D01*
X175382000Y-70207600D02*
X175382000Y-70607600D01*
X175182000Y-70007600D02*
X175382000Y-70207600D01*
X174382000Y-69807600D02*
X175182000Y-70007600D01*
X173582000Y-70007600D02*
X174382000Y-69807600D01*
X173382000Y-70207600D02*
X173582000Y-70007600D01*
X173382000Y-70607600D02*
X173382000Y-70207600D01*
X173582000Y-70807600D02*
X173382000Y-70607600D01*
X173582000Y-74807600D02*
X173582000Y-70807600D01*
X173382000Y-75007600D02*
X173582000Y-74807600D01*
X173382000Y-75407600D02*
X173382000Y-75007600D01*
X173582000Y-75607600D02*
X173382000Y-75407600D01*
X174382000Y-75807600D02*
X173582000Y-75607600D01*
X174382000Y-77007600D02*
X174382000Y-75807600D01*
G04 #@! TO.C,R2*
X176726000Y-75901300D02*
X176726000Y-77101300D01*
X175926000Y-70101300D02*
X176726000Y-69901300D01*
X175726000Y-70301300D02*
X175926000Y-70101300D01*
X175726000Y-70701300D02*
X175726000Y-70301300D01*
X175926000Y-70901300D02*
X175726000Y-70701300D01*
X175926000Y-74901300D02*
X175926000Y-70901300D01*
X175726000Y-75101300D02*
X175926000Y-74901300D01*
X175726000Y-75501300D02*
X175726000Y-75101300D01*
X175926000Y-75701300D02*
X175726000Y-75501300D01*
X176726000Y-75901300D02*
X175926000Y-75701300D01*
X177526000Y-75701300D02*
X176726000Y-75901300D01*
X177726000Y-75501300D02*
X177526000Y-75701300D01*
X177726000Y-75101300D02*
X177726000Y-75501300D01*
X177526000Y-74901300D02*
X177726000Y-75101300D01*
X177526000Y-70901300D02*
X177526000Y-74901300D01*
X177726000Y-70701300D02*
X177526000Y-70901300D01*
X177726000Y-70301300D02*
X177726000Y-70701300D01*
X177526000Y-70101300D02*
X177726000Y-70301300D01*
X176726000Y-69901300D02*
X177526000Y-70101300D01*
X176726000Y-68701300D02*
X176726000Y-69901300D01*
G04 #@! TO.C,M1*
X92952976Y-22458580D02*
X93286309Y-21982390D01*
X93524404Y-22458580D02*
X93524404Y-21458580D01*
X93143452Y-21458580D01*
X93048214Y-21506200D01*
X93000595Y-21553819D01*
X92952976Y-21649057D01*
X92952976Y-21791914D01*
X93000595Y-21887152D01*
X93048214Y-21934771D01*
X93143452Y-21982390D01*
X93524404Y-21982390D01*
X92572023Y-22172866D02*
X92095833Y-22172866D01*
X92667261Y-22458580D02*
X92333928Y-21458580D01*
X92000595Y-22458580D01*
X91762500Y-21458580D02*
X91524404Y-22458580D01*
X91333928Y-21744295D01*
X91143452Y-22458580D01*
X90905357Y-21458580D01*
X84200595Y-21458580D02*
X83629166Y-21458580D01*
X83914880Y-22458580D02*
X83914880Y-21458580D01*
X83391071Y-21458580D02*
X82724404Y-22458580D01*
X82724404Y-21458580D02*
X83391071Y-22458580D01*
X82152976Y-21458580D02*
X82057738Y-21458580D01*
X81962500Y-21506200D01*
X81914880Y-21553819D01*
X81867261Y-21649057D01*
X81819642Y-21839533D01*
X81819642Y-22077628D01*
X81867261Y-22268104D01*
X81914880Y-22363342D01*
X81962500Y-22410961D01*
X82057738Y-22458580D01*
X82152976Y-22458580D01*
X82248214Y-22410961D01*
X82295833Y-22363342D01*
X82343452Y-22268104D01*
X82391071Y-22077628D01*
X82391071Y-21839533D01*
X82343452Y-21649057D01*
X82295833Y-21553819D01*
X82248214Y-21506200D01*
X82152976Y-21458580D01*
G04 #@! TO.C,J1*
X191317107Y-89582644D02*
X190942500Y-88655460D01*
X190589287Y-88798167D01*
X190518823Y-88877996D01*
X190492509Y-88939986D01*
X190484035Y-89046128D01*
X190537550Y-89178582D01*
X190617378Y-89249047D01*
X190679368Y-89275360D01*
X190785510Y-89283835D01*
X191138723Y-89141128D01*
X189750407Y-89137097D02*
X190017983Y-89799371D01*
X190115650Y-89913988D01*
X190239630Y-89966614D01*
X190389923Y-89957251D01*
X190478226Y-89921574D01*
X189540790Y-89889452D02*
X188834364Y-90174867D01*
X188249252Y-89743603D02*
X187675281Y-89975502D01*
X188127050Y-90203846D01*
X187994595Y-90257362D01*
X187924130Y-90337190D01*
X187897817Y-90399180D01*
X187889342Y-90505322D01*
X187978534Y-90726080D01*
X188058362Y-90796545D01*
X188120352Y-90822858D01*
X188226494Y-90831333D01*
X188491404Y-90724302D01*
X188561869Y-90644474D01*
X188588182Y-90582484D01*
X187357745Y-90206513D02*
X187295755Y-90180200D01*
X187189613Y-90171725D01*
X186968855Y-90260917D01*
X186898390Y-90340745D01*
X186872077Y-90402735D01*
X186863602Y-90508877D01*
X186899279Y-90597180D01*
X186996946Y-90711797D01*
X187740826Y-91027555D01*
X187166855Y-91259454D01*
X186218278Y-90564170D02*
X186129975Y-90599847D01*
X186059510Y-90679675D01*
X186033197Y-90741665D01*
X186024722Y-90847807D01*
X186051924Y-91042252D01*
X186141116Y-91263010D01*
X186256621Y-91421778D01*
X186336450Y-91492243D01*
X186398440Y-91518556D01*
X186504581Y-91527031D01*
X186592884Y-91491354D01*
X186663349Y-91411525D01*
X186689663Y-91349535D01*
X186698137Y-91243394D01*
X186670935Y-91048949D01*
X186581743Y-90828191D01*
X186466238Y-90669423D01*
X186386410Y-90598958D01*
X186324420Y-90572645D01*
X186218278Y-90564170D01*
X185823580Y-91494020D02*
X185382064Y-91672404D01*
X186018914Y-91723253D02*
X185335246Y-90920938D01*
X185400791Y-91972991D01*
G04 #@! TD*
M02*
