M48
INCH,TZ
T1C0.0157
T2C0.0354
T3C0.0390
T4C0.0430
T5C0.0590
%
G90
G05
T1
X3.3204Y-2.9829
X7.0072Y-3.2321
T3
X6.8654Y-2.6664
X6.8654Y-3.0664
X3.0782Y-3.3785
X3.0782Y-3.6785
X3.6282Y-4.1315
X3.6282Y-4.4315
X6.0166Y-4.8026
X6.1192Y-4.5207
X1.6093Y-2.083
X1.6093Y-2.383
X2.329Y-2.0129
X2.329Y-2.3129
X2.329Y-3.5188
X2.329Y-3.8188
X6.2713Y-4.1161
X6.3739Y-3.8342
X4.5731Y-2.644
X4.5731Y-2.944
X4.5768Y-1.1418
X4.5768Y-1.4418
X1.6056Y-1.3264
X1.6056Y-1.6264
X3.8275Y-2.5001
X3.8275Y-2.8001
X6.9689Y-4.3708
X7.0715Y-4.0889
X5.326Y-1.2526
X5.326Y-1.5526
X4.5768Y-1.8985
X4.5768Y-2.1985
X6.9577Y-2.6701
X6.9577Y-3.0701
X4.0392Y-1.5207
X4.3392Y-1.5207
X6.0753Y-2.8729
X6.0753Y-3.1729
X1.6093Y-2.8249
X1.6093Y-3.1249
X5.326Y-1.9981
X5.326Y-2.2981
X3.0782Y-2.1568
X3.0782Y-2.4568
X2.3253Y-1.271
X2.3253Y-1.571
X5.2355Y-4.6146
X5.3132Y-4.3248
X2.5518Y-1.7938
X2.8518Y-1.7938
X6.7105Y-5.0684
X6.8131Y-4.7864
X3.0782Y-2.6293
X3.0782Y-2.9293
X5.326Y-2.7511
X5.326Y-3.0511
X3.8275Y-2.0719
X3.8275Y-2.3719
X4.5731Y-3.3859
X4.5731Y-3.6859
X2.8974Y-4.2681
X2.8974Y-4.5681
X1.5982Y-3.5779
X1.5982Y-3.8779
X6.0753Y-1.9317
X6.0753Y-2.2317
X3.8275Y-3.2494
X3.8275Y-3.5494
X4.4621Y-4.4698
X4.5142Y-4.1744
X2.329Y-2.7732
X2.329Y-3.0732
X5.326Y-3.5003
X5.326Y-3.8003
T4
X3.1473Y-0.8636
X3.1473Y-0.9636
X3.1473Y-1.0636
X3.1473Y-1.1636
X3.1473Y-1.2636
X3.1473Y-1.3636
X3.1473Y-1.4636
X3.1473Y-1.5636
X3.1473Y-1.6636
X3.1473Y-1.7636
X3.1473Y-1.8636
X3.1473Y-1.9636
X3.7473Y-0.8636
X3.7473Y-0.9636
X3.7473Y-1.0636
X3.7473Y-1.1636
X3.7473Y-1.2636
X3.7473Y-1.3636
X3.7473Y-1.4636
X3.7473Y-1.5636
X3.7473Y-1.6636
X3.7473Y-1.7636
X3.7473Y-1.8636
X3.7473Y-1.9636
T5
X3.1017Y-4.3144
X3.1517Y-4.2144
X3.3517Y-4.2144
X3.4017Y-4.3144
X3.301Y-2.6756
X3.351Y-2.5756
X3.551Y-2.5756
X3.601Y-2.6756
X1.8025Y-2.1256
X1.8525Y-2.0256
X2.0525Y-2.0256
X2.1025Y-2.1256
X5.5134Y-4.4229
X5.5875Y-4.3392
X5.7807Y-4.391
X5.8031Y-4.5005
X7.2641Y-4.2063
X7.3453Y-4.1295
X7.5332Y-4.1979
X7.546Y-4.3089
X1.8025Y-1.3764
X1.8525Y-1.2764
X2.0525Y-1.2764
X2.1025Y-1.3764
X4.0503Y-3.2957
X4.1003Y-3.1957
X4.3003Y-3.1957
X4.3503Y-3.2957
X2.5518Y-3.5651
X2.6018Y-3.4651
X2.8018Y-3.4651
X2.8518Y-3.5651
X6.3044Y-4.6567
X6.3856Y-4.5798
X6.5736Y-4.6482
X6.5863Y-4.7593
X4.7996Y-1.1918
X4.8496Y-1.0918
X5.0496Y-1.0918
X5.0996Y-1.1918
X3.301Y-1.1771
X3.351Y-1.0771
X3.551Y-1.0771
X3.601Y-1.1771
X4.0503Y-2.5464
X4.1003Y-2.4464
X4.3003Y-2.4464
X4.3503Y-2.5464
X5.5525Y-2.7937
X5.6025Y-2.6937
X5.8025Y-2.6937
X5.8525Y-2.7937
X6.5628Y-3.9517
X6.644Y-3.8748
X6.8319Y-3.9432
X6.8447Y-4.0543
X4.7996Y-2.6904
X4.8496Y-2.5904
X5.0496Y-2.5904
X5.0996Y-2.6904
X1.8025Y-2.8749
X1.8525Y-2.7749
X2.0525Y-2.7749
X2.1025Y-2.8749
X6.5481Y-2.8729
X6.5481Y-3.1729
X6.6481Y-2.9229
X6.6481Y-3.1229
X4.7996Y-3.4396
X4.8496Y-3.3396
X5.0496Y-3.3396
X5.0996Y-3.4396
X4.7996Y-1.9411
X4.8496Y-1.8411
X5.0496Y-1.8411
X5.0996Y-1.9411
X5.5525Y-2.0444
X5.6025Y-1.9444
X5.8025Y-1.9444
X5.8525Y-2.0444
X4.7232Y-4.2566
X4.7898Y-4.1668
X4.9868Y-4.2015
X5.0187Y-4.3087
X6.5481Y-1.9354
X6.5481Y-2.2354
X6.6481Y-1.9854
X6.6481Y-2.1854
X2.5518Y-2.8158
X2.6018Y-2.7158
X2.8018Y-2.7158
X2.8518Y-2.8158
X5.5525Y-1.2952
X5.6025Y-1.1952
X5.8025Y-1.1952
X5.8525Y-1.2952
X4.0503Y-1.0479
X4.1003Y-0.9479
X4.3003Y-0.9479
X4.3503Y-1.0479
X2.5518Y-2.0666
X2.6018Y-1.9666
X2.8018Y-1.9666
X2.8518Y-2.0666
X3.301Y-1.9263
X3.351Y-1.8263
X3.551Y-1.8263
X3.601Y-1.9263
X7.0057Y-4.9113
X7.0869Y-4.8345
X7.2748Y-4.9029
X7.2876Y-5.0139
X5.5525Y-3.543
X5.6025Y-3.443
X5.8025Y-3.443
X5.8525Y-3.543
X3.851Y-4.1741
X3.901Y-4.0741
X4.101Y-4.0741
X4.151Y-4.1741
X1.8025Y-3.6242
X1.8525Y-3.5242
X2.0525Y-3.5242
X2.1025Y-3.6242
X3.301Y-3.4249
X3.351Y-3.3249
X3.551Y-3.3249
X3.601Y-3.4249
X4.0503Y-1.7971
X4.1003Y-1.6971
X4.3003Y-1.6971
X4.3503Y-1.7971
X2.5518Y-1.3173
X2.6018Y-1.2173
X2.8018Y-1.2173
X2.8518Y-1.3173
T2
X7.0749Y-3.3272G85X7.053Y-3.3361
G05
X7.1829Y-3.4789G85X7.161Y-3.4878
G05
X7.2106Y-3.6631G85X7.1887Y-3.6719
G05
X7.3289Y-3.4199G85X7.307Y-3.4288
G05
X7.4384Y-3.3757G85X7.4165Y-3.3845
G05
T0
M30
