G04 #@! TF.GenerationSoftware,KiCad,Pcbnew,(5.0.0)*
G04 #@! TF.CreationDate,2018-10-18T18:59:20-04:00*
G04 #@! TF.ProjectId,orthomac2,6F7274686F6D6163322E6B696361645F,rev?*
G04 #@! TF.SameCoordinates,Original*
G04 #@! TF.FileFunction,Legend,Top*
G04 #@! TF.FilePolarity,Positive*
%FSLAX46Y46*%
G04 Gerber Fmt 4.6, Leading zero omitted, Abs format (unit mm)*
G04 Created by KiCad (PCBNEW (5.0.0)) date 10/18/18 18:59:20*
%MOMM*%
%LPD*%
G01*
G04 APERTURE LIST*
%ADD10C,0.500000*%
%ADD11C,0.300000*%
%ADD12C,0.381000*%
%ADD13C,0.203200*%
%ADD14C,0.150000*%
%ADD15C,0.200000*%
G04 APERTURE END LIST*
D10*
X120718750Y-102232142D02*
X120718750Y-99232142D01*
X121718750Y-101375000D01*
X122718750Y-99232142D01*
X122718750Y-102232142D01*
X125433035Y-102232142D02*
X125433035Y-100660714D01*
X125290178Y-100375000D01*
X125004464Y-100232142D01*
X124433035Y-100232142D01*
X124147321Y-100375000D01*
X125433035Y-102089285D02*
X125147321Y-102232142D01*
X124433035Y-102232142D01*
X124147321Y-102089285D01*
X124004464Y-101803571D01*
X124004464Y-101517857D01*
X124147321Y-101232142D01*
X124433035Y-101089285D01*
X125147321Y-101089285D01*
X125433035Y-100946428D01*
X128147321Y-102089285D02*
X127861607Y-102232142D01*
X127290178Y-102232142D01*
X127004464Y-102089285D01*
X126861607Y-101946428D01*
X126718750Y-101660714D01*
X126718750Y-100803571D01*
X126861607Y-100517857D01*
X127004464Y-100375000D01*
X127290178Y-100232142D01*
X127861607Y-100232142D01*
X128147321Y-100375000D01*
X131718750Y-102232142D02*
X131718750Y-99232142D01*
X132861607Y-99232142D01*
X133147321Y-99375000D01*
X133290178Y-99517857D01*
X133433035Y-99803571D01*
X133433035Y-100232142D01*
X133290178Y-100517857D01*
X133147321Y-100660714D01*
X132861607Y-100803571D01*
X131718750Y-100803571D01*
X136004464Y-102232142D02*
X136004464Y-100660714D01*
X135861607Y-100375000D01*
X135575892Y-100232142D01*
X135004464Y-100232142D01*
X134718750Y-100375000D01*
X136004464Y-102089285D02*
X135718750Y-102232142D01*
X135004464Y-102232142D01*
X134718750Y-102089285D01*
X134575892Y-101803571D01*
X134575892Y-101517857D01*
X134718750Y-101232142D01*
X135004464Y-101089285D01*
X135718750Y-101089285D01*
X136004464Y-100946428D01*
X137004464Y-100232142D02*
X138147321Y-100232142D01*
X137433035Y-99232142D02*
X137433035Y-101803571D01*
X137575892Y-102089285D01*
X137861607Y-102232142D01*
X138147321Y-102232142D01*
X138718750Y-100232142D02*
X139861607Y-100232142D01*
X139147321Y-99232142D02*
X139147321Y-101803571D01*
X139290178Y-102089285D01*
X139575892Y-102232142D01*
X139861607Y-102232142D01*
X142004464Y-102089285D02*
X141718750Y-102232142D01*
X141147321Y-102232142D01*
X140861607Y-102089285D01*
X140718750Y-101803571D01*
X140718750Y-100660714D01*
X140861607Y-100375000D01*
X141147321Y-100232142D01*
X141718750Y-100232142D01*
X142004464Y-100375000D01*
X142147321Y-100660714D01*
X142147321Y-100946428D01*
X140718750Y-101232142D01*
X143433035Y-102232142D02*
X143433035Y-100232142D01*
X143433035Y-100803571D02*
X143575892Y-100517857D01*
X143718750Y-100375000D01*
X144004464Y-100232142D01*
X144290178Y-100232142D01*
X145147321Y-102089285D02*
X145433035Y-102232142D01*
X146004464Y-102232142D01*
X146290178Y-102089285D01*
X146433035Y-101803571D01*
X146433035Y-101660714D01*
X146290178Y-101375000D01*
X146004464Y-101232142D01*
X145575892Y-101232142D01*
X145290178Y-101089285D01*
X145147321Y-100803571D01*
X145147321Y-100660714D01*
X145290178Y-100375000D01*
X145575892Y-100232142D01*
X146004464Y-100232142D01*
X146290178Y-100375000D01*
X148147321Y-102232142D02*
X147861607Y-102089285D01*
X147718750Y-101946428D01*
X147575892Y-101660714D01*
X147575892Y-100803571D01*
X147718750Y-100517857D01*
X147861607Y-100375000D01*
X148147321Y-100232142D01*
X148575892Y-100232142D01*
X148861607Y-100375000D01*
X149004464Y-100517857D01*
X149147321Y-100803571D01*
X149147321Y-101660714D01*
X149004464Y-101946428D01*
X148861607Y-102089285D01*
X148575892Y-102232142D01*
X148147321Y-102232142D01*
X150433035Y-100232142D02*
X150433035Y-102232142D01*
X150433035Y-100517857D02*
X150575892Y-100375000D01*
X150861607Y-100232142D01*
X151290178Y-100232142D01*
X151575892Y-100375000D01*
X151718750Y-100660714D01*
X151718750Y-102232142D01*
D11*
X178553571Y-77308035D02*
X179553571Y-77308035D01*
X177982142Y-77665178D02*
X179053571Y-78022321D01*
X179053571Y-77093750D01*
X179410714Y-76522321D02*
X179482142Y-76450892D01*
X179553571Y-76522321D01*
X179482142Y-76593750D01*
X179410714Y-76522321D01*
X179553571Y-76522321D01*
X178053571Y-75950892D02*
X178053571Y-74950892D01*
X179553571Y-75593750D01*
X179553571Y-73236607D02*
X178053571Y-73236607D01*
X179553571Y-72379464D02*
X178696428Y-73022321D01*
X178053571Y-72379464D02*
X178910714Y-73236607D01*
X179553571Y-71522321D02*
X179482142Y-71665178D01*
X179410714Y-71736607D01*
X179267857Y-71808035D01*
X178839285Y-71808035D01*
X178696428Y-71736607D01*
X178625000Y-71665178D01*
X178553571Y-71522321D01*
X178553571Y-71308035D01*
X178625000Y-71165178D01*
X178696428Y-71093750D01*
X178839285Y-71022321D01*
X179267857Y-71022321D01*
X179410714Y-71093750D01*
X179482142Y-71165178D01*
X179553571Y-71308035D01*
X179553571Y-71522321D01*
X179553571Y-70379464D02*
X178053571Y-70379464D01*
X179553571Y-69736607D02*
X178767857Y-69736607D01*
X178625000Y-69808035D01*
X178553571Y-69950892D01*
X178553571Y-70165178D01*
X178625000Y-70308035D01*
X178696428Y-70379464D01*
X179553571Y-69022321D02*
X178553571Y-69022321D01*
X178696428Y-69022321D02*
X178625000Y-68950892D01*
X178553571Y-68808035D01*
X178553571Y-68593750D01*
X178625000Y-68450892D01*
X178767857Y-68379464D01*
X179553571Y-68379464D01*
X178767857Y-68379464D02*
X178625000Y-68308035D01*
X178553571Y-68165178D01*
X178553571Y-67950892D01*
X178625000Y-67808035D01*
X178767857Y-67736607D01*
X179553571Y-67736607D01*
D12*
G04 #@! TO.C,M1*
X81212500Y-23206200D02*
X78672500Y-23206200D01*
X81212500Y-20666200D02*
X81212500Y-23206200D01*
X96452500Y-51146200D02*
X96452500Y-20666200D01*
X78672500Y-51146200D02*
X96452500Y-51146200D01*
X78672500Y-20666200D02*
X78672500Y-51146200D01*
X96452500Y-20666200D02*
X78672500Y-20666200D01*
D13*
G04 #@! TO.C,D26*
X134138000Y-91194800D02*
X136424000Y-91194800D01*
X134138000Y-94242800D02*
X134138000Y-91194800D01*
X136424000Y-94242800D02*
X134138000Y-94242800D01*
X136424000Y-91194800D02*
X136424000Y-94242800D01*
D14*
X134181000Y-94018800D02*
X136281000Y-94018800D01*
X136381000Y-94018800D02*
X136281000Y-94018800D01*
X136281000Y-94018800D02*
X136381000Y-94018800D01*
X136381000Y-93818800D02*
X134181000Y-93818800D01*
X134181000Y-93618800D02*
X136381000Y-93618800D01*
D13*
G04 #@! TO.C,D30*
X133259387Y-111763099D02*
X135467493Y-112354759D01*
X132470507Y-114707241D02*
X133259387Y-111763099D01*
X134678613Y-115298901D02*
X132470507Y-114707241D01*
X135467493Y-112354759D02*
X134678613Y-115298901D01*
D14*
X132570017Y-114502003D02*
X134598461Y-115045523D01*
X134695054Y-115071405D02*
X134598461Y-115045523D01*
X134598461Y-115045523D02*
X134695054Y-115071405D01*
X134746817Y-114878219D02*
X132621781Y-114308817D01*
X132673544Y-114115632D02*
X134798581Y-114685034D01*
D13*
G04 #@! TO.C,D13*
X153169000Y-51351000D02*
X155455000Y-51351000D01*
X153169000Y-54399000D02*
X153169000Y-51351000D01*
X155455000Y-54399000D02*
X153169000Y-54399000D01*
X155455000Y-51351000D02*
X155455000Y-54399000D01*
D14*
X153212000Y-54175000D02*
X155312000Y-54175000D01*
X155412000Y-54175000D02*
X155312000Y-54175000D01*
X155312000Y-54175000D02*
X155412000Y-54175000D01*
X155412000Y-53975000D02*
X153212000Y-53975000D01*
X153212000Y-53775000D02*
X155412000Y-53775000D01*
D13*
G04 #@! TO.C,D19*
X134138000Y-72163500D02*
X136424000Y-72163500D01*
X134138000Y-75211500D02*
X134138000Y-72163500D01*
X136424000Y-75211500D02*
X134138000Y-75211500D01*
X136424000Y-72163500D02*
X136424000Y-75211500D01*
D14*
X134181000Y-74987500D02*
X136281000Y-74987500D01*
X136381000Y-74987500D02*
X136281000Y-74987500D01*
X136281000Y-74987500D02*
X136381000Y-74987500D01*
X136381000Y-74787500D02*
X134181000Y-74787500D01*
X134181000Y-74587500D02*
X136381000Y-74587500D01*
D13*
G04 #@! TO.C,D20*
X153169000Y-75257200D02*
X155455000Y-75257200D01*
X153169000Y-78305200D02*
X153169000Y-75257200D01*
X155455000Y-78305200D02*
X153169000Y-78305200D01*
X155455000Y-75257200D02*
X155455000Y-78305200D01*
D14*
X153212000Y-78081200D02*
X155312000Y-78081200D01*
X155412000Y-78081200D02*
X155312000Y-78081200D01*
X155312000Y-78081200D02*
X155412000Y-78081200D01*
X155412000Y-77881200D02*
X153212000Y-77881200D01*
X153212000Y-77681200D02*
X155412000Y-77681200D01*
D13*
G04 #@! TO.C,D12*
X134138000Y-53038500D02*
X136424000Y-53038500D01*
X134138000Y-56086500D02*
X134138000Y-53038500D01*
X136424000Y-56086500D02*
X134138000Y-56086500D01*
X136424000Y-53038500D02*
X136424000Y-56086500D01*
D14*
X134181000Y-55862500D02*
X136281000Y-55862500D01*
X136381000Y-55862500D02*
X136281000Y-55862500D01*
X136281000Y-55862500D02*
X136381000Y-55862500D01*
X136381000Y-55662500D02*
X134181000Y-55662500D01*
X134181000Y-55462500D02*
X136381000Y-55462500D01*
D13*
G04 #@! TO.C,D6*
X134138000Y-34101000D02*
X136424000Y-34101000D01*
X134138000Y-37149000D02*
X134138000Y-34101000D01*
X136424000Y-37149000D02*
X134138000Y-37149000D01*
X136424000Y-34101000D02*
X136424000Y-37149000D01*
D14*
X134181000Y-36925000D02*
X136281000Y-36925000D01*
X136381000Y-36925000D02*
X136281000Y-36925000D01*
X136281000Y-36925000D02*
X136381000Y-36925000D01*
X136381000Y-36725000D02*
X134181000Y-36725000D01*
X134181000Y-36525000D02*
X136381000Y-36525000D01*
D13*
G04 #@! TO.C,D32*
X160041170Y-99145979D02*
X162189307Y-99927837D01*
X158998693Y-102010163D02*
X160041170Y-99145979D01*
X161146830Y-102792021D02*
X158998693Y-102010163D01*
X162189307Y-99927837D02*
X161146830Y-102792021D01*
D14*
X159115712Y-101814378D02*
X161089066Y-102532621D01*
X161183036Y-102566823D02*
X161089066Y-102532621D01*
X161089066Y-102532621D02*
X161183036Y-102566823D01*
X161251440Y-102378884D02*
X159184116Y-101626440D01*
X159252520Y-101438501D02*
X161319844Y-102190946D01*
D13*
G04 #@! TO.C,D31*
X153572170Y-116582979D02*
X155720307Y-117364837D01*
X152529693Y-119447163D02*
X153572170Y-116582979D01*
X154677830Y-120229021D02*
X152529693Y-119447163D01*
X155720307Y-117364837D02*
X154677830Y-120229021D01*
D14*
X152646712Y-119251378D02*
X154620066Y-119969621D01*
X154714036Y-120003823D02*
X154620066Y-119969621D01*
X154620066Y-119969621D02*
X154714036Y-120003823D01*
X154782440Y-119815884D02*
X152715116Y-119063440D01*
X152783520Y-118875501D02*
X154850844Y-119627946D01*
D13*
G04 #@! TO.C,D1*
X39638200Y-35976000D02*
X41924200Y-35976000D01*
X39638200Y-39024000D02*
X39638200Y-35976000D01*
X41924200Y-39024000D02*
X39638200Y-39024000D01*
X41924200Y-35976000D02*
X41924200Y-39024000D01*
D14*
X39681200Y-38800000D02*
X41781200Y-38800000D01*
X41881200Y-38800000D02*
X41781200Y-38800000D01*
X41781200Y-38800000D02*
X41881200Y-38800000D01*
X41881200Y-38600000D02*
X39681200Y-38600000D01*
X39681200Y-38400000D02*
X41881200Y-38400000D01*
D13*
G04 #@! TO.C,D2*
X57919500Y-34569800D02*
X60205500Y-34569800D01*
X57919500Y-37617800D02*
X57919500Y-34569800D01*
X60205500Y-37617800D02*
X57919500Y-37617800D01*
X60205500Y-34569800D02*
X60205500Y-37617800D01*
D14*
X57962500Y-37393800D02*
X60062500Y-37393800D01*
X60162500Y-37393800D02*
X60062500Y-37393800D01*
X60062500Y-37393800D02*
X60162500Y-37393800D01*
X60162500Y-37193800D02*
X57962500Y-37193800D01*
X57962500Y-36993800D02*
X60162500Y-36993800D01*
D13*
G04 #@! TO.C,D3*
X67101000Y-46705500D02*
X67101000Y-44419500D01*
X70149000Y-46705500D02*
X67101000Y-46705500D01*
X70149000Y-44419500D02*
X70149000Y-46705500D01*
X67101000Y-44419500D02*
X70149000Y-44419500D01*
D14*
X69925000Y-46662500D02*
X69925000Y-44562500D01*
X69925000Y-44462500D02*
X69925000Y-44562500D01*
X69925000Y-44562500D02*
X69925000Y-44462500D01*
X69725000Y-44462500D02*
X69725000Y-46662500D01*
X69525000Y-46662500D02*
X69525000Y-44462500D01*
D13*
G04 #@! TO.C,D4*
X104882000Y-39768000D02*
X104882000Y-37482000D01*
X107930000Y-39768000D02*
X104882000Y-39768000D01*
X107930000Y-37482000D02*
X107930000Y-39768000D01*
X104882000Y-37482000D02*
X107930000Y-37482000D01*
D14*
X107706000Y-39725000D02*
X107706000Y-37625000D01*
X107706000Y-37525000D02*
X107706000Y-37625000D01*
X107706000Y-37625000D02*
X107706000Y-37525000D01*
X107506000Y-37525000D02*
X107506000Y-39725000D01*
X107306000Y-39725000D02*
X107306000Y-37525000D01*
D13*
G04 #@! TO.C,D5*
X115107000Y-31288500D02*
X117393000Y-31288500D01*
X115107000Y-34336500D02*
X115107000Y-31288500D01*
X117393000Y-34336500D02*
X115107000Y-34336500D01*
X117393000Y-31288500D02*
X117393000Y-34336500D01*
D14*
X115150000Y-34112500D02*
X117250000Y-34112500D01*
X117350000Y-34112500D02*
X117250000Y-34112500D01*
X117250000Y-34112500D02*
X117350000Y-34112500D01*
X117350000Y-33912500D02*
X115150000Y-33912500D01*
X115150000Y-33712500D02*
X117350000Y-33712500D01*
D13*
G04 #@! TO.C,D7*
X39732000Y-55194800D02*
X42018000Y-55194800D01*
X39732000Y-58242800D02*
X39732000Y-55194800D01*
X42018000Y-58242800D02*
X39732000Y-58242800D01*
X42018000Y-55194800D02*
X42018000Y-58242800D01*
D14*
X39775000Y-58018800D02*
X41875000Y-58018800D01*
X41975000Y-58018800D02*
X41875000Y-58018800D01*
X41875000Y-58018800D02*
X41975000Y-58018800D01*
X41975000Y-57818800D02*
X39775000Y-57818800D01*
X39775000Y-57618800D02*
X41975000Y-57618800D01*
D13*
G04 #@! TO.C,D8*
X58013200Y-53413500D02*
X60299200Y-53413500D01*
X58013200Y-56461500D02*
X58013200Y-53413500D01*
X60299200Y-56461500D02*
X58013200Y-56461500D01*
X60299200Y-53413500D02*
X60299200Y-56461500D01*
D14*
X58056200Y-56237500D02*
X60156200Y-56237500D01*
X60256200Y-56237500D02*
X60156200Y-56237500D01*
X60156200Y-56237500D02*
X60256200Y-56237500D01*
X60256200Y-56037500D02*
X58056200Y-56037500D01*
X58056200Y-55837500D02*
X60256200Y-55837500D01*
D13*
G04 #@! TO.C,D9*
X77044500Y-57069800D02*
X79330500Y-57069800D01*
X77044500Y-60117800D02*
X77044500Y-57069800D01*
X79330500Y-60117800D02*
X77044500Y-60117800D01*
X79330500Y-57069800D02*
X79330500Y-60117800D01*
D14*
X77087500Y-59893800D02*
X79187500Y-59893800D01*
X79287500Y-59893800D02*
X79187500Y-59893800D01*
X79187500Y-59893800D02*
X79287500Y-59893800D01*
X79287500Y-59693800D02*
X77087500Y-59693800D01*
X77087500Y-59493800D02*
X79287500Y-59493800D01*
D13*
G04 #@! TO.C,D10*
X96075800Y-54913500D02*
X98361800Y-54913500D01*
X96075800Y-57961500D02*
X96075800Y-54913500D01*
X98361800Y-57961500D02*
X96075800Y-57961500D01*
X98361800Y-54913500D02*
X98361800Y-57961500D01*
D14*
X96118800Y-57737500D02*
X98218800Y-57737500D01*
X98318800Y-57737500D02*
X98218800Y-57737500D01*
X98218800Y-57737500D02*
X98318800Y-57737500D01*
X98318800Y-57537500D02*
X96118800Y-57537500D01*
X96118800Y-57337500D02*
X98318800Y-57337500D01*
D13*
G04 #@! TO.C,D11*
X115107000Y-50507200D02*
X117393000Y-50507200D01*
X115107000Y-53555200D02*
X115107000Y-50507200D01*
X117393000Y-53555200D02*
X115107000Y-53555200D01*
X117393000Y-50507200D02*
X117393000Y-53555200D01*
D14*
X115150000Y-53331200D02*
X117250000Y-53331200D01*
X117350000Y-53331200D02*
X117250000Y-53331200D01*
X117250000Y-53331200D02*
X117350000Y-53331200D01*
X117350000Y-53131200D02*
X115150000Y-53131200D01*
X115150000Y-52931200D02*
X117350000Y-52931200D01*
D13*
G04 #@! TO.C,D14*
X39732000Y-74038500D02*
X42018000Y-74038500D01*
X39732000Y-77086500D02*
X39732000Y-74038500D01*
X42018000Y-77086500D02*
X39732000Y-77086500D01*
X42018000Y-74038500D02*
X42018000Y-77086500D01*
D14*
X39775000Y-76862500D02*
X41875000Y-76862500D01*
X41975000Y-76862500D02*
X41875000Y-76862500D01*
X41875000Y-76862500D02*
X41975000Y-76862500D01*
X41975000Y-76662500D02*
X39775000Y-76662500D01*
X39775000Y-76462500D02*
X41975000Y-76462500D01*
D13*
G04 #@! TO.C,D15*
X58013200Y-72726000D02*
X60299200Y-72726000D01*
X58013200Y-75774000D02*
X58013200Y-72726000D01*
X60299200Y-75774000D02*
X58013200Y-75774000D01*
X60299200Y-72726000D02*
X60299200Y-75774000D01*
D14*
X58056200Y-75550000D02*
X60156200Y-75550000D01*
X60256200Y-75550000D02*
X60156200Y-75550000D01*
X60156200Y-75550000D02*
X60256200Y-75550000D01*
X60256200Y-75350000D02*
X58056200Y-75350000D01*
X58056200Y-75150000D02*
X60256200Y-75150000D01*
D13*
G04 #@! TO.C,D16*
X77044500Y-69069800D02*
X79330500Y-69069800D01*
X77044500Y-72117800D02*
X77044500Y-69069800D01*
X79330500Y-72117800D02*
X77044500Y-72117800D01*
X79330500Y-69069800D02*
X79330500Y-72117800D01*
D14*
X77087500Y-71893800D02*
X79187500Y-71893800D01*
X79287500Y-71893800D02*
X79187500Y-71893800D01*
X79187500Y-71893800D02*
X79287500Y-71893800D01*
X79287500Y-71693800D02*
X77087500Y-71693800D01*
X77087500Y-71493800D02*
X79287500Y-71493800D01*
D13*
G04 #@! TO.C,D17*
X96075800Y-65788500D02*
X98361800Y-65788500D01*
X96075800Y-68836500D02*
X96075800Y-65788500D01*
X98361800Y-68836500D02*
X96075800Y-68836500D01*
X98361800Y-65788500D02*
X98361800Y-68836500D01*
D14*
X96118800Y-68612500D02*
X98218800Y-68612500D01*
X98318800Y-68612500D02*
X98218800Y-68612500D01*
X98218800Y-68612500D02*
X98318800Y-68612500D01*
X98318800Y-68412500D02*
X96118800Y-68412500D01*
X96118800Y-68212500D02*
X98318800Y-68212500D01*
D13*
G04 #@! TO.C,D18*
X115013000Y-69444800D02*
X117299000Y-69444800D01*
X115013000Y-72492800D02*
X115013000Y-69444800D01*
X117299000Y-72492800D02*
X115013000Y-72492800D01*
X117299000Y-69444800D02*
X117299000Y-72492800D01*
D14*
X115056000Y-72268800D02*
X117156000Y-72268800D01*
X117256000Y-72268800D02*
X117156000Y-72268800D01*
X117156000Y-72268800D02*
X117256000Y-72268800D01*
X117256000Y-72068800D02*
X115056000Y-72068800D01*
X115056000Y-71868800D02*
X117256000Y-71868800D01*
D13*
G04 #@! TO.C,D21*
X39450800Y-93163500D02*
X41736800Y-93163500D01*
X39450800Y-96211500D02*
X39450800Y-93163500D01*
X41736800Y-96211500D02*
X39450800Y-96211500D01*
X41736800Y-93163500D02*
X41736800Y-96211500D01*
D14*
X39493800Y-95987500D02*
X41593800Y-95987500D01*
X41693800Y-95987500D02*
X41593800Y-95987500D01*
X41593800Y-95987500D02*
X41693800Y-95987500D01*
X41693800Y-95787500D02*
X39493800Y-95787500D01*
X39493800Y-95587500D02*
X41693800Y-95587500D01*
D13*
G04 #@! TO.C,D22*
X58013200Y-91663500D02*
X60299200Y-91663500D01*
X58013200Y-94711500D02*
X58013200Y-91663500D01*
X60299200Y-94711500D02*
X58013200Y-94711500D01*
X60299200Y-91663500D02*
X60299200Y-94711500D01*
D14*
X58056200Y-94487500D02*
X60156200Y-94487500D01*
X60256200Y-94487500D02*
X60156200Y-94487500D01*
X60156200Y-94487500D02*
X60256200Y-94487500D01*
X60256200Y-94287500D02*
X58056200Y-94287500D01*
X58056200Y-94087500D02*
X60256200Y-94087500D01*
D13*
G04 #@! TO.C,D23*
X77044500Y-88101000D02*
X79330500Y-88101000D01*
X77044500Y-91149000D02*
X77044500Y-88101000D01*
X79330500Y-91149000D02*
X77044500Y-91149000D01*
X79330500Y-88101000D02*
X79330500Y-91149000D01*
D14*
X77087500Y-90925000D02*
X79187500Y-90925000D01*
X79287500Y-90925000D02*
X79187500Y-90925000D01*
X79187500Y-90925000D02*
X79287500Y-90925000D01*
X79287500Y-90725000D02*
X77087500Y-90725000D01*
X77087500Y-90525000D02*
X79287500Y-90525000D01*
D13*
G04 #@! TO.C,D24*
X96075800Y-84819800D02*
X98361800Y-84819800D01*
X96075800Y-87867800D02*
X96075800Y-84819800D01*
X98361800Y-87867800D02*
X96075800Y-87867800D01*
X98361800Y-84819800D02*
X98361800Y-87867800D01*
D14*
X96118800Y-87643800D02*
X98218800Y-87643800D01*
X98318800Y-87643800D02*
X98218800Y-87643800D01*
X98218800Y-87643800D02*
X98318800Y-87643800D01*
X98318800Y-87443800D02*
X96118800Y-87443800D01*
X96118800Y-87243800D02*
X98318800Y-87243800D01*
D13*
G04 #@! TO.C,D25*
X115013000Y-88288500D02*
X117299000Y-88288500D01*
X115013000Y-91336500D02*
X115013000Y-88288500D01*
X117299000Y-91336500D02*
X115013000Y-91336500D01*
X117299000Y-88288500D02*
X117299000Y-91336500D01*
D14*
X115056000Y-91112500D02*
X117156000Y-91112500D01*
X117256000Y-91112500D02*
X117156000Y-91112500D01*
X117156000Y-91112500D02*
X117256000Y-91112500D01*
X117256000Y-90912500D02*
X115056000Y-90912500D01*
X115056000Y-90712500D02*
X117256000Y-90712500D01*
D13*
G04 #@! TO.C,D27*
X72450800Y-110695000D02*
X74736800Y-110695000D01*
X72450800Y-113743000D02*
X72450800Y-110695000D01*
X74736800Y-113743000D02*
X72450800Y-113743000D01*
X74736800Y-110695000D02*
X74736800Y-113743000D01*
D14*
X72493800Y-113519000D02*
X74593800Y-113519000D01*
X74693800Y-113519000D02*
X74593800Y-113519000D01*
X74593800Y-113519000D02*
X74693800Y-113519000D01*
X74693800Y-113319000D02*
X72493800Y-113319000D01*
X72493800Y-113119000D02*
X74693800Y-113119000D01*
D13*
G04 #@! TO.C,D28*
X91013200Y-107226000D02*
X93299200Y-107226000D01*
X91013200Y-110274000D02*
X91013200Y-107226000D01*
X93299200Y-110274000D02*
X91013200Y-110274000D01*
X93299200Y-107226000D02*
X93299200Y-110274000D01*
D14*
X91056200Y-110050000D02*
X93156200Y-110050000D01*
X93256200Y-110050000D02*
X93156200Y-110050000D01*
X93156200Y-110050000D02*
X93256200Y-110050000D01*
X93256200Y-109850000D02*
X91056200Y-109850000D01*
X91056200Y-109650000D02*
X93256200Y-109650000D01*
D13*
G04 #@! TO.C,D29*
X113139005Y-108081673D02*
X115390275Y-108478633D01*
X112609725Y-111083367D02*
X113139005Y-108081673D01*
X114860995Y-111480327D02*
X112609725Y-111083367D01*
X115390275Y-108478633D02*
X114860995Y-111480327D01*
D14*
X112690969Y-110870237D02*
X114759065Y-111234898D01*
X114857546Y-111252263D02*
X114759065Y-111234898D01*
X114759065Y-111234898D02*
X114857546Y-111252263D01*
X114892276Y-111055302D02*
X112725698Y-110673276D01*
X112760428Y-110476314D02*
X114927005Y-110858340D01*
D13*
G04 #@! TO.C,D33*
X177759170Y-105614979D02*
X179907307Y-106396837D01*
X176716693Y-108479163D02*
X177759170Y-105614979D01*
X178864830Y-109261021D02*
X176716693Y-108479163D01*
X179907307Y-106396837D02*
X178864830Y-109261021D01*
D14*
X176833712Y-108283378D02*
X178807066Y-109001621D01*
X178901036Y-109035823D02*
X178807066Y-109001621D01*
X178807066Y-109001621D02*
X178901036Y-109035823D01*
X178969440Y-108847884D02*
X176902116Y-108095440D01*
X176970520Y-107907501D02*
X179037844Y-108659946D01*
D13*
G04 #@! TO.C,D34*
X171197170Y-123332979D02*
X173345307Y-124114837D01*
X170154693Y-126197163D02*
X171197170Y-123332979D01*
X172302830Y-126979021D02*
X170154693Y-126197163D01*
X173345307Y-124114837D02*
X172302830Y-126979021D01*
D14*
X170271712Y-126001378D02*
X172245066Y-126719621D01*
X172339036Y-126753823D02*
X172245066Y-126719621D01*
X172245066Y-126719621D02*
X172339036Y-126753823D01*
X172407440Y-126565884D02*
X170340116Y-125813440D01*
X170408520Y-125625501D02*
X172475844Y-126377946D01*
G04 #@! TO.C,K20*
X170781000Y-69781200D02*
X170781000Y-70781200D01*
X156781000Y-70781200D02*
X156781000Y-69781200D01*
X157781000Y-83781200D02*
X156781000Y-83781200D01*
X156781000Y-83781200D02*
X156781000Y-82781200D01*
X170781000Y-82781200D02*
X170781000Y-83781200D01*
X170781000Y-83781200D02*
X169781000Y-83781200D01*
X156781000Y-69781200D02*
X157781000Y-69781200D01*
X169781000Y-69781200D02*
X170781000Y-69781200D01*
X154383000Y-65001950D02*
X173179000Y-65001950D01*
X154383000Y-88560450D02*
X154383000Y-65001950D01*
X173179000Y-88560450D02*
X154383000Y-88560450D01*
X173179000Y-65001950D02*
X173179000Y-88560450D01*
G04 #@! TO.C,K13*
X170781000Y-45968800D02*
X170781000Y-46968800D01*
X156781000Y-46968800D02*
X156781000Y-45968800D01*
X157781000Y-59968800D02*
X156781000Y-59968800D01*
X156781000Y-59968800D02*
X156781000Y-58968800D01*
X170781000Y-58968800D02*
X170781000Y-59968800D01*
X170781000Y-59968800D02*
X169781000Y-59968800D01*
X156781000Y-45968800D02*
X157781000Y-45968800D01*
X169781000Y-45968800D02*
X170781000Y-45968800D01*
X154383000Y-41189550D02*
X173179000Y-41189550D01*
X154383000Y-64748050D02*
X154383000Y-41189550D01*
X173179000Y-64748050D02*
X154383000Y-64748050D01*
X173179000Y-41189550D02*
X173179000Y-64748050D01*
G04 #@! TO.C,K21*
X40195800Y-85195800D02*
X58991800Y-85195800D01*
X58991800Y-85195800D02*
X58991800Y-103991800D01*
X58991800Y-103991800D02*
X40195800Y-103991800D01*
X40195800Y-103991800D02*
X40195800Y-85195800D01*
X42593800Y-88593800D02*
X42593800Y-87593800D01*
X42593800Y-101593800D02*
X42593800Y-100593800D01*
X56593800Y-87593800D02*
X56593800Y-88593800D01*
X55593800Y-87593800D02*
X56593800Y-87593800D01*
X56593800Y-101593800D02*
X55593800Y-101593800D01*
X56593800Y-100593800D02*
X56593800Y-101593800D01*
X43593800Y-101593800D02*
X42593800Y-101593800D01*
X42593800Y-87593800D02*
X43593800Y-87593800D01*
G04 #@! TO.C,K14*
X40195800Y-66164500D02*
X58991800Y-66164500D01*
X58991800Y-66164500D02*
X58991800Y-84960500D01*
X58991800Y-84960500D02*
X40195800Y-84960500D01*
X40195800Y-84960500D02*
X40195800Y-66164500D01*
X42593800Y-69562500D02*
X42593800Y-68562500D01*
X42593800Y-82562500D02*
X42593800Y-81562500D01*
X56593800Y-68562500D02*
X56593800Y-69562500D01*
X55593800Y-68562500D02*
X56593800Y-68562500D01*
X56593800Y-82562500D02*
X55593800Y-82562500D01*
X56593800Y-81562500D02*
X56593800Y-82562500D01*
X43593800Y-82562500D02*
X42593800Y-82562500D01*
X42593800Y-68562500D02*
X43593800Y-68562500D01*
G04 #@! TO.C,K7*
X40195800Y-47133200D02*
X58991800Y-47133200D01*
X58991800Y-47133200D02*
X58991800Y-65929200D01*
X58991800Y-65929200D02*
X40195800Y-65929200D01*
X40195800Y-65929200D02*
X40195800Y-47133200D01*
X42593800Y-50531200D02*
X42593800Y-49531200D01*
X42593800Y-63531200D02*
X42593800Y-62531200D01*
X56593800Y-49531200D02*
X56593800Y-50531200D01*
X55593800Y-49531200D02*
X56593800Y-49531200D01*
X56593800Y-63531200D02*
X55593800Y-63531200D01*
X56593800Y-62531200D02*
X56593800Y-63531200D01*
X43593800Y-63531200D02*
X42593800Y-63531200D01*
X42593800Y-49531200D02*
X43593800Y-49531200D01*
G04 #@! TO.C,K8*
X59227000Y-45633200D02*
X78023000Y-45633200D01*
X78023000Y-45633200D02*
X78023000Y-64429200D01*
X78023000Y-64429200D02*
X59227000Y-64429200D01*
X59227000Y-64429200D02*
X59227000Y-45633200D01*
X61625000Y-49031200D02*
X61625000Y-48031200D01*
X61625000Y-62031200D02*
X61625000Y-61031200D01*
X75625000Y-48031200D02*
X75625000Y-49031200D01*
X74625000Y-48031200D02*
X75625000Y-48031200D01*
X75625000Y-62031200D02*
X74625000Y-62031200D01*
X75625000Y-61031200D02*
X75625000Y-62031200D01*
X62625000Y-62031200D02*
X61625000Y-62031200D01*
X61625000Y-48031200D02*
X62625000Y-48031200D01*
G04 #@! TO.C,K15*
X59227000Y-64664500D02*
X78023000Y-64664500D01*
X78023000Y-64664500D02*
X78023000Y-83460500D01*
X78023000Y-83460500D02*
X59227000Y-83460500D01*
X59227000Y-83460500D02*
X59227000Y-64664500D01*
X61625000Y-68062500D02*
X61625000Y-67062500D01*
X61625000Y-81062500D02*
X61625000Y-80062500D01*
X75625000Y-67062500D02*
X75625000Y-68062500D01*
X74625000Y-67062500D02*
X75625000Y-67062500D01*
X75625000Y-81062500D02*
X74625000Y-81062500D01*
X75625000Y-80062500D02*
X75625000Y-81062500D01*
X62625000Y-81062500D02*
X61625000Y-81062500D01*
X61625000Y-67062500D02*
X62625000Y-67062500D01*
G04 #@! TO.C,K22*
X59227000Y-83695800D02*
X78023000Y-83695800D01*
X78023000Y-83695800D02*
X78023000Y-102491800D01*
X78023000Y-102491800D02*
X59227000Y-102491800D01*
X59227000Y-102491800D02*
X59227000Y-83695800D01*
X61625000Y-87093800D02*
X61625000Y-86093800D01*
X61625000Y-100093800D02*
X61625000Y-99093800D01*
X75625000Y-86093800D02*
X75625000Y-87093800D01*
X74625000Y-86093800D02*
X75625000Y-86093800D01*
X75625000Y-100093800D02*
X74625000Y-100093800D01*
X75625000Y-99093800D02*
X75625000Y-100093800D01*
X62625000Y-100093800D02*
X61625000Y-100093800D01*
X61625000Y-86093800D02*
X62625000Y-86093800D01*
G04 #@! TO.C,K23*
X78258200Y-80133200D02*
X97054200Y-80133200D01*
X97054200Y-80133200D02*
X97054200Y-98929200D01*
X97054200Y-98929200D02*
X78258200Y-98929200D01*
X78258200Y-98929200D02*
X78258200Y-80133200D01*
X80656200Y-83531200D02*
X80656200Y-82531200D01*
X80656200Y-96531200D02*
X80656200Y-95531200D01*
X94656200Y-82531200D02*
X94656200Y-83531200D01*
X93656200Y-82531200D02*
X94656200Y-82531200D01*
X94656200Y-96531200D02*
X93656200Y-96531200D01*
X94656200Y-95531200D02*
X94656200Y-96531200D01*
X81656200Y-96531200D02*
X80656200Y-96531200D01*
X80656200Y-82531200D02*
X81656200Y-82531200D01*
G04 #@! TO.C,K16*
X78258200Y-61102000D02*
X97054200Y-61102000D01*
X97054200Y-61102000D02*
X97054200Y-79898000D01*
X97054200Y-79898000D02*
X78258200Y-79898000D01*
X78258200Y-79898000D02*
X78258200Y-61102000D01*
X80656200Y-64500000D02*
X80656200Y-63500000D01*
X80656200Y-77500000D02*
X80656200Y-76500000D01*
X94656200Y-63500000D02*
X94656200Y-64500000D01*
X93656200Y-63500000D02*
X94656200Y-63500000D01*
X94656200Y-77500000D02*
X93656200Y-77500000D01*
X94656200Y-76500000D02*
X94656200Y-77500000D01*
X81656200Y-77500000D02*
X80656200Y-77500000D01*
X80656200Y-63500000D02*
X81656200Y-63500000D01*
G04 #@! TO.C,K9*
X78258200Y-42070800D02*
X97054200Y-42070800D01*
X97054200Y-42070800D02*
X97054200Y-60866800D01*
X97054200Y-60866800D02*
X78258200Y-60866800D01*
X78258200Y-60866800D02*
X78258200Y-42070800D01*
X80656200Y-45468800D02*
X80656200Y-44468800D01*
X80656200Y-58468800D02*
X80656200Y-57468800D01*
X94656200Y-44468800D02*
X94656200Y-45468800D01*
X93656200Y-44468800D02*
X94656200Y-44468800D01*
X94656200Y-58468800D02*
X93656200Y-58468800D01*
X94656200Y-57468800D02*
X94656200Y-58468800D01*
X81656200Y-58468800D02*
X80656200Y-58468800D01*
X80656200Y-44468800D02*
X81656200Y-44468800D01*
G04 #@! TO.C,K24*
X97290000Y-76852000D02*
X116086000Y-76852000D01*
X116086000Y-76852000D02*
X116086000Y-95648000D01*
X116086000Y-95648000D02*
X97290000Y-95648000D01*
X97290000Y-95648000D02*
X97290000Y-76852000D01*
X99688000Y-80250000D02*
X99688000Y-79250000D01*
X99688000Y-93250000D02*
X99688000Y-92250000D01*
X113688000Y-79250000D02*
X113688000Y-80250000D01*
X112688000Y-79250000D02*
X113688000Y-79250000D01*
X113688000Y-93250000D02*
X112688000Y-93250000D01*
X113688000Y-92250000D02*
X113688000Y-93250000D01*
X100688000Y-93250000D02*
X99688000Y-93250000D01*
X99688000Y-79250000D02*
X100688000Y-79250000D01*
G04 #@! TO.C,K17*
X97290000Y-57820800D02*
X116086000Y-57820800D01*
X116086000Y-57820800D02*
X116086000Y-76616800D01*
X116086000Y-76616800D02*
X97290000Y-76616800D01*
X97290000Y-76616800D02*
X97290000Y-57820800D01*
X99688000Y-61218800D02*
X99688000Y-60218800D01*
X99688000Y-74218800D02*
X99688000Y-73218800D01*
X113688000Y-60218800D02*
X113688000Y-61218800D01*
X112688000Y-60218800D02*
X113688000Y-60218800D01*
X113688000Y-74218800D02*
X112688000Y-74218800D01*
X113688000Y-73218800D02*
X113688000Y-74218800D01*
X100688000Y-74218800D02*
X99688000Y-74218800D01*
X99688000Y-60218800D02*
X100688000Y-60218800D01*
G04 #@! TO.C,K10*
X97290000Y-38789500D02*
X116086000Y-38789500D01*
X116086000Y-38789500D02*
X116086000Y-57585500D01*
X116086000Y-57585500D02*
X97290000Y-57585500D01*
X97290000Y-57585500D02*
X97290000Y-38789500D01*
X99688000Y-42187500D02*
X99688000Y-41187500D01*
X99688000Y-55187500D02*
X99688000Y-54187500D01*
X113688000Y-41187500D02*
X113688000Y-42187500D01*
X112688000Y-41187500D02*
X113688000Y-41187500D01*
X113688000Y-55187500D02*
X112688000Y-55187500D01*
X113688000Y-54187500D02*
X113688000Y-55187500D01*
X100688000Y-55187500D02*
X99688000Y-55187500D01*
X99688000Y-41187500D02*
X100688000Y-41187500D01*
G04 #@! TO.C,K11*
X116321000Y-42445800D02*
X135117000Y-42445800D01*
X135117000Y-42445800D02*
X135117000Y-61241800D01*
X135117000Y-61241800D02*
X116321000Y-61241800D01*
X116321000Y-61241800D02*
X116321000Y-42445800D01*
X118719000Y-45843800D02*
X118719000Y-44843800D01*
X118719000Y-58843800D02*
X118719000Y-57843800D01*
X132719000Y-44843800D02*
X132719000Y-45843800D01*
X131719000Y-44843800D02*
X132719000Y-44843800D01*
X132719000Y-58843800D02*
X131719000Y-58843800D01*
X132719000Y-57843800D02*
X132719000Y-58843800D01*
X119719000Y-58843800D02*
X118719000Y-58843800D01*
X118719000Y-44843800D02*
X119719000Y-44843800D01*
G04 #@! TO.C,K18*
X116321000Y-61477000D02*
X135117000Y-61477000D01*
X135117000Y-61477000D02*
X135117000Y-80273000D01*
X135117000Y-80273000D02*
X116321000Y-80273000D01*
X116321000Y-80273000D02*
X116321000Y-61477000D01*
X118719000Y-64875000D02*
X118719000Y-63875000D01*
X118719000Y-77875000D02*
X118719000Y-76875000D01*
X132719000Y-63875000D02*
X132719000Y-64875000D01*
X131719000Y-63875000D02*
X132719000Y-63875000D01*
X132719000Y-77875000D02*
X131719000Y-77875000D01*
X132719000Y-76875000D02*
X132719000Y-77875000D01*
X119719000Y-77875000D02*
X118719000Y-77875000D01*
X118719000Y-63875000D02*
X119719000Y-63875000D01*
G04 #@! TO.C,K25*
X116321000Y-80508200D02*
X135117000Y-80508200D01*
X135117000Y-80508200D02*
X135117000Y-99304200D01*
X135117000Y-99304200D02*
X116321000Y-99304200D01*
X116321000Y-99304200D02*
X116321000Y-80508200D01*
X118719000Y-83906200D02*
X118719000Y-82906200D01*
X118719000Y-96906200D02*
X118719000Y-95906200D01*
X132719000Y-82906200D02*
X132719000Y-83906200D01*
X131719000Y-82906200D02*
X132719000Y-82906200D01*
X132719000Y-96906200D02*
X131719000Y-96906200D01*
X132719000Y-95906200D02*
X132719000Y-96906200D01*
X119719000Y-96906200D02*
X118719000Y-96906200D01*
X118719000Y-82906200D02*
X119719000Y-82906200D01*
G04 #@! TO.C,K26*
X135446000Y-83133200D02*
X154242000Y-83133200D01*
X154242000Y-83133200D02*
X154242000Y-101929200D01*
X154242000Y-101929200D02*
X135446000Y-101929200D01*
X135446000Y-101929200D02*
X135446000Y-83133200D01*
X137844000Y-86531200D02*
X137844000Y-85531200D01*
X137844000Y-99531200D02*
X137844000Y-98531200D01*
X151844000Y-85531200D02*
X151844000Y-86531200D01*
X150844000Y-85531200D02*
X151844000Y-85531200D01*
X151844000Y-99531200D02*
X150844000Y-99531200D01*
X151844000Y-98531200D02*
X151844000Y-99531200D01*
X138844000Y-99531200D02*
X137844000Y-99531200D01*
X137844000Y-85531200D02*
X138844000Y-85531200D01*
G04 #@! TO.C,K19*
X135446000Y-64102000D02*
X154242000Y-64102000D01*
X154242000Y-64102000D02*
X154242000Y-82898000D01*
X154242000Y-82898000D02*
X135446000Y-82898000D01*
X135446000Y-82898000D02*
X135446000Y-64102000D01*
X137844000Y-67500000D02*
X137844000Y-66500000D01*
X137844000Y-80500000D02*
X137844000Y-79500000D01*
X151844000Y-66500000D02*
X151844000Y-67500000D01*
X150844000Y-66500000D02*
X151844000Y-66500000D01*
X151844000Y-80500000D02*
X150844000Y-80500000D01*
X151844000Y-79500000D02*
X151844000Y-80500000D01*
X138844000Y-80500000D02*
X137844000Y-80500000D01*
X137844000Y-66500000D02*
X138844000Y-66500000D01*
G04 #@! TO.C,K12*
X135446000Y-45070800D02*
X154242000Y-45070800D01*
X154242000Y-45070800D02*
X154242000Y-63866800D01*
X154242000Y-63866800D02*
X135446000Y-63866800D01*
X135446000Y-63866800D02*
X135446000Y-45070800D01*
X137844000Y-48468800D02*
X137844000Y-47468800D01*
X137844000Y-61468800D02*
X137844000Y-60468800D01*
X151844000Y-47468800D02*
X151844000Y-48468800D01*
X150844000Y-47468800D02*
X151844000Y-47468800D01*
X151844000Y-61468800D02*
X150844000Y-61468800D01*
X151844000Y-60468800D02*
X151844000Y-61468800D01*
X138844000Y-61468800D02*
X137844000Y-61468800D01*
X137844000Y-47468800D02*
X138844000Y-47468800D01*
G04 #@! TO.C,K31*
X157227074Y-109923463D02*
X174889537Y-116352074D01*
X174889537Y-116352074D02*
X168460926Y-134014537D01*
X168460926Y-134014537D02*
X150798463Y-127585926D01*
X150798463Y-127585926D02*
X157227074Y-109923463D01*
X158318273Y-113936703D02*
X158660293Y-112997011D01*
X153872011Y-126152707D02*
X154214031Y-125213015D01*
X171815989Y-117785293D02*
X171473969Y-118724985D01*
X170876297Y-117443273D02*
X171815989Y-117785293D01*
X167027707Y-130940989D02*
X166088015Y-130598969D01*
X167369727Y-130001297D02*
X167027707Y-130940989D01*
X154811703Y-126494727D02*
X153872011Y-126152707D01*
X158660293Y-112997011D02*
X159599985Y-113339031D01*
G04 #@! TO.C,K34*
X175039074Y-116392463D02*
X192701537Y-122821074D01*
X192701537Y-122821074D02*
X186272926Y-140483537D01*
X186272926Y-140483537D02*
X168610463Y-134054926D01*
X168610463Y-134054926D02*
X175039074Y-116392463D01*
X176130273Y-120405703D02*
X176472293Y-119466011D01*
X171684011Y-132621707D02*
X172026031Y-131682015D01*
X189627989Y-124254293D02*
X189285969Y-125193985D01*
X188688297Y-123912273D02*
X189627989Y-124254293D01*
X184839707Y-137409989D02*
X183900015Y-137067969D01*
X185181727Y-136470297D02*
X184839707Y-137409989D01*
X172623703Y-132963727D02*
X171684011Y-132621707D01*
X176472293Y-119466011D02*
X177411985Y-119808031D01*
G04 #@! TO.C,K33*
X181602074Y-98485463D02*
X199264537Y-104914074D01*
X199264537Y-104914074D02*
X192835926Y-122576537D01*
X192835926Y-122576537D02*
X175173463Y-116147926D01*
X175173463Y-116147926D02*
X181602074Y-98485463D01*
X182693273Y-102498703D02*
X183035293Y-101559011D01*
X178247011Y-114714707D02*
X178589031Y-113775015D01*
X196190989Y-106347293D02*
X195848969Y-107286985D01*
X195251297Y-106005273D02*
X196190989Y-106347293D01*
X191402707Y-119502989D02*
X190463015Y-119160969D01*
X191744727Y-118563297D02*
X191402707Y-119502989D01*
X179186703Y-115056727D02*
X178247011Y-114714707D01*
X183035293Y-101559011D02*
X183974985Y-101901031D01*
G04 #@! TO.C,K4*
X97290000Y-19758200D02*
X116086000Y-19758200D01*
X116086000Y-19758200D02*
X116086000Y-38554200D01*
X116086000Y-38554200D02*
X97290000Y-38554200D01*
X97290000Y-38554200D02*
X97290000Y-19758200D01*
X99688000Y-23156200D02*
X99688000Y-22156200D01*
X99688000Y-36156200D02*
X99688000Y-35156200D01*
X113688000Y-22156200D02*
X113688000Y-23156200D01*
X112688000Y-22156200D02*
X113688000Y-22156200D01*
X113688000Y-36156200D02*
X112688000Y-36156200D01*
X113688000Y-35156200D02*
X113688000Y-36156200D01*
X100688000Y-36156200D02*
X99688000Y-36156200D01*
X99688000Y-22156200D02*
X100688000Y-22156200D01*
G04 #@! TO.C,K1*
X40195800Y-28102000D02*
X58991800Y-28102000D01*
X58991800Y-28102000D02*
X58991800Y-46898000D01*
X58991800Y-46898000D02*
X40195800Y-46898000D01*
X40195800Y-46898000D02*
X40195800Y-28102000D01*
X42593800Y-31500000D02*
X42593800Y-30500000D01*
X42593800Y-44500000D02*
X42593800Y-43500000D01*
X56593800Y-30500000D02*
X56593800Y-31500000D01*
X55593800Y-30500000D02*
X56593800Y-30500000D01*
X56593800Y-44500000D02*
X55593800Y-44500000D01*
X56593800Y-43500000D02*
X56593800Y-44500000D01*
X43593800Y-44500000D02*
X42593800Y-44500000D01*
X42593800Y-30500000D02*
X43593800Y-30500000D01*
G04 #@! TO.C,K32*
X163789074Y-92016463D02*
X181451537Y-98445074D01*
X181451537Y-98445074D02*
X175022926Y-116107537D01*
X175022926Y-116107537D02*
X157360463Y-109678926D01*
X157360463Y-109678926D02*
X163789074Y-92016463D01*
X164880273Y-96029703D02*
X165222293Y-95090011D01*
X160434011Y-108245707D02*
X160776031Y-107306015D01*
X178377989Y-99878293D02*
X178035969Y-100817985D01*
X177438297Y-99536273D02*
X178377989Y-99878293D01*
X173589707Y-113033989D02*
X172650015Y-112691969D01*
X173931727Y-112094297D02*
X173589707Y-113033989D01*
X161373703Y-108587727D02*
X160434011Y-108245707D01*
X165222293Y-95090011D02*
X166161985Y-95432031D01*
G04 #@! TO.C,K30*
X136416610Y-104270848D02*
X154572152Y-109135610D01*
X154572152Y-109135610D02*
X149707390Y-127291152D01*
X149707390Y-127291152D02*
X131551848Y-122426390D01*
X131551848Y-122426390D02*
X136416610Y-104270848D01*
X137853433Y-108173712D02*
X138112253Y-107207786D01*
X134488786Y-120730747D02*
X134747605Y-119764822D01*
X151635214Y-110831253D02*
X151376395Y-111797178D01*
X150669288Y-110572433D02*
X151635214Y-110831253D01*
X148011747Y-124354214D02*
X147045822Y-124095395D01*
X148270567Y-123388288D02*
X148011747Y-124354214D01*
X135454712Y-120989567D02*
X134488786Y-120730747D01*
X138112253Y-107207786D02*
X139078178Y-107466605D01*
G04 #@! TO.C,K6*
X135446000Y-26039500D02*
X154242000Y-26039500D01*
X154242000Y-26039500D02*
X154242000Y-44835500D01*
X154242000Y-44835500D02*
X135446000Y-44835500D01*
X135446000Y-44835500D02*
X135446000Y-26039500D01*
X137844000Y-29437500D02*
X137844000Y-28437500D01*
X137844000Y-42437500D02*
X137844000Y-41437500D01*
X151844000Y-28437500D02*
X151844000Y-29437500D01*
X150844000Y-28437500D02*
X151844000Y-28437500D01*
X151844000Y-42437500D02*
X150844000Y-42437500D01*
X151844000Y-41437500D02*
X151844000Y-42437500D01*
X138844000Y-42437500D02*
X137844000Y-42437500D01*
X137844000Y-28437500D02*
X138844000Y-28437500D01*
G04 #@! TO.C,K2*
X59227000Y-26602000D02*
X78023000Y-26602000D01*
X78023000Y-26602000D02*
X78023000Y-45398000D01*
X78023000Y-45398000D02*
X59227000Y-45398000D01*
X59227000Y-45398000D02*
X59227000Y-26602000D01*
X61625000Y-30000000D02*
X61625000Y-29000000D01*
X61625000Y-43000000D02*
X61625000Y-42000000D01*
X75625000Y-29000000D02*
X75625000Y-30000000D01*
X74625000Y-29000000D02*
X75625000Y-29000000D01*
X75625000Y-43000000D02*
X74625000Y-43000000D01*
X75625000Y-42000000D02*
X75625000Y-43000000D01*
X62625000Y-43000000D02*
X61625000Y-43000000D01*
X61625000Y-29000000D02*
X62625000Y-29000000D01*
G04 #@! TO.C,K3*
X78258200Y-23039500D02*
X97054200Y-23039500D01*
X97054200Y-23039500D02*
X97054200Y-41835500D01*
X97054200Y-41835500D02*
X78258200Y-41835500D01*
X78258200Y-41835500D02*
X78258200Y-23039500D01*
X80656200Y-26437500D02*
X80656200Y-25437500D01*
X80656200Y-39437500D02*
X80656200Y-38437500D01*
X94656200Y-25437500D02*
X94656200Y-26437500D01*
X93656200Y-25437500D02*
X94656200Y-25437500D01*
X94656200Y-39437500D02*
X93656200Y-39437500D01*
X94656200Y-38437500D02*
X94656200Y-39437500D01*
X81656200Y-39437500D02*
X80656200Y-39437500D01*
X80656200Y-25437500D02*
X81656200Y-25437500D01*
G04 #@! TO.C,K5*
X116321000Y-23414500D02*
X135117000Y-23414500D01*
X135117000Y-23414500D02*
X135117000Y-42210500D01*
X135117000Y-42210500D02*
X116321000Y-42210500D01*
X116321000Y-42210500D02*
X116321000Y-23414500D01*
X118719000Y-26812500D02*
X118719000Y-25812500D01*
X118719000Y-39812500D02*
X118719000Y-38812500D01*
X132719000Y-25812500D02*
X132719000Y-26812500D01*
X131719000Y-25812500D02*
X132719000Y-25812500D01*
X132719000Y-39812500D02*
X131719000Y-39812500D01*
X132719000Y-38812500D02*
X132719000Y-39812500D01*
X119719000Y-39812500D02*
X118719000Y-39812500D01*
X118719000Y-25812500D02*
X119719000Y-25812500D01*
G04 #@! TO.C,K27*
X73195800Y-102727000D02*
X91991800Y-102727000D01*
X91991800Y-102727000D02*
X91991800Y-121523000D01*
X91991800Y-121523000D02*
X73195800Y-121523000D01*
X73195800Y-121523000D02*
X73195800Y-102727000D01*
X75593800Y-106125000D02*
X75593800Y-105125000D01*
X75593800Y-119125000D02*
X75593800Y-118125000D01*
X89593800Y-105125000D02*
X89593800Y-106125000D01*
X88593800Y-105125000D02*
X89593800Y-105125000D01*
X89593800Y-119125000D02*
X88593800Y-119125000D01*
X89593800Y-118125000D02*
X89593800Y-119125000D01*
X76593800Y-119125000D02*
X75593800Y-119125000D01*
X75593800Y-105125000D02*
X76593800Y-105125000D01*
G04 #@! TO.C,K28*
X92227000Y-99164000D02*
X111023000Y-99164000D01*
X111023000Y-99164000D02*
X111023000Y-117960000D01*
X111023000Y-117960000D02*
X92227000Y-117960000D01*
X92227000Y-117960000D02*
X92227000Y-99164000D01*
X94625000Y-102562000D02*
X94625000Y-101562000D01*
X94625000Y-115562000D02*
X94625000Y-114562000D01*
X108625000Y-101562000D02*
X108625000Y-102562000D01*
X107625000Y-101562000D02*
X108625000Y-101562000D01*
X108625000Y-115562000D02*
X107625000Y-115562000D01*
X108625000Y-114562000D02*
X108625000Y-115562000D01*
X95625000Y-115562000D02*
X94625000Y-115562000D01*
X94625000Y-101562000D02*
X95625000Y-101562000D01*
G04 #@! TO.C,K29*
X115657722Y-100393831D02*
X134168169Y-103657722D01*
X134168169Y-103657722D02*
X130904278Y-122168169D01*
X130904278Y-122168169D02*
X112393831Y-118904278D01*
X112393831Y-118904278D02*
X115657722Y-100393831D01*
X117429235Y-104156616D02*
X117602883Y-103171808D01*
X115171808Y-116959117D02*
X115345457Y-115974309D01*
X131390192Y-105602883D02*
X131216543Y-106587691D01*
X130405384Y-105429235D02*
X131390192Y-105602883D01*
X128959117Y-119390192D02*
X127974309Y-119216543D01*
X129132765Y-118405384D02*
X128959117Y-119390192D01*
X116156616Y-117132765D02*
X115171808Y-116959117D01*
X117602883Y-103171808D02*
X118587691Y-103345457D01*
G04 #@! TO.C,J1*
X193666671Y-84370579D02*
X191568874Y-79178349D01*
X189714506Y-79927562D02*
X191568874Y-79178349D01*
X191812303Y-85119792D02*
X193666671Y-84370579D01*
X189620855Y-79695766D02*
X178401930Y-84228506D01*
X191905955Y-85351588D02*
X180687030Y-89884328D01*
X180687030Y-89884328D02*
X178401930Y-84228506D01*
X191905955Y-85351588D02*
X189620855Y-79695766D01*
G04 #@! TO.C,R1*
X174382000Y-69807600D02*
X174382000Y-68607600D01*
X174382000Y-77007600D02*
X174382000Y-75807600D01*
X173382000Y-75007600D02*
X173582000Y-74807600D01*
X173382000Y-75407600D02*
X173382000Y-75007600D01*
X173582000Y-75607600D02*
X173382000Y-75407600D01*
X174382000Y-75807600D02*
X173582000Y-75607600D01*
X175182000Y-75607600D02*
X174382000Y-75807600D01*
X175382000Y-75407600D02*
X175182000Y-75607600D01*
X175382000Y-75007600D02*
X175382000Y-75407600D01*
X175182000Y-74807600D02*
X175382000Y-75007600D01*
X175182000Y-70807600D02*
X175182000Y-74807600D01*
X175382000Y-70607600D02*
X175182000Y-70807600D01*
X175382000Y-70207600D02*
X175382000Y-70607600D01*
X175182000Y-70007600D02*
X175382000Y-70207600D01*
X174382000Y-69807600D02*
X175182000Y-70007600D01*
X173582000Y-70007600D02*
X174382000Y-69807600D01*
X173382000Y-70207600D02*
X173582000Y-70007600D01*
X173382000Y-70607600D02*
X173382000Y-70207600D01*
X173582000Y-70807600D02*
X173382000Y-70607600D01*
X173582000Y-74807600D02*
X173582000Y-70807600D01*
G04 #@! TO.C,R2*
X176726000Y-75901300D02*
X176726000Y-77101300D01*
X176726000Y-68701300D02*
X176726000Y-69901300D01*
X177726000Y-70701300D02*
X177526000Y-70901300D01*
X177726000Y-70301300D02*
X177726000Y-70701300D01*
X177526000Y-70101300D02*
X177726000Y-70301300D01*
X176726000Y-69901300D02*
X177526000Y-70101300D01*
X175926000Y-70101300D02*
X176726000Y-69901300D01*
X175726000Y-70301300D02*
X175926000Y-70101300D01*
X175726000Y-70701300D02*
X175726000Y-70301300D01*
X175926000Y-70901300D02*
X175726000Y-70701300D01*
X175926000Y-74901300D02*
X175926000Y-70901300D01*
X175726000Y-75101300D02*
X175926000Y-74901300D01*
X175726000Y-75501300D02*
X175726000Y-75101300D01*
X175926000Y-75701300D02*
X175726000Y-75501300D01*
X176726000Y-75901300D02*
X175926000Y-75701300D01*
X177526000Y-75701300D02*
X176726000Y-75901300D01*
X177726000Y-75501300D02*
X177526000Y-75701300D01*
X177726000Y-75101300D02*
X177726000Y-75501300D01*
X177526000Y-74901300D02*
X177726000Y-75101300D01*
X177526000Y-70901300D02*
X177526000Y-74901300D01*
G04 #@! TO.C,M1*
D13*
X86512023Y-37139914D02*
X85242023Y-37139914D01*
X86149166Y-36631914D01*
X85242023Y-36123914D01*
X86512023Y-36123914D01*
X86512023Y-34599914D02*
X86512023Y-35470771D01*
X86512023Y-35035342D02*
X85242023Y-35035342D01*
X85423452Y-35180485D01*
X85544404Y-35325628D01*
X85604880Y-35470771D01*
D14*
X81824404Y-21458580D02*
X82395833Y-21458580D01*
X82110119Y-22458580D02*
X82110119Y-21458580D01*
X82633928Y-21458580D02*
X83300595Y-22458580D01*
X83300595Y-21458580D02*
X82633928Y-22458580D01*
X83872023Y-21458580D02*
X83967261Y-21458580D01*
X84062500Y-21506200D01*
X84110119Y-21553819D01*
X84157738Y-21649057D01*
X84205357Y-21839533D01*
X84205357Y-22077628D01*
X84157738Y-22268104D01*
X84110119Y-22363342D01*
X84062500Y-22410961D01*
X83967261Y-22458580D01*
X83872023Y-22458580D01*
X83776785Y-22410961D01*
X83729166Y-22363342D01*
X83681547Y-22268104D01*
X83633928Y-22077628D01*
X83633928Y-21839533D01*
X83681547Y-21649057D01*
X83729166Y-21553819D01*
X83776785Y-21506200D01*
X83872023Y-21458580D01*
X91472023Y-22458580D02*
X91138690Y-21982390D01*
X90900595Y-22458580D02*
X90900595Y-21458580D01*
X91281547Y-21458580D01*
X91376785Y-21506200D01*
X91424404Y-21553819D01*
X91472023Y-21649057D01*
X91472023Y-21791914D01*
X91424404Y-21887152D01*
X91376785Y-21934771D01*
X91281547Y-21982390D01*
X90900595Y-21982390D01*
X91852976Y-22172866D02*
X92329166Y-22172866D01*
X91757738Y-22458580D02*
X92091071Y-21458580D01*
X92424404Y-22458580D01*
X92662500Y-21458580D02*
X92900595Y-22458580D01*
X93091071Y-21744295D01*
X93281547Y-22458580D01*
X93519642Y-21458580D01*
G04 #@! TO.C,D26*
D13*
X135855523Y-94569371D02*
X134585523Y-94569371D01*
X134585523Y-94206514D01*
X134646000Y-93988800D01*
X134766952Y-93843657D01*
X134887904Y-93771085D01*
X135129809Y-93698514D01*
X135311238Y-93698514D01*
X135553142Y-93771085D01*
X135674095Y-93843657D01*
X135795047Y-93988800D01*
X135855523Y-94206514D01*
X135855523Y-94569371D01*
X134706476Y-93117942D02*
X134646000Y-93045371D01*
X134585523Y-92900228D01*
X134585523Y-92537371D01*
X134646000Y-92392228D01*
X134706476Y-92319657D01*
X134827428Y-92247085D01*
X134948380Y-92247085D01*
X135129809Y-92319657D01*
X135855523Y-93190514D01*
X135855523Y-92247085D01*
X134585523Y-90940800D02*
X134585523Y-91231085D01*
X134646000Y-91376228D01*
X134706476Y-91448800D01*
X134887904Y-91593942D01*
X135129809Y-91666514D01*
X135613619Y-91666514D01*
X135734571Y-91593942D01*
X135795047Y-91521371D01*
X135855523Y-91376228D01*
X135855523Y-91085942D01*
X135795047Y-90940800D01*
X135734571Y-90868228D01*
X135613619Y-90795657D01*
X135311238Y-90795657D01*
X135190285Y-90868228D01*
X135129809Y-90940800D01*
X135069333Y-91085942D01*
X135069333Y-91376228D01*
X135129809Y-91521371D01*
X135190285Y-91593942D01*
X135311238Y-91666514D01*
G04 #@! TO.C,D30*
X134044984Y-115467212D02*
X132818258Y-115138512D01*
X132912172Y-114788019D01*
X133026936Y-114593375D01*
X133181333Y-114484483D01*
X133316947Y-114445689D01*
X133569392Y-114438200D01*
X133744639Y-114485157D01*
X133959518Y-114617865D01*
X134057566Y-114719269D01*
X134136831Y-114890771D01*
X134138898Y-115116719D01*
X134044984Y-115467212D01*
X133175132Y-113806638D02*
X133419310Y-112895356D01*
X133755154Y-113511265D01*
X133811502Y-113300970D01*
X133907484Y-113176425D01*
X133984682Y-113121979D01*
X134120296Y-113083185D01*
X134412373Y-113161447D01*
X134510422Y-113262850D01*
X134550054Y-113348601D01*
X134570904Y-113504451D01*
X134458207Y-113925042D01*
X134362226Y-114049587D01*
X134285027Y-114104033D01*
X133663487Y-111984074D02*
X133701053Y-111843877D01*
X133797034Y-111719332D01*
X133874232Y-111664886D01*
X134009846Y-111626092D01*
X134262291Y-111618603D01*
X134554369Y-111696865D01*
X134769248Y-111829573D01*
X134867296Y-111930976D01*
X134906929Y-112016727D01*
X134927779Y-112172577D01*
X134890213Y-112312774D01*
X134794232Y-112437319D01*
X134717033Y-112491765D01*
X134581419Y-112530559D01*
X134328974Y-112538048D01*
X134036897Y-112459786D01*
X133822018Y-112327078D01*
X133723969Y-112225675D01*
X133684337Y-112139924D01*
X133663487Y-111984074D01*
G04 #@! TO.C,D13*
X154886523Y-54725571D02*
X153616523Y-54725571D01*
X153616523Y-54362714D01*
X153677000Y-54145000D01*
X153797952Y-53999857D01*
X153918904Y-53927285D01*
X154160809Y-53854714D01*
X154342238Y-53854714D01*
X154584142Y-53927285D01*
X154705095Y-53999857D01*
X154826047Y-54145000D01*
X154886523Y-54362714D01*
X154886523Y-54725571D01*
X154886523Y-52403285D02*
X154886523Y-53274142D01*
X154886523Y-52838714D02*
X153616523Y-52838714D01*
X153797952Y-52983857D01*
X153918904Y-53129000D01*
X153979380Y-53274142D01*
X153616523Y-51895285D02*
X153616523Y-50951857D01*
X154100333Y-51459857D01*
X154100333Y-51242142D01*
X154160809Y-51097000D01*
X154221285Y-51024428D01*
X154342238Y-50951857D01*
X154644619Y-50951857D01*
X154765571Y-51024428D01*
X154826047Y-51097000D01*
X154886523Y-51242142D01*
X154886523Y-51677571D01*
X154826047Y-51822714D01*
X154765571Y-51895285D01*
G04 #@! TO.C,D19*
X135855523Y-75538071D02*
X134585523Y-75538071D01*
X134585523Y-75175214D01*
X134646000Y-74957500D01*
X134766952Y-74812357D01*
X134887904Y-74739785D01*
X135129809Y-74667214D01*
X135311238Y-74667214D01*
X135553142Y-74739785D01*
X135674095Y-74812357D01*
X135795047Y-74957500D01*
X135855523Y-75175214D01*
X135855523Y-75538071D01*
X135855523Y-73215785D02*
X135855523Y-74086642D01*
X135855523Y-73651214D02*
X134585523Y-73651214D01*
X134766952Y-73796357D01*
X134887904Y-73941500D01*
X134948380Y-74086642D01*
X135855523Y-72490071D02*
X135855523Y-72199785D01*
X135795047Y-72054642D01*
X135734571Y-71982071D01*
X135553142Y-71836928D01*
X135311238Y-71764357D01*
X134827428Y-71764357D01*
X134706476Y-71836928D01*
X134646000Y-71909500D01*
X134585523Y-72054642D01*
X134585523Y-72344928D01*
X134646000Y-72490071D01*
X134706476Y-72562642D01*
X134827428Y-72635214D01*
X135129809Y-72635214D01*
X135250761Y-72562642D01*
X135311238Y-72490071D01*
X135371714Y-72344928D01*
X135371714Y-72054642D01*
X135311238Y-71909500D01*
X135250761Y-71836928D01*
X135129809Y-71764357D01*
G04 #@! TO.C,D20*
X154886523Y-78631771D02*
X153616523Y-78631771D01*
X153616523Y-78268914D01*
X153677000Y-78051200D01*
X153797952Y-77906057D01*
X153918904Y-77833485D01*
X154160809Y-77760914D01*
X154342238Y-77760914D01*
X154584142Y-77833485D01*
X154705095Y-77906057D01*
X154826047Y-78051200D01*
X154886523Y-78268914D01*
X154886523Y-78631771D01*
X153737476Y-77180342D02*
X153677000Y-77107771D01*
X153616523Y-76962628D01*
X153616523Y-76599771D01*
X153677000Y-76454628D01*
X153737476Y-76382057D01*
X153858428Y-76309485D01*
X153979380Y-76309485D01*
X154160809Y-76382057D01*
X154886523Y-77252914D01*
X154886523Y-76309485D01*
X153616523Y-75366057D02*
X153616523Y-75220914D01*
X153677000Y-75075771D01*
X153737476Y-75003200D01*
X153858428Y-74930628D01*
X154100333Y-74858057D01*
X154402714Y-74858057D01*
X154644619Y-74930628D01*
X154765571Y-75003200D01*
X154826047Y-75075771D01*
X154886523Y-75220914D01*
X154886523Y-75366057D01*
X154826047Y-75511200D01*
X154765571Y-75583771D01*
X154644619Y-75656342D01*
X154402714Y-75728914D01*
X154100333Y-75728914D01*
X153858428Y-75656342D01*
X153737476Y-75583771D01*
X153677000Y-75511200D01*
X153616523Y-75366057D01*
G04 #@! TO.C,D12*
X135855523Y-56413071D02*
X134585523Y-56413071D01*
X134585523Y-56050214D01*
X134646000Y-55832500D01*
X134766952Y-55687357D01*
X134887904Y-55614785D01*
X135129809Y-55542214D01*
X135311238Y-55542214D01*
X135553142Y-55614785D01*
X135674095Y-55687357D01*
X135795047Y-55832500D01*
X135855523Y-56050214D01*
X135855523Y-56413071D01*
X135855523Y-54090785D02*
X135855523Y-54961642D01*
X135855523Y-54526214D02*
X134585523Y-54526214D01*
X134766952Y-54671357D01*
X134887904Y-54816500D01*
X134948380Y-54961642D01*
X134706476Y-53510214D02*
X134646000Y-53437642D01*
X134585523Y-53292500D01*
X134585523Y-52929642D01*
X134646000Y-52784500D01*
X134706476Y-52711928D01*
X134827428Y-52639357D01*
X134948380Y-52639357D01*
X135129809Y-52711928D01*
X135855523Y-53582785D01*
X135855523Y-52639357D01*
G04 #@! TO.C,D6*
X135855523Y-36749857D02*
X134585523Y-36749857D01*
X134585523Y-36387000D01*
X134646000Y-36169285D01*
X134766952Y-36024142D01*
X134887904Y-35951571D01*
X135129809Y-35879000D01*
X135311238Y-35879000D01*
X135553142Y-35951571D01*
X135674095Y-36024142D01*
X135795047Y-36169285D01*
X135855523Y-36387000D01*
X135855523Y-36749857D01*
X134585523Y-34572714D02*
X134585523Y-34863000D01*
X134646000Y-35008142D01*
X134706476Y-35080714D01*
X134887904Y-35225857D01*
X135129809Y-35298428D01*
X135613619Y-35298428D01*
X135734571Y-35225857D01*
X135795047Y-35153285D01*
X135855523Y-35008142D01*
X135855523Y-34717857D01*
X135795047Y-34572714D01*
X135734571Y-34500142D01*
X135613619Y-34427571D01*
X135311238Y-34427571D01*
X135190285Y-34500142D01*
X135129809Y-34572714D01*
X135069333Y-34717857D01*
X135069333Y-35008142D01*
X135129809Y-35153285D01*
X135190285Y-35225857D01*
X135311238Y-35298428D01*
G04 #@! TO.C,D32*
X160500943Y-102904467D02*
X159307533Y-102470101D01*
X159431637Y-102129127D01*
X159562929Y-101945226D01*
X159726229Y-101850205D01*
X159864708Y-101823378D01*
X160116845Y-101837920D01*
X160287332Y-101899972D01*
X160489827Y-102050903D01*
X160578664Y-102160466D01*
X160642681Y-102338224D01*
X160625047Y-102563492D01*
X160500943Y-102904467D01*
X159779130Y-101174399D02*
X160101801Y-100287866D01*
X160382687Y-100930703D01*
X160457150Y-100726118D01*
X160563621Y-100610413D01*
X160645271Y-100562902D01*
X160783750Y-100536075D01*
X161067895Y-100639495D01*
X161156732Y-100749058D01*
X161188740Y-100837937D01*
X161195928Y-100995011D01*
X161047002Y-101404180D01*
X160940531Y-101519886D01*
X160858881Y-101567396D01*
X160414027Y-99783676D02*
X160382018Y-99694797D01*
X160374831Y-99537723D01*
X160498936Y-99196749D01*
X160605407Y-99081043D01*
X160687056Y-99033532D01*
X160825535Y-99006706D01*
X160939193Y-99048074D01*
X161084860Y-99178321D01*
X161468957Y-100244868D01*
X161791629Y-99358335D01*
G04 #@! TO.C,D31*
X154031943Y-120341467D02*
X152838533Y-119907101D01*
X152962637Y-119566127D01*
X153093929Y-119382226D01*
X153257229Y-119287205D01*
X153395708Y-119260378D01*
X153647845Y-119274920D01*
X153818332Y-119336972D01*
X154020827Y-119487903D01*
X154109664Y-119597466D01*
X154173681Y-119775224D01*
X154156047Y-120000492D01*
X154031943Y-120341467D01*
X153310130Y-118611399D02*
X153632801Y-117724866D01*
X153913687Y-118367703D01*
X153988150Y-118163118D01*
X154094621Y-118047413D01*
X154176271Y-117999902D01*
X154314750Y-117973075D01*
X154598895Y-118076495D01*
X154687732Y-118186058D01*
X154719740Y-118274937D01*
X154726928Y-118432011D01*
X154578002Y-118841180D01*
X154471531Y-118956886D01*
X154389881Y-119004396D01*
X155322629Y-116795335D02*
X155024778Y-117613673D01*
X155173704Y-117204504D02*
X153980294Y-116770138D01*
X154101139Y-116968580D01*
X154165155Y-117146338D01*
X154172343Y-117303412D01*
G04 #@! TO.C,D1*
X41355723Y-38624857D02*
X40085723Y-38624857D01*
X40085723Y-38262000D01*
X40146200Y-38044285D01*
X40267152Y-37899142D01*
X40388104Y-37826571D01*
X40630009Y-37754000D01*
X40811438Y-37754000D01*
X41053342Y-37826571D01*
X41174295Y-37899142D01*
X41295247Y-38044285D01*
X41355723Y-38262000D01*
X41355723Y-38624857D01*
X41355723Y-36302571D02*
X41355723Y-37173428D01*
X41355723Y-36738000D02*
X40085723Y-36738000D01*
X40267152Y-36883142D01*
X40388104Y-37028285D01*
X40448580Y-37173428D01*
G04 #@! TO.C,D2*
X59637023Y-37218657D02*
X58367023Y-37218657D01*
X58367023Y-36855800D01*
X58427500Y-36638085D01*
X58548452Y-36492942D01*
X58669404Y-36420371D01*
X58911309Y-36347800D01*
X59092738Y-36347800D01*
X59334642Y-36420371D01*
X59455595Y-36492942D01*
X59576547Y-36638085D01*
X59637023Y-36855800D01*
X59637023Y-37218657D01*
X58487976Y-35767228D02*
X58427500Y-35694657D01*
X58367023Y-35549514D01*
X58367023Y-35186657D01*
X58427500Y-35041514D01*
X58487976Y-34968942D01*
X58608928Y-34896371D01*
X58729880Y-34896371D01*
X58911309Y-34968942D01*
X59637023Y-35839800D01*
X59637023Y-34896371D01*
G04 #@! TO.C,D3*
X67500142Y-46137023D02*
X67500142Y-44867023D01*
X67863000Y-44867023D01*
X68080714Y-44927500D01*
X68225857Y-45048452D01*
X68298428Y-45169404D01*
X68371000Y-45411309D01*
X68371000Y-45592738D01*
X68298428Y-45834642D01*
X68225857Y-45955595D01*
X68080714Y-46076547D01*
X67863000Y-46137023D01*
X67500142Y-46137023D01*
X68879000Y-44867023D02*
X69822428Y-44867023D01*
X69314428Y-45350833D01*
X69532142Y-45350833D01*
X69677285Y-45411309D01*
X69749857Y-45471785D01*
X69822428Y-45592738D01*
X69822428Y-45895119D01*
X69749857Y-46016071D01*
X69677285Y-46076547D01*
X69532142Y-46137023D01*
X69096714Y-46137023D01*
X68951571Y-46076547D01*
X68879000Y-46016071D01*
G04 #@! TO.C,D4*
X105281142Y-39199523D02*
X105281142Y-37929523D01*
X105644000Y-37929523D01*
X105861714Y-37990000D01*
X106006857Y-38110952D01*
X106079428Y-38231904D01*
X106152000Y-38473809D01*
X106152000Y-38655238D01*
X106079428Y-38897142D01*
X106006857Y-39018095D01*
X105861714Y-39139047D01*
X105644000Y-39199523D01*
X105281142Y-39199523D01*
X107458285Y-38352857D02*
X107458285Y-39199523D01*
X107095428Y-37869047D02*
X106732571Y-38776190D01*
X107676000Y-38776190D01*
G04 #@! TO.C,D5*
X116824523Y-33937357D02*
X115554523Y-33937357D01*
X115554523Y-33574500D01*
X115615000Y-33356785D01*
X115735952Y-33211642D01*
X115856904Y-33139071D01*
X116098809Y-33066500D01*
X116280238Y-33066500D01*
X116522142Y-33139071D01*
X116643095Y-33211642D01*
X116764047Y-33356785D01*
X116824523Y-33574500D01*
X116824523Y-33937357D01*
X115554523Y-31687642D02*
X115554523Y-32413357D01*
X116159285Y-32485928D01*
X116098809Y-32413357D01*
X116038333Y-32268214D01*
X116038333Y-31905357D01*
X116098809Y-31760214D01*
X116159285Y-31687642D01*
X116280238Y-31615071D01*
X116582619Y-31615071D01*
X116703571Y-31687642D01*
X116764047Y-31760214D01*
X116824523Y-31905357D01*
X116824523Y-32268214D01*
X116764047Y-32413357D01*
X116703571Y-32485928D01*
G04 #@! TO.C,D7*
X41449523Y-57843657D02*
X40179523Y-57843657D01*
X40179523Y-57480800D01*
X40240000Y-57263085D01*
X40360952Y-57117942D01*
X40481904Y-57045371D01*
X40723809Y-56972800D01*
X40905238Y-56972800D01*
X41147142Y-57045371D01*
X41268095Y-57117942D01*
X41389047Y-57263085D01*
X41449523Y-57480800D01*
X41449523Y-57843657D01*
X40179523Y-56464800D02*
X40179523Y-55448800D01*
X41449523Y-56101942D01*
G04 #@! TO.C,D8*
X59730723Y-56062357D02*
X58460723Y-56062357D01*
X58460723Y-55699500D01*
X58521200Y-55481785D01*
X58642152Y-55336642D01*
X58763104Y-55264071D01*
X59005009Y-55191500D01*
X59186438Y-55191500D01*
X59428342Y-55264071D01*
X59549295Y-55336642D01*
X59670247Y-55481785D01*
X59730723Y-55699500D01*
X59730723Y-56062357D01*
X59005009Y-54320642D02*
X58944533Y-54465785D01*
X58884057Y-54538357D01*
X58763104Y-54610928D01*
X58702628Y-54610928D01*
X58581676Y-54538357D01*
X58521200Y-54465785D01*
X58460723Y-54320642D01*
X58460723Y-54030357D01*
X58521200Y-53885214D01*
X58581676Y-53812642D01*
X58702628Y-53740071D01*
X58763104Y-53740071D01*
X58884057Y-53812642D01*
X58944533Y-53885214D01*
X59005009Y-54030357D01*
X59005009Y-54320642D01*
X59065485Y-54465785D01*
X59125961Y-54538357D01*
X59246914Y-54610928D01*
X59488819Y-54610928D01*
X59609771Y-54538357D01*
X59670247Y-54465785D01*
X59730723Y-54320642D01*
X59730723Y-54030357D01*
X59670247Y-53885214D01*
X59609771Y-53812642D01*
X59488819Y-53740071D01*
X59246914Y-53740071D01*
X59125961Y-53812642D01*
X59065485Y-53885214D01*
X59005009Y-54030357D01*
G04 #@! TO.C,D9*
X78762023Y-59718657D02*
X77492023Y-59718657D01*
X77492023Y-59355800D01*
X77552500Y-59138085D01*
X77673452Y-58992942D01*
X77794404Y-58920371D01*
X78036309Y-58847800D01*
X78217738Y-58847800D01*
X78459642Y-58920371D01*
X78580595Y-58992942D01*
X78701547Y-59138085D01*
X78762023Y-59355800D01*
X78762023Y-59718657D01*
X78762023Y-58122085D02*
X78762023Y-57831800D01*
X78701547Y-57686657D01*
X78641071Y-57614085D01*
X78459642Y-57468942D01*
X78217738Y-57396371D01*
X77733928Y-57396371D01*
X77612976Y-57468942D01*
X77552500Y-57541514D01*
X77492023Y-57686657D01*
X77492023Y-57976942D01*
X77552500Y-58122085D01*
X77612976Y-58194657D01*
X77733928Y-58267228D01*
X78036309Y-58267228D01*
X78157261Y-58194657D01*
X78217738Y-58122085D01*
X78278214Y-57976942D01*
X78278214Y-57686657D01*
X78217738Y-57541514D01*
X78157261Y-57468942D01*
X78036309Y-57396371D01*
G04 #@! TO.C,D10*
X97793323Y-58288071D02*
X96523323Y-58288071D01*
X96523323Y-57925214D01*
X96583800Y-57707500D01*
X96704752Y-57562357D01*
X96825704Y-57489785D01*
X97067609Y-57417214D01*
X97249038Y-57417214D01*
X97490942Y-57489785D01*
X97611895Y-57562357D01*
X97732847Y-57707500D01*
X97793323Y-57925214D01*
X97793323Y-58288071D01*
X97793323Y-55965785D02*
X97793323Y-56836642D01*
X97793323Y-56401214D02*
X96523323Y-56401214D01*
X96704752Y-56546357D01*
X96825704Y-56691500D01*
X96886180Y-56836642D01*
X96523323Y-55022357D02*
X96523323Y-54877214D01*
X96583800Y-54732071D01*
X96644276Y-54659500D01*
X96765228Y-54586928D01*
X97007133Y-54514357D01*
X97309514Y-54514357D01*
X97551419Y-54586928D01*
X97672371Y-54659500D01*
X97732847Y-54732071D01*
X97793323Y-54877214D01*
X97793323Y-55022357D01*
X97732847Y-55167500D01*
X97672371Y-55240071D01*
X97551419Y-55312642D01*
X97309514Y-55385214D01*
X97007133Y-55385214D01*
X96765228Y-55312642D01*
X96644276Y-55240071D01*
X96583800Y-55167500D01*
X96523323Y-55022357D01*
G04 #@! TO.C,D11*
X116824523Y-53881771D02*
X115554523Y-53881771D01*
X115554523Y-53518914D01*
X115615000Y-53301200D01*
X115735952Y-53156057D01*
X115856904Y-53083485D01*
X116098809Y-53010914D01*
X116280238Y-53010914D01*
X116522142Y-53083485D01*
X116643095Y-53156057D01*
X116764047Y-53301200D01*
X116824523Y-53518914D01*
X116824523Y-53881771D01*
X116824523Y-51559485D02*
X116824523Y-52430342D01*
X116824523Y-51994914D02*
X115554523Y-51994914D01*
X115735952Y-52140057D01*
X115856904Y-52285200D01*
X115917380Y-52430342D01*
X116824523Y-50108057D02*
X116824523Y-50978914D01*
X116824523Y-50543485D02*
X115554523Y-50543485D01*
X115735952Y-50688628D01*
X115856904Y-50833771D01*
X115917380Y-50978914D01*
G04 #@! TO.C,D14*
X41449523Y-77413071D02*
X40179523Y-77413071D01*
X40179523Y-77050214D01*
X40240000Y-76832500D01*
X40360952Y-76687357D01*
X40481904Y-76614785D01*
X40723809Y-76542214D01*
X40905238Y-76542214D01*
X41147142Y-76614785D01*
X41268095Y-76687357D01*
X41389047Y-76832500D01*
X41449523Y-77050214D01*
X41449523Y-77413071D01*
X41449523Y-75090785D02*
X41449523Y-75961642D01*
X41449523Y-75526214D02*
X40179523Y-75526214D01*
X40360952Y-75671357D01*
X40481904Y-75816499D01*
X40542380Y-75961642D01*
X40602857Y-73784500D02*
X41449523Y-73784500D01*
X40119047Y-74147357D02*
X41026190Y-74510214D01*
X41026190Y-73566785D01*
G04 #@! TO.C,D15*
X59730723Y-76100571D02*
X58460723Y-76100571D01*
X58460723Y-75737714D01*
X58521200Y-75520000D01*
X58642152Y-75374857D01*
X58763104Y-75302285D01*
X59005009Y-75229714D01*
X59186438Y-75229714D01*
X59428342Y-75302285D01*
X59549295Y-75374857D01*
X59670247Y-75520000D01*
X59730723Y-75737714D01*
X59730723Y-76100571D01*
X59730723Y-73778285D02*
X59730723Y-74649142D01*
X59730723Y-74213714D02*
X58460723Y-74213714D01*
X58642152Y-74358857D01*
X58763104Y-74503999D01*
X58823580Y-74649142D01*
X58460723Y-72399428D02*
X58460723Y-73125142D01*
X59065485Y-73197714D01*
X59005009Y-73125142D01*
X58944533Y-72980000D01*
X58944533Y-72617142D01*
X59005009Y-72472000D01*
X59065485Y-72399428D01*
X59186438Y-72326857D01*
X59488819Y-72326857D01*
X59609771Y-72399428D01*
X59670247Y-72472000D01*
X59730723Y-72617142D01*
X59730723Y-72980000D01*
X59670247Y-73125142D01*
X59609771Y-73197714D01*
G04 #@! TO.C,D16*
X78762023Y-72444371D02*
X77492023Y-72444371D01*
X77492023Y-72081514D01*
X77552500Y-71863800D01*
X77673452Y-71718657D01*
X77794404Y-71646085D01*
X78036309Y-71573514D01*
X78217738Y-71573514D01*
X78459642Y-71646085D01*
X78580595Y-71718657D01*
X78701547Y-71863800D01*
X78762023Y-72081514D01*
X78762023Y-72444371D01*
X78762023Y-70122085D02*
X78762023Y-70992942D01*
X78762023Y-70557514D02*
X77492023Y-70557514D01*
X77673452Y-70702657D01*
X77794404Y-70847800D01*
X77854880Y-70992942D01*
X77492023Y-68815800D02*
X77492023Y-69106085D01*
X77552500Y-69251228D01*
X77612976Y-69323800D01*
X77794404Y-69468942D01*
X78036309Y-69541514D01*
X78520119Y-69541514D01*
X78641071Y-69468942D01*
X78701547Y-69396371D01*
X78762023Y-69251228D01*
X78762023Y-68960942D01*
X78701547Y-68815800D01*
X78641071Y-68743228D01*
X78520119Y-68670657D01*
X78217738Y-68670657D01*
X78096785Y-68743228D01*
X78036309Y-68815800D01*
X77975833Y-68960942D01*
X77975833Y-69251228D01*
X78036309Y-69396371D01*
X78096785Y-69468942D01*
X78217738Y-69541514D01*
G04 #@! TO.C,D17*
X97793323Y-69163071D02*
X96523323Y-69163071D01*
X96523323Y-68800214D01*
X96583800Y-68582500D01*
X96704752Y-68437357D01*
X96825704Y-68364785D01*
X97067609Y-68292214D01*
X97249038Y-68292214D01*
X97490942Y-68364785D01*
X97611895Y-68437357D01*
X97732847Y-68582500D01*
X97793323Y-68800214D01*
X97793323Y-69163071D01*
X97793323Y-66840785D02*
X97793323Y-67711642D01*
X97793323Y-67276214D02*
X96523323Y-67276214D01*
X96704752Y-67421357D01*
X96825704Y-67566500D01*
X96886180Y-67711642D01*
X96523323Y-66332785D02*
X96523323Y-65316785D01*
X97793323Y-65969928D01*
G04 #@! TO.C,D18*
X116730523Y-72819371D02*
X115460523Y-72819371D01*
X115460523Y-72456514D01*
X115521000Y-72238800D01*
X115641952Y-72093657D01*
X115762904Y-72021085D01*
X116004809Y-71948514D01*
X116186238Y-71948514D01*
X116428142Y-72021085D01*
X116549095Y-72093657D01*
X116670047Y-72238800D01*
X116730523Y-72456514D01*
X116730523Y-72819371D01*
X116730523Y-70497085D02*
X116730523Y-71367942D01*
X116730523Y-70932514D02*
X115460523Y-70932514D01*
X115641952Y-71077657D01*
X115762904Y-71222800D01*
X115823380Y-71367942D01*
X116004809Y-69626228D02*
X115944333Y-69771371D01*
X115883857Y-69843942D01*
X115762904Y-69916514D01*
X115702428Y-69916514D01*
X115581476Y-69843942D01*
X115521000Y-69771371D01*
X115460523Y-69626228D01*
X115460523Y-69335942D01*
X115521000Y-69190800D01*
X115581476Y-69118228D01*
X115702428Y-69045657D01*
X115762904Y-69045657D01*
X115883857Y-69118228D01*
X115944333Y-69190800D01*
X116004809Y-69335942D01*
X116004809Y-69626228D01*
X116065285Y-69771371D01*
X116125761Y-69843942D01*
X116246714Y-69916514D01*
X116488619Y-69916514D01*
X116609571Y-69843942D01*
X116670047Y-69771371D01*
X116730523Y-69626228D01*
X116730523Y-69335942D01*
X116670047Y-69190800D01*
X116609571Y-69118228D01*
X116488619Y-69045657D01*
X116246714Y-69045657D01*
X116125761Y-69118228D01*
X116065285Y-69190800D01*
X116004809Y-69335942D01*
G04 #@! TO.C,D21*
X41168323Y-96400071D02*
X39898323Y-96400071D01*
X39898323Y-96037214D01*
X39958800Y-95819500D01*
X40079752Y-95674357D01*
X40200704Y-95601785D01*
X40442609Y-95529214D01*
X40624038Y-95529214D01*
X40865942Y-95601785D01*
X40986895Y-95674357D01*
X41107847Y-95819500D01*
X41168323Y-96037214D01*
X41168323Y-96400071D01*
X40019276Y-94948642D02*
X39958800Y-94876071D01*
X39898323Y-94730928D01*
X39898323Y-94368071D01*
X39958800Y-94222928D01*
X40019276Y-94150357D01*
X40140228Y-94077785D01*
X40261180Y-94077785D01*
X40442609Y-94150357D01*
X41168323Y-95021214D01*
X41168323Y-94077785D01*
X41168323Y-92626357D02*
X41168323Y-93497214D01*
X41168323Y-93061785D02*
X39898323Y-93061785D01*
X40079752Y-93206928D01*
X40200704Y-93352071D01*
X40261180Y-93497214D01*
G04 #@! TO.C,D22*
X59730723Y-95038071D02*
X58460723Y-95038071D01*
X58460723Y-94675214D01*
X58521200Y-94457500D01*
X58642152Y-94312357D01*
X58763104Y-94239785D01*
X59005009Y-94167214D01*
X59186438Y-94167214D01*
X59428342Y-94239785D01*
X59549295Y-94312357D01*
X59670247Y-94457500D01*
X59730723Y-94675214D01*
X59730723Y-95038071D01*
X58581676Y-93586642D02*
X58521200Y-93514071D01*
X58460723Y-93368928D01*
X58460723Y-93006071D01*
X58521200Y-92860928D01*
X58581676Y-92788357D01*
X58702628Y-92715785D01*
X58823580Y-92715785D01*
X59005009Y-92788357D01*
X59730723Y-93659214D01*
X59730723Y-92715785D01*
X58581676Y-92135214D02*
X58521200Y-92062642D01*
X58460723Y-91917500D01*
X58460723Y-91554642D01*
X58521200Y-91409500D01*
X58581676Y-91336928D01*
X58702628Y-91264357D01*
X58823580Y-91264357D01*
X59005009Y-91336928D01*
X59730723Y-92207785D01*
X59730723Y-91264357D01*
G04 #@! TO.C,D23*
X78762023Y-91475571D02*
X77492023Y-91475571D01*
X77492023Y-91112714D01*
X77552500Y-90895000D01*
X77673452Y-90749857D01*
X77794404Y-90677285D01*
X78036309Y-90604714D01*
X78217738Y-90604714D01*
X78459642Y-90677285D01*
X78580595Y-90749857D01*
X78701547Y-90895000D01*
X78762023Y-91112714D01*
X78762023Y-91475571D01*
X77612976Y-90024142D02*
X77552500Y-89951571D01*
X77492023Y-89806428D01*
X77492023Y-89443571D01*
X77552500Y-89298428D01*
X77612976Y-89225857D01*
X77733928Y-89153285D01*
X77854880Y-89153285D01*
X78036309Y-89225857D01*
X78762023Y-90096714D01*
X78762023Y-89153285D01*
X77492023Y-88645285D02*
X77492023Y-87701857D01*
X77975833Y-88209857D01*
X77975833Y-87992142D01*
X78036309Y-87847000D01*
X78096785Y-87774428D01*
X78217738Y-87701857D01*
X78520119Y-87701857D01*
X78641071Y-87774428D01*
X78701547Y-87847000D01*
X78762023Y-87992142D01*
X78762023Y-88427571D01*
X78701547Y-88572714D01*
X78641071Y-88645285D01*
G04 #@! TO.C,D24*
X97793323Y-88194371D02*
X96523323Y-88194371D01*
X96523323Y-87831514D01*
X96583800Y-87613800D01*
X96704752Y-87468657D01*
X96825704Y-87396085D01*
X97067609Y-87323514D01*
X97249038Y-87323514D01*
X97490942Y-87396085D01*
X97611895Y-87468657D01*
X97732847Y-87613800D01*
X97793323Y-87831514D01*
X97793323Y-88194371D01*
X96644276Y-86742942D02*
X96583800Y-86670371D01*
X96523323Y-86525228D01*
X96523323Y-86162371D01*
X96583800Y-86017228D01*
X96644276Y-85944657D01*
X96765228Y-85872085D01*
X96886180Y-85872085D01*
X97067609Y-85944657D01*
X97793323Y-86815514D01*
X97793323Y-85872085D01*
X96946657Y-84565800D02*
X97793323Y-84565800D01*
X96462847Y-84928657D02*
X97369990Y-85291514D01*
X97369990Y-84348085D01*
G04 #@! TO.C,D25*
X116730523Y-91663071D02*
X115460523Y-91663071D01*
X115460523Y-91300214D01*
X115521000Y-91082500D01*
X115641952Y-90937357D01*
X115762904Y-90864785D01*
X116004809Y-90792214D01*
X116186238Y-90792214D01*
X116428142Y-90864785D01*
X116549095Y-90937357D01*
X116670047Y-91082500D01*
X116730523Y-91300214D01*
X116730523Y-91663071D01*
X115581476Y-90211642D02*
X115521000Y-90139071D01*
X115460523Y-89993928D01*
X115460523Y-89631071D01*
X115521000Y-89485928D01*
X115581476Y-89413357D01*
X115702428Y-89340785D01*
X115823380Y-89340785D01*
X116004809Y-89413357D01*
X116730523Y-90284214D01*
X116730523Y-89340785D01*
X115460523Y-87961928D02*
X115460523Y-88687642D01*
X116065285Y-88760214D01*
X116004809Y-88687642D01*
X115944333Y-88542500D01*
X115944333Y-88179642D01*
X116004809Y-88034500D01*
X116065285Y-87961928D01*
X116186238Y-87889357D01*
X116488619Y-87889357D01*
X116609571Y-87961928D01*
X116670047Y-88034500D01*
X116730523Y-88179642D01*
X116730523Y-88542500D01*
X116670047Y-88687642D01*
X116609571Y-88760214D01*
G04 #@! TO.C,D27*
X74168323Y-114069571D02*
X72898323Y-114069571D01*
X72898323Y-113706714D01*
X72958800Y-113489000D01*
X73079752Y-113343857D01*
X73200704Y-113271285D01*
X73442609Y-113198714D01*
X73624038Y-113198714D01*
X73865942Y-113271285D01*
X73986895Y-113343857D01*
X74107847Y-113489000D01*
X74168323Y-113706714D01*
X74168323Y-114069571D01*
X73019276Y-112618142D02*
X72958800Y-112545571D01*
X72898323Y-112400428D01*
X72898323Y-112037571D01*
X72958800Y-111892428D01*
X73019276Y-111819857D01*
X73140228Y-111747285D01*
X73261180Y-111747285D01*
X73442609Y-111819857D01*
X74168323Y-112690714D01*
X74168323Y-111747285D01*
X72898323Y-111239285D02*
X72898323Y-110223285D01*
X74168323Y-110876428D01*
G04 #@! TO.C,D28*
X92730723Y-110600571D02*
X91460723Y-110600571D01*
X91460723Y-110237714D01*
X91521200Y-110020000D01*
X91642152Y-109874857D01*
X91763104Y-109802285D01*
X92005009Y-109729714D01*
X92186438Y-109729714D01*
X92428342Y-109802285D01*
X92549295Y-109874857D01*
X92670247Y-110020000D01*
X92730723Y-110237714D01*
X92730723Y-110600571D01*
X91581676Y-109149142D02*
X91521200Y-109076571D01*
X91460723Y-108931428D01*
X91460723Y-108568571D01*
X91521200Y-108423428D01*
X91581676Y-108350857D01*
X91702628Y-108278285D01*
X91823580Y-108278285D01*
X92005009Y-108350857D01*
X92730723Y-109221714D01*
X92730723Y-108278285D01*
X92005009Y-107407428D02*
X91944533Y-107552571D01*
X91884057Y-107625142D01*
X91763104Y-107697714D01*
X91702628Y-107697714D01*
X91581676Y-107625142D01*
X91521200Y-107552571D01*
X91460723Y-107407428D01*
X91460723Y-107117142D01*
X91521200Y-106972000D01*
X91581676Y-106899428D01*
X91702628Y-106826857D01*
X91763104Y-106826857D01*
X91884057Y-106899428D01*
X91944533Y-106972000D01*
X92005009Y-107117142D01*
X92005009Y-107407428D01*
X92065485Y-107552571D01*
X92125961Y-107625142D01*
X92246914Y-107697714D01*
X92488819Y-107697714D01*
X92609771Y-107625142D01*
X92670247Y-107552571D01*
X92730723Y-107407428D01*
X92730723Y-107117142D01*
X92670247Y-106972000D01*
X92609771Y-106899428D01*
X92488819Y-106826857D01*
X92246914Y-106826857D01*
X92125961Y-106899428D01*
X92065485Y-106972000D01*
X92005009Y-107117142D01*
G04 #@! TO.C,D29*
X114244447Y-111703222D02*
X112993741Y-111482688D01*
X113056750Y-111125344D01*
X113154113Y-110921439D01*
X113298432Y-110799504D01*
X113430149Y-110749038D01*
X113680980Y-110719576D01*
X113859653Y-110751081D01*
X114085280Y-110864556D01*
X114191793Y-110957028D01*
X114285704Y-111120969D01*
X114307456Y-111345877D01*
X114244447Y-111703222D01*
X113364894Y-110074313D02*
X113317938Y-109992343D01*
X113283584Y-109838904D01*
X113346594Y-109481559D01*
X113431355Y-109349123D01*
X113503514Y-109288156D01*
X113635231Y-109237690D01*
X113754346Y-109258693D01*
X113920416Y-109361667D01*
X114483883Y-110345312D01*
X114647707Y-109416217D01*
X114773726Y-108701528D02*
X114824134Y-108415652D01*
X114789780Y-108262213D01*
X114742825Y-108180242D01*
X114589356Y-108005800D01*
X114363728Y-107892324D01*
X113887269Y-107808312D01*
X113755552Y-107858777D01*
X113683393Y-107919745D01*
X113598632Y-108052181D01*
X113548224Y-108338057D01*
X113582578Y-108491496D01*
X113629533Y-108573466D01*
X113736046Y-108665939D01*
X114033833Y-108718446D01*
X114165550Y-108667981D01*
X114237709Y-108607013D01*
X114322471Y-108474577D01*
X114372878Y-108188701D01*
X114338525Y-108035262D01*
X114291569Y-107953292D01*
X114185056Y-107860820D01*
G04 #@! TO.C,D33*
X178218943Y-109373467D02*
X177025533Y-108939101D01*
X177149637Y-108598127D01*
X177280929Y-108414226D01*
X177444229Y-108319205D01*
X177582708Y-108292378D01*
X177834845Y-108306920D01*
X178005332Y-108368972D01*
X178207827Y-108519903D01*
X178296664Y-108629466D01*
X178360681Y-108807224D01*
X178343047Y-109032492D01*
X178218943Y-109373467D01*
X177497130Y-107643399D02*
X177819801Y-106756866D01*
X178100687Y-107399703D01*
X178175150Y-107195118D01*
X178281621Y-107079413D01*
X178363271Y-107031902D01*
X178501750Y-107005075D01*
X178785895Y-107108495D01*
X178874732Y-107218058D01*
X178906740Y-107306937D01*
X178913928Y-107464011D01*
X178765002Y-107873180D01*
X178658531Y-107988886D01*
X178576881Y-108036396D01*
X177993548Y-106279502D02*
X178316219Y-105392969D01*
X178597105Y-106035806D01*
X178671568Y-105831221D01*
X178778039Y-105715516D01*
X178859689Y-105668005D01*
X178998168Y-105641178D01*
X179282313Y-105744599D01*
X179371150Y-105854162D01*
X179403158Y-105943041D01*
X179410345Y-106100114D01*
X179261420Y-106509283D01*
X179154949Y-106624989D01*
X179073299Y-106672500D01*
G04 #@! TO.C,D34*
X171656943Y-127091467D02*
X170463533Y-126657101D01*
X170587637Y-126316127D01*
X170718929Y-126132226D01*
X170882229Y-126037205D01*
X171020708Y-126010378D01*
X171272845Y-126024920D01*
X171443332Y-126086972D01*
X171645827Y-126237903D01*
X171734664Y-126347466D01*
X171798681Y-126525224D01*
X171781047Y-126750492D01*
X171656943Y-127091467D01*
X170935130Y-125361399D02*
X171257801Y-124474866D01*
X171538687Y-125117703D01*
X171613150Y-124913118D01*
X171719621Y-124797413D01*
X171801271Y-124749902D01*
X171939750Y-124723075D01*
X172223895Y-124826495D01*
X172312732Y-124936058D01*
X172344740Y-125024937D01*
X172351928Y-125182011D01*
X172203002Y-125591180D01*
X172096531Y-125706886D01*
X172014881Y-125754396D01*
X172102381Y-123392148D02*
X172897987Y-123681725D01*
X171523644Y-123567649D02*
X172251975Y-124218885D01*
X172574647Y-123332352D01*
G04 #@! TO.C,K20*
D14*
X155933380Y-77995485D02*
X154933380Y-77995485D01*
X155933380Y-77424057D02*
X155361952Y-77852628D01*
X154933380Y-77424057D02*
X155504809Y-77995485D01*
X155028619Y-77043104D02*
X154981000Y-76995485D01*
X154933380Y-76900247D01*
X154933380Y-76662152D01*
X154981000Y-76566914D01*
X155028619Y-76519295D01*
X155123857Y-76471676D01*
X155219095Y-76471676D01*
X155361952Y-76519295D01*
X155933380Y-77090723D01*
X155933380Y-76471676D01*
X154933380Y-75852628D02*
X154933380Y-75757390D01*
X154981000Y-75662152D01*
X155028619Y-75614533D01*
X155123857Y-75566914D01*
X155314333Y-75519295D01*
X155552428Y-75519295D01*
X155742904Y-75566914D01*
X155838142Y-75614533D01*
X155885761Y-75662152D01*
X155933380Y-75757390D01*
X155933380Y-75852628D01*
X155885761Y-75947866D01*
X155838142Y-75995485D01*
X155742904Y-76043104D01*
X155552428Y-76090723D01*
X155314333Y-76090723D01*
X155123857Y-76043104D01*
X155028619Y-75995485D01*
X154981000Y-75947866D01*
X154933380Y-75852628D01*
G04 #@! TO.C,K13*
X155933380Y-54183085D02*
X154933380Y-54183085D01*
X155933380Y-53611657D02*
X155361952Y-54040228D01*
X154933380Y-53611657D02*
X155504809Y-54183085D01*
X155933380Y-52659276D02*
X155933380Y-53230704D01*
X155933380Y-52944990D02*
X154933380Y-52944990D01*
X155076238Y-53040228D01*
X155171476Y-53135466D01*
X155219095Y-53230704D01*
X154933380Y-52325942D02*
X154933380Y-51706895D01*
X155314333Y-52040228D01*
X155314333Y-51897371D01*
X155361952Y-51802133D01*
X155409571Y-51754514D01*
X155504809Y-51706895D01*
X155742904Y-51706895D01*
X155838142Y-51754514D01*
X155885761Y-51802133D01*
X155933380Y-51897371D01*
X155933380Y-52183085D01*
X155885761Y-52278323D01*
X155838142Y-52325942D01*
G04 #@! TO.C,K21*
X48379514Y-103346180D02*
X48379514Y-102346180D01*
X48950942Y-103346180D02*
X48522371Y-102774752D01*
X48950942Y-102346180D02*
X48379514Y-102917609D01*
X49331895Y-102441419D02*
X49379514Y-102393800D01*
X49474752Y-102346180D01*
X49712847Y-102346180D01*
X49808085Y-102393800D01*
X49855704Y-102441419D01*
X49903323Y-102536657D01*
X49903323Y-102631895D01*
X49855704Y-102774752D01*
X49284276Y-103346180D01*
X49903323Y-103346180D01*
X50855704Y-103346180D02*
X50284276Y-103346180D01*
X50569990Y-103346180D02*
X50569990Y-102346180D01*
X50474752Y-102489038D01*
X50379514Y-102584276D01*
X50284276Y-102631895D01*
G04 #@! TO.C,K14*
X48379514Y-84314880D02*
X48379514Y-83314880D01*
X48950942Y-84314880D02*
X48522371Y-83743452D01*
X48950942Y-83314880D02*
X48379514Y-83886309D01*
X49903323Y-84314880D02*
X49331895Y-84314880D01*
X49617609Y-84314880D02*
X49617609Y-83314880D01*
X49522371Y-83457738D01*
X49427133Y-83552976D01*
X49331895Y-83600595D01*
X50760466Y-83648214D02*
X50760466Y-84314880D01*
X50522371Y-83267261D02*
X50284276Y-83981547D01*
X50903323Y-83981547D01*
G04 #@! TO.C,K7*
X48855704Y-65283580D02*
X48855704Y-64283580D01*
X49427133Y-65283580D02*
X48998561Y-64712152D01*
X49427133Y-64283580D02*
X48855704Y-64855009D01*
X49760466Y-64283580D02*
X50427133Y-64283580D01*
X49998561Y-65283580D01*
G04 #@! TO.C,K8*
X67886904Y-63783580D02*
X67886904Y-62783580D01*
X68458333Y-63783580D02*
X68029761Y-63212152D01*
X68458333Y-62783580D02*
X67886904Y-63355009D01*
X69029761Y-63212152D02*
X68934523Y-63164533D01*
X68886904Y-63116914D01*
X68839285Y-63021676D01*
X68839285Y-62974057D01*
X68886904Y-62878819D01*
X68934523Y-62831200D01*
X69029761Y-62783580D01*
X69220238Y-62783580D01*
X69315476Y-62831200D01*
X69363095Y-62878819D01*
X69410714Y-62974057D01*
X69410714Y-63021676D01*
X69363095Y-63116914D01*
X69315476Y-63164533D01*
X69220238Y-63212152D01*
X69029761Y-63212152D01*
X68934523Y-63259771D01*
X68886904Y-63307390D01*
X68839285Y-63402628D01*
X68839285Y-63593104D01*
X68886904Y-63688342D01*
X68934523Y-63735961D01*
X69029761Y-63783580D01*
X69220238Y-63783580D01*
X69315476Y-63735961D01*
X69363095Y-63688342D01*
X69410714Y-63593104D01*
X69410714Y-63402628D01*
X69363095Y-63307390D01*
X69315476Y-63259771D01*
X69220238Y-63212152D01*
G04 #@! TO.C,K15*
X67410714Y-82814880D02*
X67410714Y-81814880D01*
X67982142Y-82814880D02*
X67553571Y-82243452D01*
X67982142Y-81814880D02*
X67410714Y-82386309D01*
X68934523Y-82814880D02*
X68363095Y-82814880D01*
X68648809Y-82814880D02*
X68648809Y-81814880D01*
X68553571Y-81957738D01*
X68458333Y-82052976D01*
X68363095Y-82100595D01*
X69839285Y-81814880D02*
X69363095Y-81814880D01*
X69315476Y-82291071D01*
X69363095Y-82243452D01*
X69458333Y-82195833D01*
X69696428Y-82195833D01*
X69791666Y-82243452D01*
X69839285Y-82291071D01*
X69886904Y-82386309D01*
X69886904Y-82624404D01*
X69839285Y-82719642D01*
X69791666Y-82767261D01*
X69696428Y-82814880D01*
X69458333Y-82814880D01*
X69363095Y-82767261D01*
X69315476Y-82719642D01*
G04 #@! TO.C,K22*
X67410714Y-101846180D02*
X67410714Y-100846180D01*
X67982142Y-101846180D02*
X67553571Y-101274752D01*
X67982142Y-100846180D02*
X67410714Y-101417609D01*
X68363095Y-100941419D02*
X68410714Y-100893800D01*
X68505952Y-100846180D01*
X68744047Y-100846180D01*
X68839285Y-100893800D01*
X68886904Y-100941419D01*
X68934523Y-101036657D01*
X68934523Y-101131895D01*
X68886904Y-101274752D01*
X68315476Y-101846180D01*
X68934523Y-101846180D01*
X69315476Y-100941419D02*
X69363095Y-100893800D01*
X69458333Y-100846180D01*
X69696428Y-100846180D01*
X69791666Y-100893800D01*
X69839285Y-100941419D01*
X69886904Y-101036657D01*
X69886904Y-101131895D01*
X69839285Y-101274752D01*
X69267857Y-101846180D01*
X69886904Y-101846180D01*
G04 #@! TO.C,K23*
X86441914Y-98283580D02*
X86441914Y-97283580D01*
X87013342Y-98283580D02*
X86584771Y-97712152D01*
X87013342Y-97283580D02*
X86441914Y-97855009D01*
X87394295Y-97378819D02*
X87441914Y-97331200D01*
X87537152Y-97283580D01*
X87775247Y-97283580D01*
X87870485Y-97331200D01*
X87918104Y-97378819D01*
X87965723Y-97474057D01*
X87965723Y-97569295D01*
X87918104Y-97712152D01*
X87346676Y-98283580D01*
X87965723Y-98283580D01*
X88299057Y-97283580D02*
X88918104Y-97283580D01*
X88584771Y-97664533D01*
X88727628Y-97664533D01*
X88822866Y-97712152D01*
X88870485Y-97759771D01*
X88918104Y-97855009D01*
X88918104Y-98093104D01*
X88870485Y-98188342D01*
X88822866Y-98235961D01*
X88727628Y-98283580D01*
X88441914Y-98283580D01*
X88346676Y-98235961D01*
X88299057Y-98188342D01*
G04 #@! TO.C,K16*
X86441914Y-79252380D02*
X86441914Y-78252380D01*
X87013342Y-79252380D02*
X86584771Y-78680952D01*
X87013342Y-78252380D02*
X86441914Y-78823809D01*
X87965723Y-79252380D02*
X87394295Y-79252380D01*
X87680009Y-79252380D02*
X87680009Y-78252380D01*
X87584771Y-78395238D01*
X87489533Y-78490476D01*
X87394295Y-78538095D01*
X88822866Y-78252380D02*
X88632390Y-78252380D01*
X88537152Y-78300000D01*
X88489533Y-78347619D01*
X88394295Y-78490476D01*
X88346676Y-78680952D01*
X88346676Y-79061904D01*
X88394295Y-79157142D01*
X88441914Y-79204761D01*
X88537152Y-79252380D01*
X88727628Y-79252380D01*
X88822866Y-79204761D01*
X88870485Y-79157142D01*
X88918104Y-79061904D01*
X88918104Y-78823809D01*
X88870485Y-78728571D01*
X88822866Y-78680952D01*
X88727628Y-78633333D01*
X88537152Y-78633333D01*
X88441914Y-78680952D01*
X88394295Y-78728571D01*
X88346676Y-78823809D01*
G04 #@! TO.C,K9*
X86918104Y-60221180D02*
X86918104Y-59221180D01*
X87489533Y-60221180D02*
X87060961Y-59649752D01*
X87489533Y-59221180D02*
X86918104Y-59792609D01*
X87965723Y-60221180D02*
X88156200Y-60221180D01*
X88251438Y-60173561D01*
X88299057Y-60125942D01*
X88394295Y-59983085D01*
X88441914Y-59792609D01*
X88441914Y-59411657D01*
X88394295Y-59316419D01*
X88346676Y-59268800D01*
X88251438Y-59221180D01*
X88060961Y-59221180D01*
X87965723Y-59268800D01*
X87918104Y-59316419D01*
X87870485Y-59411657D01*
X87870485Y-59649752D01*
X87918104Y-59744990D01*
X87965723Y-59792609D01*
X88060961Y-59840228D01*
X88251438Y-59840228D01*
X88346676Y-59792609D01*
X88394295Y-59744990D01*
X88441914Y-59649752D01*
G04 #@! TO.C,K24*
X105473714Y-95002380D02*
X105473714Y-94002380D01*
X106045142Y-95002380D02*
X105616571Y-94430952D01*
X106045142Y-94002380D02*
X105473714Y-94573809D01*
X106426095Y-94097619D02*
X106473714Y-94050000D01*
X106568952Y-94002380D01*
X106807047Y-94002380D01*
X106902285Y-94050000D01*
X106949904Y-94097619D01*
X106997523Y-94192857D01*
X106997523Y-94288095D01*
X106949904Y-94430952D01*
X106378476Y-95002380D01*
X106997523Y-95002380D01*
X107854666Y-94335714D02*
X107854666Y-95002380D01*
X107616571Y-93954761D02*
X107378476Y-94669047D01*
X107997523Y-94669047D01*
G04 #@! TO.C,K17*
X105473714Y-75971180D02*
X105473714Y-74971180D01*
X106045142Y-75971180D02*
X105616571Y-75399752D01*
X106045142Y-74971180D02*
X105473714Y-75542609D01*
X106997523Y-75971180D02*
X106426095Y-75971180D01*
X106711809Y-75971180D02*
X106711809Y-74971180D01*
X106616571Y-75114038D01*
X106521333Y-75209276D01*
X106426095Y-75256895D01*
X107330857Y-74971180D02*
X107997523Y-74971180D01*
X107568952Y-75971180D01*
G04 #@! TO.C,K10*
X105473714Y-56939880D02*
X105473714Y-55939880D01*
X106045142Y-56939880D02*
X105616571Y-56368452D01*
X106045142Y-55939880D02*
X105473714Y-56511309D01*
X106997523Y-56939880D02*
X106426095Y-56939880D01*
X106711809Y-56939880D02*
X106711809Y-55939880D01*
X106616571Y-56082738D01*
X106521333Y-56177976D01*
X106426095Y-56225595D01*
X107616571Y-55939880D02*
X107711809Y-55939880D01*
X107807047Y-55987500D01*
X107854666Y-56035119D01*
X107902285Y-56130357D01*
X107949904Y-56320833D01*
X107949904Y-56558928D01*
X107902285Y-56749404D01*
X107854666Y-56844642D01*
X107807047Y-56892261D01*
X107711809Y-56939880D01*
X107616571Y-56939880D01*
X107521333Y-56892261D01*
X107473714Y-56844642D01*
X107426095Y-56749404D01*
X107378476Y-56558928D01*
X107378476Y-56320833D01*
X107426095Y-56130357D01*
X107473714Y-56035119D01*
X107521333Y-55987500D01*
X107616571Y-55939880D01*
G04 #@! TO.C,K11*
X124504714Y-60596180D02*
X124504714Y-59596180D01*
X125076142Y-60596180D02*
X124647571Y-60024752D01*
X125076142Y-59596180D02*
X124504714Y-60167609D01*
X126028523Y-60596180D02*
X125457095Y-60596180D01*
X125742809Y-60596180D02*
X125742809Y-59596180D01*
X125647571Y-59739038D01*
X125552333Y-59834276D01*
X125457095Y-59881895D01*
X126980904Y-60596180D02*
X126409476Y-60596180D01*
X126695190Y-60596180D02*
X126695190Y-59596180D01*
X126599952Y-59739038D01*
X126504714Y-59834276D01*
X126409476Y-59881895D01*
G04 #@! TO.C,K18*
X124504714Y-79627380D02*
X124504714Y-78627380D01*
X125076142Y-79627380D02*
X124647571Y-79055952D01*
X125076142Y-78627380D02*
X124504714Y-79198809D01*
X126028523Y-79627380D02*
X125457095Y-79627380D01*
X125742809Y-79627380D02*
X125742809Y-78627380D01*
X125647571Y-78770238D01*
X125552333Y-78865476D01*
X125457095Y-78913095D01*
X126599952Y-79055952D02*
X126504714Y-79008333D01*
X126457095Y-78960714D01*
X126409476Y-78865476D01*
X126409476Y-78817857D01*
X126457095Y-78722619D01*
X126504714Y-78675000D01*
X126599952Y-78627380D01*
X126790428Y-78627380D01*
X126885666Y-78675000D01*
X126933285Y-78722619D01*
X126980904Y-78817857D01*
X126980904Y-78865476D01*
X126933285Y-78960714D01*
X126885666Y-79008333D01*
X126790428Y-79055952D01*
X126599952Y-79055952D01*
X126504714Y-79103571D01*
X126457095Y-79151190D01*
X126409476Y-79246428D01*
X126409476Y-79436904D01*
X126457095Y-79532142D01*
X126504714Y-79579761D01*
X126599952Y-79627380D01*
X126790428Y-79627380D01*
X126885666Y-79579761D01*
X126933285Y-79532142D01*
X126980904Y-79436904D01*
X126980904Y-79246428D01*
X126933285Y-79151190D01*
X126885666Y-79103571D01*
X126790428Y-79055952D01*
G04 #@! TO.C,K25*
X124504714Y-98658580D02*
X124504714Y-97658580D01*
X125076142Y-98658580D02*
X124647571Y-98087152D01*
X125076142Y-97658580D02*
X124504714Y-98230009D01*
X125457095Y-97753819D02*
X125504714Y-97706200D01*
X125599952Y-97658580D01*
X125838047Y-97658580D01*
X125933285Y-97706200D01*
X125980904Y-97753819D01*
X126028523Y-97849057D01*
X126028523Y-97944295D01*
X125980904Y-98087152D01*
X125409476Y-98658580D01*
X126028523Y-98658580D01*
X126933285Y-97658580D02*
X126457095Y-97658580D01*
X126409476Y-98134771D01*
X126457095Y-98087152D01*
X126552333Y-98039533D01*
X126790428Y-98039533D01*
X126885666Y-98087152D01*
X126933285Y-98134771D01*
X126980904Y-98230009D01*
X126980904Y-98468104D01*
X126933285Y-98563342D01*
X126885666Y-98610961D01*
X126790428Y-98658580D01*
X126552333Y-98658580D01*
X126457095Y-98610961D01*
X126409476Y-98563342D01*
G04 #@! TO.C,K26*
X143629714Y-101283580D02*
X143629714Y-100283580D01*
X144201142Y-101283580D02*
X143772571Y-100712152D01*
X144201142Y-100283580D02*
X143629714Y-100855009D01*
X144582095Y-100378819D02*
X144629714Y-100331200D01*
X144724952Y-100283580D01*
X144963047Y-100283580D01*
X145058285Y-100331200D01*
X145105904Y-100378819D01*
X145153523Y-100474057D01*
X145153523Y-100569295D01*
X145105904Y-100712152D01*
X144534476Y-101283580D01*
X145153523Y-101283580D01*
X146010666Y-100283580D02*
X145820190Y-100283580D01*
X145724952Y-100331200D01*
X145677333Y-100378819D01*
X145582095Y-100521676D01*
X145534476Y-100712152D01*
X145534476Y-101093104D01*
X145582095Y-101188342D01*
X145629714Y-101235961D01*
X145724952Y-101283580D01*
X145915428Y-101283580D01*
X146010666Y-101235961D01*
X146058285Y-101188342D01*
X146105904Y-101093104D01*
X146105904Y-100855009D01*
X146058285Y-100759771D01*
X146010666Y-100712152D01*
X145915428Y-100664533D01*
X145724952Y-100664533D01*
X145629714Y-100712152D01*
X145582095Y-100759771D01*
X145534476Y-100855009D01*
G04 #@! TO.C,K19*
X143629714Y-82252380D02*
X143629714Y-81252380D01*
X144201142Y-82252380D02*
X143772571Y-81680952D01*
X144201142Y-81252380D02*
X143629714Y-81823809D01*
X145153523Y-82252380D02*
X144582095Y-82252380D01*
X144867809Y-82252380D02*
X144867809Y-81252380D01*
X144772571Y-81395238D01*
X144677333Y-81490476D01*
X144582095Y-81538095D01*
X145629714Y-82252380D02*
X145820190Y-82252380D01*
X145915428Y-82204761D01*
X145963047Y-82157142D01*
X146058285Y-82014285D01*
X146105904Y-81823809D01*
X146105904Y-81442857D01*
X146058285Y-81347619D01*
X146010666Y-81300000D01*
X145915428Y-81252380D01*
X145724952Y-81252380D01*
X145629714Y-81300000D01*
X145582095Y-81347619D01*
X145534476Y-81442857D01*
X145534476Y-81680952D01*
X145582095Y-81776190D01*
X145629714Y-81823809D01*
X145724952Y-81871428D01*
X145915428Y-81871428D01*
X146010666Y-81823809D01*
X146058285Y-81776190D01*
X146105904Y-81680952D01*
G04 #@! TO.C,K12*
X143629714Y-63221180D02*
X143629714Y-62221180D01*
X144201142Y-63221180D02*
X143772571Y-62649752D01*
X144201142Y-62221180D02*
X143629714Y-62792609D01*
X145153523Y-63221180D02*
X144582095Y-63221180D01*
X144867809Y-63221180D02*
X144867809Y-62221180D01*
X144772571Y-62364038D01*
X144677333Y-62459276D01*
X144582095Y-62506895D01*
X145534476Y-62316419D02*
X145582095Y-62268800D01*
X145677333Y-62221180D01*
X145915428Y-62221180D01*
X146010666Y-62268800D01*
X146058285Y-62316419D01*
X146105904Y-62411657D01*
X146105904Y-62506895D01*
X146058285Y-62649752D01*
X145486857Y-63221180D01*
X146105904Y-63221180D01*
G04 #@! TO.C,K31*
X158709454Y-129778237D02*
X159051474Y-128838545D01*
X159246421Y-129973677D02*
X159039136Y-129290130D01*
X159588441Y-129033985D02*
X158856034Y-129375512D01*
X159901672Y-129147992D02*
X160483386Y-129359718D01*
X160039862Y-129603690D01*
X160174104Y-129652550D01*
X160247312Y-129729870D01*
X160275772Y-129790904D01*
X160287946Y-129896686D01*
X160206513Y-130120422D01*
X160129192Y-130193630D01*
X160068158Y-130222090D01*
X159962377Y-130234264D01*
X159693894Y-130136544D01*
X159620686Y-130059224D01*
X159592225Y-129998190D01*
X161036312Y-130625144D02*
X160499344Y-130429704D01*
X160767828Y-130527424D02*
X161109848Y-129587732D01*
X160971494Y-129689400D01*
X160849426Y-129746321D01*
X160743645Y-129758495D01*
G04 #@! TO.C,K34*
X176521454Y-136247237D02*
X176863474Y-135307545D01*
X177058421Y-136442677D02*
X176851136Y-135759130D01*
X177400441Y-135502985D02*
X176668034Y-135844512D01*
X177713672Y-135616992D02*
X178295386Y-135828718D01*
X177851862Y-136072690D01*
X177986104Y-136121550D01*
X178059312Y-136198870D01*
X178087772Y-136259904D01*
X178099946Y-136365686D01*
X178018513Y-136589422D01*
X177941192Y-136662630D01*
X177880158Y-136691090D01*
X177774377Y-136703264D01*
X177505894Y-136605544D01*
X177432686Y-136528224D01*
X177404225Y-136467190D01*
X178986831Y-136435109D02*
X178758817Y-137061571D01*
X178893388Y-135995698D02*
X178425351Y-136585473D01*
X179007066Y-136797200D01*
G04 #@! TO.C,K33*
X183084454Y-118340237D02*
X183426474Y-117400545D01*
X183621421Y-118535677D02*
X183414136Y-117852130D01*
X183963441Y-117595985D02*
X183231034Y-117937512D01*
X184276672Y-117709992D02*
X184858386Y-117921718D01*
X184414862Y-118165690D01*
X184549104Y-118214550D01*
X184622312Y-118291870D01*
X184650772Y-118352904D01*
X184662946Y-118458686D01*
X184581513Y-118682422D01*
X184504192Y-118755630D01*
X184443158Y-118784090D01*
X184337377Y-118796264D01*
X184068894Y-118698544D01*
X183995686Y-118621224D01*
X183967225Y-118560190D01*
X185171617Y-118035725D02*
X185753332Y-118247452D01*
X185309808Y-118491423D01*
X185444049Y-118540283D01*
X185517257Y-118617604D01*
X185545718Y-118678638D01*
X185557892Y-118784419D01*
X185476458Y-119008155D01*
X185399138Y-119081363D01*
X185338104Y-119109824D01*
X185232323Y-119121998D01*
X184963839Y-119024278D01*
X184890631Y-118946957D01*
X184862171Y-118885923D01*
G04 #@! TO.C,K4*
X105949904Y-37908580D02*
X105949904Y-36908580D01*
X106521333Y-37908580D02*
X106092761Y-37337152D01*
X106521333Y-36908580D02*
X105949904Y-37480009D01*
X107378476Y-37241914D02*
X107378476Y-37908580D01*
X107140380Y-36860961D02*
X106902285Y-37575247D01*
X107521333Y-37575247D01*
G04 #@! TO.C,K1*
X48855704Y-46252380D02*
X48855704Y-45252380D01*
X49427133Y-46252380D02*
X48998561Y-45680952D01*
X49427133Y-45252380D02*
X48855704Y-45823809D01*
X50379514Y-46252380D02*
X49808085Y-46252380D01*
X50093800Y-46252380D02*
X50093800Y-45252380D01*
X49998561Y-45395238D01*
X49903323Y-45490476D01*
X49808085Y-45538095D01*
G04 #@! TO.C,K32*
X165271454Y-111871237D02*
X165613474Y-110931545D01*
X165808421Y-112066677D02*
X165601136Y-111383130D01*
X166150441Y-111126985D02*
X165418034Y-111468512D01*
X166463672Y-111240992D02*
X167045386Y-111452718D01*
X166601862Y-111696690D01*
X166736104Y-111745550D01*
X166809312Y-111822870D01*
X166837772Y-111883904D01*
X166849946Y-111989686D01*
X166768513Y-112213422D01*
X166691192Y-112286630D01*
X166630158Y-112315090D01*
X166524377Y-112327264D01*
X166255894Y-112229544D01*
X166182686Y-112152224D01*
X166154225Y-112091190D01*
X167370791Y-111672506D02*
X167431825Y-111644046D01*
X167537606Y-111631872D01*
X167761343Y-111713305D01*
X167834551Y-111790626D01*
X167863011Y-111851660D01*
X167875185Y-111957441D01*
X167842612Y-112046935D01*
X167749005Y-112164891D01*
X167016597Y-112506418D01*
X167598312Y-112718144D01*
G04 #@! TO.C,K30*
X139623807Y-123920870D02*
X139882626Y-122954944D01*
X140175764Y-124068766D02*
X139909693Y-123405886D01*
X140434583Y-123102840D02*
X139734729Y-123506901D01*
X140756559Y-123189113D02*
X141354513Y-123349335D01*
X140933940Y-123631034D01*
X141071929Y-123668008D01*
X141151597Y-123738654D01*
X141185269Y-123796975D01*
X141206616Y-123901292D01*
X141144993Y-124131275D01*
X141074347Y-124210943D01*
X141016026Y-124244615D01*
X140911708Y-124265962D01*
X140635729Y-124192013D01*
X140556061Y-124121368D01*
X140522389Y-124063046D01*
X141952467Y-123509556D02*
X142044460Y-123534206D01*
X142124128Y-123604851D01*
X142157800Y-123663173D01*
X142179147Y-123767490D01*
X142175844Y-123963801D01*
X142114221Y-124193783D01*
X142018925Y-124365444D01*
X141948280Y-124445113D01*
X141889958Y-124478784D01*
X141785641Y-124500131D01*
X141693648Y-124475482D01*
X141613980Y-124404836D01*
X141580308Y-124346515D01*
X141558961Y-124242197D01*
X141562263Y-124045887D01*
X141623887Y-123815904D01*
X141719182Y-123644243D01*
X141789828Y-123564575D01*
X141848149Y-123530903D01*
X141952467Y-123509556D01*
G04 #@! TO.C,K6*
X144105904Y-44189880D02*
X144105904Y-43189880D01*
X144677333Y-44189880D02*
X144248761Y-43618452D01*
X144677333Y-43189880D02*
X144105904Y-43761309D01*
X145534476Y-43189880D02*
X145344000Y-43189880D01*
X145248761Y-43237500D01*
X145201142Y-43285119D01*
X145105904Y-43427976D01*
X145058285Y-43618452D01*
X145058285Y-43999404D01*
X145105904Y-44094642D01*
X145153523Y-44142261D01*
X145248761Y-44189880D01*
X145439238Y-44189880D01*
X145534476Y-44142261D01*
X145582095Y-44094642D01*
X145629714Y-43999404D01*
X145629714Y-43761309D01*
X145582095Y-43666071D01*
X145534476Y-43618452D01*
X145439238Y-43570833D01*
X145248761Y-43570833D01*
X145153523Y-43618452D01*
X145105904Y-43666071D01*
X145058285Y-43761309D01*
G04 #@! TO.C,K2*
X67886904Y-44752380D02*
X67886904Y-43752380D01*
X68458333Y-44752380D02*
X68029761Y-44180952D01*
X68458333Y-43752380D02*
X67886904Y-44323809D01*
X68839285Y-43847619D02*
X68886904Y-43800000D01*
X68982142Y-43752380D01*
X69220238Y-43752380D01*
X69315476Y-43800000D01*
X69363095Y-43847619D01*
X69410714Y-43942857D01*
X69410714Y-44038095D01*
X69363095Y-44180952D01*
X68791666Y-44752380D01*
X69410714Y-44752380D01*
G04 #@! TO.C,K3*
X86918104Y-41189880D02*
X86918104Y-40189880D01*
X87489533Y-41189880D02*
X87060961Y-40618452D01*
X87489533Y-40189880D02*
X86918104Y-40761309D01*
X87822866Y-40189880D02*
X88441914Y-40189880D01*
X88108580Y-40570833D01*
X88251438Y-40570833D01*
X88346676Y-40618452D01*
X88394295Y-40666071D01*
X88441914Y-40761309D01*
X88441914Y-40999404D01*
X88394295Y-41094642D01*
X88346676Y-41142261D01*
X88251438Y-41189880D01*
X87965723Y-41189880D01*
X87870485Y-41142261D01*
X87822866Y-41094642D01*
G04 #@! TO.C,K5*
X124980904Y-41564880D02*
X124980904Y-40564880D01*
X125552333Y-41564880D02*
X125123761Y-40993452D01*
X125552333Y-40564880D02*
X124980904Y-41136309D01*
X126457095Y-40564880D02*
X125980904Y-40564880D01*
X125933285Y-41041071D01*
X125980904Y-40993452D01*
X126076142Y-40945833D01*
X126314238Y-40945833D01*
X126409476Y-40993452D01*
X126457095Y-41041071D01*
X126504714Y-41136309D01*
X126504714Y-41374404D01*
X126457095Y-41469642D01*
X126409476Y-41517261D01*
X126314238Y-41564880D01*
X126076142Y-41564880D01*
X125980904Y-41517261D01*
X125933285Y-41469642D01*
G04 #@! TO.C,K27*
X81379514Y-120877380D02*
X81379514Y-119877380D01*
X81950942Y-120877380D02*
X81522371Y-120305952D01*
X81950942Y-119877380D02*
X81379514Y-120448809D01*
X82331895Y-119972619D02*
X82379514Y-119925000D01*
X82474752Y-119877380D01*
X82712847Y-119877380D01*
X82808085Y-119925000D01*
X82855704Y-119972619D01*
X82903323Y-120067857D01*
X82903323Y-120163095D01*
X82855704Y-120305952D01*
X82284276Y-120877380D01*
X82903323Y-120877380D01*
X83236657Y-119877380D02*
X83903323Y-119877380D01*
X83474752Y-120877380D01*
G04 #@! TO.C,K28*
X100410714Y-117314380D02*
X100410714Y-116314380D01*
X100982142Y-117314380D02*
X100553571Y-116742952D01*
X100982142Y-116314380D02*
X100410714Y-116885809D01*
X101363095Y-116409619D02*
X101410714Y-116362000D01*
X101505952Y-116314380D01*
X101744047Y-116314380D01*
X101839285Y-116362000D01*
X101886904Y-116409619D01*
X101934523Y-116504857D01*
X101934523Y-116600095D01*
X101886904Y-116742952D01*
X101315476Y-117314380D01*
X101934523Y-117314380D01*
X102505952Y-116742952D02*
X102410714Y-116695333D01*
X102363095Y-116647714D01*
X102315476Y-116552476D01*
X102315476Y-116504857D01*
X102363095Y-116409619D01*
X102410714Y-116362000D01*
X102505952Y-116314380D01*
X102696428Y-116314380D01*
X102791666Y-116362000D01*
X102839285Y-116409619D01*
X102886904Y-116504857D01*
X102886904Y-116552476D01*
X102839285Y-116647714D01*
X102791666Y-116695333D01*
X102696428Y-116742952D01*
X102505952Y-116742952D01*
X102410714Y-116790571D01*
X102363095Y-116838190D01*
X102315476Y-116933428D01*
X102315476Y-117123904D01*
X102363095Y-117219142D01*
X102410714Y-117266761D01*
X102505952Y-117314380D01*
X102696428Y-117314380D01*
X102791666Y-117266761D01*
X102839285Y-117219142D01*
X102886904Y-117123904D01*
X102886904Y-116933428D01*
X102839285Y-116838190D01*
X102791666Y-116790571D01*
X102696428Y-116742952D01*
G04 #@! TO.C,K29*
X120565326Y-119689553D02*
X120738975Y-118704746D01*
X121128074Y-119788781D02*
X120805241Y-119151613D01*
X121301722Y-118803973D02*
X120639747Y-119267493D01*
X121660349Y-118963916D02*
X121715513Y-118925289D01*
X121817574Y-118894932D01*
X122052052Y-118936276D01*
X122137574Y-118999710D01*
X122176200Y-119054875D01*
X122206558Y-119156935D01*
X122190020Y-119250726D01*
X122118318Y-119383144D01*
X121456343Y-119846664D01*
X122065986Y-119954160D01*
X122534942Y-120036850D02*
X122722524Y-120069925D01*
X122824584Y-120039568D01*
X122879749Y-120000941D01*
X122998347Y-119876792D01*
X123078319Y-119697479D01*
X123144470Y-119322314D01*
X123114113Y-119220254D01*
X123075486Y-119165089D01*
X122989964Y-119101656D01*
X122802381Y-119068580D01*
X122700321Y-119098937D01*
X122645157Y-119137564D01*
X122581723Y-119223086D01*
X122540378Y-119457564D01*
X122570736Y-119559625D01*
X122609363Y-119614789D01*
X122694885Y-119678223D01*
X122882467Y-119711299D01*
X122984527Y-119680941D01*
X123039692Y-119642314D01*
X123103125Y-119556792D01*
G04 #@! TO.C,J1*
X182536392Y-84502004D02*
X182161785Y-83574820D01*
X182514998Y-83432112D01*
X182621140Y-83440587D01*
X182683130Y-83466900D01*
X182762958Y-83537365D01*
X182816473Y-83669820D01*
X182807999Y-83775962D01*
X182781685Y-83837952D01*
X182711221Y-83917780D01*
X182358008Y-84060487D01*
X183353879Y-83093183D02*
X183621455Y-83755457D01*
X183630818Y-83905750D01*
X183578192Y-84029730D01*
X183463576Y-84127397D01*
X183375272Y-84163074D01*
X184027294Y-83488770D02*
X184733720Y-83203355D01*
X184855034Y-82486677D02*
X185429004Y-82254777D01*
X185262650Y-82732859D01*
X185395105Y-82679344D01*
X185501247Y-82687819D01*
X185563237Y-82714132D01*
X185643065Y-82784597D01*
X185732257Y-83005355D01*
X185723783Y-83111497D01*
X185697469Y-83173487D01*
X185627005Y-83253315D01*
X185362095Y-83360345D01*
X185255953Y-83351871D01*
X185193963Y-83325557D01*
X185817894Y-82200373D02*
X185844207Y-82138383D01*
X185914672Y-82058555D01*
X186135430Y-81969363D01*
X186241572Y-81977838D01*
X186303562Y-82004151D01*
X186383390Y-82074616D01*
X186419067Y-82162919D01*
X186428431Y-82313212D01*
X186112672Y-83057092D01*
X186686643Y-82825193D01*
X186886008Y-81666110D02*
X186974311Y-81630433D01*
X187080453Y-81638908D01*
X187142443Y-81665221D01*
X187222271Y-81735686D01*
X187337776Y-81894454D01*
X187426968Y-82115212D01*
X187454170Y-82309657D01*
X187445696Y-82415799D01*
X187419382Y-82477789D01*
X187348918Y-82557617D01*
X187260614Y-82593294D01*
X187154473Y-82584819D01*
X187092483Y-82558506D01*
X187012654Y-82488041D01*
X186897149Y-82329273D01*
X186807957Y-82108515D01*
X186780755Y-81914070D01*
X186789230Y-81807928D01*
X186815543Y-81745938D01*
X186886008Y-81666110D01*
X187815858Y-82060808D02*
X188257374Y-81882424D01*
X187834585Y-82361395D02*
X187769040Y-81309342D01*
X188452708Y-82111657D01*
G04 #@! TO.C,R1*
D15*
X174834380Y-72498076D02*
X174358190Y-72831409D01*
X174834380Y-73069504D02*
X173834380Y-73069504D01*
X173834380Y-72688552D01*
X173882000Y-72593314D01*
X173929619Y-72545695D01*
X174024857Y-72498076D01*
X174167714Y-72498076D01*
X174262952Y-72545695D01*
X174310571Y-72593314D01*
X174358190Y-72688552D01*
X174358190Y-73069504D01*
G04 #@! TO.C,R2*
X177178380Y-72591776D02*
X176702190Y-72925109D01*
X177178380Y-73163204D02*
X176178380Y-73163204D01*
X176178380Y-72782252D01*
X176226000Y-72687014D01*
X176273619Y-72639395D01*
X176368857Y-72591776D01*
X176511714Y-72591776D01*
X176606952Y-72639395D01*
X176654571Y-72687014D01*
X176702190Y-72782252D01*
X176702190Y-73163204D01*
G04 #@! TO.C,h1*
D14*
X45340723Y-24346180D02*
X45340723Y-23346180D01*
X45769295Y-24346180D02*
X45769295Y-23822371D01*
X45721676Y-23727133D01*
X45626438Y-23679514D01*
X45483580Y-23679514D01*
X45388342Y-23727133D01*
X45340723Y-23774752D01*
X46769295Y-24346180D02*
X46197866Y-24346180D01*
X46483580Y-24346180D02*
X46483580Y-23346180D01*
X46388342Y-23489038D01*
X46293104Y-23584276D01*
X46197866Y-23631895D01*
G04 #@! TO.C,h3*
X161215523Y-33439880D02*
X161215523Y-32439880D01*
X161644095Y-33439880D02*
X161644095Y-32916071D01*
X161596476Y-32820833D01*
X161501238Y-32773214D01*
X161358380Y-32773214D01*
X161263142Y-32820833D01*
X161215523Y-32868452D01*
X162025047Y-32439880D02*
X162644095Y-32439880D01*
X162310761Y-32820833D01*
X162453619Y-32820833D01*
X162548857Y-32868452D01*
X162596476Y-32916071D01*
X162644095Y-33011309D01*
X162644095Y-33249404D01*
X162596476Y-33344642D01*
X162548857Y-33392261D01*
X162453619Y-33439880D01*
X162167904Y-33439880D01*
X162072666Y-33392261D01*
X162025047Y-33344642D01*
G04 #@! TO.C,h2*
X118184523Y-18064880D02*
X118184523Y-17064880D01*
X118613095Y-18064880D02*
X118613095Y-17541071D01*
X118565476Y-17445833D01*
X118470238Y-17398214D01*
X118327380Y-17398214D01*
X118232142Y-17445833D01*
X118184523Y-17493452D01*
X119041666Y-17160119D02*
X119089285Y-17112500D01*
X119184523Y-17064880D01*
X119422619Y-17064880D01*
X119517857Y-17112500D01*
X119565476Y-17160119D01*
X119613095Y-17255357D01*
X119613095Y-17350595D01*
X119565476Y-17493452D01*
X118994047Y-18064880D01*
X119613095Y-18064880D01*
G04 #@! TO.C,h8*
X45903323Y-102346380D02*
X45903323Y-101346380D01*
X46331895Y-102346380D02*
X46331895Y-101822571D01*
X46284276Y-101727333D01*
X46189038Y-101679714D01*
X46046180Y-101679714D01*
X45950942Y-101727333D01*
X45903323Y-101774952D01*
X46950942Y-101774952D02*
X46855704Y-101727333D01*
X46808085Y-101679714D01*
X46760466Y-101584476D01*
X46760466Y-101536857D01*
X46808085Y-101441619D01*
X46855704Y-101394000D01*
X46950942Y-101346380D01*
X47141419Y-101346380D01*
X47236657Y-101394000D01*
X47284276Y-101441619D01*
X47331895Y-101536857D01*
X47331895Y-101584476D01*
X47284276Y-101679714D01*
X47236657Y-101727333D01*
X47141419Y-101774952D01*
X46950942Y-101774952D01*
X46855704Y-101822571D01*
X46808085Y-101870190D01*
X46760466Y-101965428D01*
X46760466Y-102155904D01*
X46808085Y-102251142D01*
X46855704Y-102298761D01*
X46950942Y-102346380D01*
X47141419Y-102346380D01*
X47236657Y-102298761D01*
X47284276Y-102251142D01*
X47331895Y-102155904D01*
X47331895Y-101965428D01*
X47284276Y-101870190D01*
X47236657Y-101822571D01*
X47141419Y-101774952D01*
G04 #@! TO.C,h7*
X116028523Y-77596180D02*
X116028523Y-76596180D01*
X116457095Y-77596180D02*
X116457095Y-77072371D01*
X116409476Y-76977133D01*
X116314238Y-76929514D01*
X116171380Y-76929514D01*
X116076142Y-76977133D01*
X116028523Y-77024752D01*
X116838047Y-76596180D02*
X117504714Y-76596180D01*
X117076142Y-77596180D01*
G04 #@! TO.C,h11*
X196833333Y-100002380D02*
X196833333Y-99002380D01*
X197261904Y-100002380D02*
X197261904Y-99478571D01*
X197214285Y-99383333D01*
X197119047Y-99335714D01*
X196976190Y-99335714D01*
X196880952Y-99383333D01*
X196833333Y-99430952D01*
X198261904Y-100002380D02*
X197690476Y-100002380D01*
X197976190Y-100002380D02*
X197976190Y-99002380D01*
X197880952Y-99145238D01*
X197785714Y-99240476D01*
X197690476Y-99288095D01*
X199214285Y-100002380D02*
X198642857Y-100002380D01*
X198928571Y-100002380D02*
X198928571Y-99002380D01*
X198833333Y-99145238D01*
X198738095Y-99240476D01*
X198642857Y-99288095D01*
G04 #@! TO.C,h12*
X148552083Y-126908630D02*
X148552083Y-125908630D01*
X148980654Y-126908630D02*
X148980654Y-126384821D01*
X148933035Y-126289583D01*
X148837797Y-126241964D01*
X148694940Y-126241964D01*
X148599702Y-126289583D01*
X148552083Y-126337202D01*
X149980654Y-126908630D02*
X149409226Y-126908630D01*
X149694940Y-126908630D02*
X149694940Y-125908630D01*
X149599702Y-126051488D01*
X149504464Y-126146726D01*
X149409226Y-126194345D01*
X150361607Y-126003869D02*
X150409226Y-125956250D01*
X150504464Y-125908630D01*
X150742559Y-125908630D01*
X150837797Y-125956250D01*
X150885416Y-126003869D01*
X150933035Y-126099107D01*
X150933035Y-126194345D01*
X150885416Y-126337202D01*
X150313988Y-126908630D01*
X150933035Y-126908630D01*
G04 #@! TO.C,h9*
X110497523Y-117440380D02*
X110497523Y-116440380D01*
X110926095Y-117440380D02*
X110926095Y-116916571D01*
X110878476Y-116821333D01*
X110783238Y-116773714D01*
X110640380Y-116773714D01*
X110545142Y-116821333D01*
X110497523Y-116868952D01*
X111449904Y-117440380D02*
X111640380Y-117440380D01*
X111735619Y-117392761D01*
X111783238Y-117345142D01*
X111878476Y-117202285D01*
X111926095Y-117011809D01*
X111926095Y-116630857D01*
X111878476Y-116535619D01*
X111830857Y-116488000D01*
X111735619Y-116440380D01*
X111545142Y-116440380D01*
X111449904Y-116488000D01*
X111402285Y-116535619D01*
X111354666Y-116630857D01*
X111354666Y-116868952D01*
X111402285Y-116964190D01*
X111449904Y-117011809D01*
X111545142Y-117059428D01*
X111735619Y-117059428D01*
X111830857Y-117011809D01*
X111878476Y-116964190D01*
X111926095Y-116868952D01*
G04 #@! TO.C,h10*
X149771333Y-101783380D02*
X149771333Y-100783380D01*
X150199904Y-101783380D02*
X150199904Y-101259571D01*
X150152285Y-101164333D01*
X150057047Y-101116714D01*
X149914190Y-101116714D01*
X149818952Y-101164333D01*
X149771333Y-101211952D01*
X151199904Y-101783380D02*
X150628476Y-101783380D01*
X150914190Y-101783380D02*
X150914190Y-100783380D01*
X150818952Y-100926238D01*
X150723714Y-101021476D01*
X150628476Y-101069095D01*
X151818952Y-100783380D02*
X151914190Y-100783380D01*
X152009428Y-100831000D01*
X152057047Y-100878619D01*
X152104666Y-100973857D01*
X152152285Y-101164333D01*
X152152285Y-101402428D01*
X152104666Y-101592904D01*
X152057047Y-101688142D01*
X152009428Y-101735761D01*
X151914190Y-101783380D01*
X151818952Y-101783380D01*
X151723714Y-101735761D01*
X151676095Y-101688142D01*
X151628476Y-101592904D01*
X151580857Y-101402428D01*
X151580857Y-101164333D01*
X151628476Y-100973857D01*
X151676095Y-100878619D01*
X151723714Y-100831000D01*
X151818952Y-100783380D01*
G04 #@! TO.C,h6*
X77965723Y-77408580D02*
X77965723Y-76408580D01*
X78394295Y-77408580D02*
X78394295Y-76884771D01*
X78346676Y-76789533D01*
X78251438Y-76741914D01*
X78108580Y-76741914D01*
X78013342Y-76789533D01*
X77965723Y-76837152D01*
X79299057Y-76408580D02*
X79108580Y-76408580D01*
X79013342Y-76456200D01*
X78965723Y-76503819D01*
X78870485Y-76646676D01*
X78822866Y-76837152D01*
X78822866Y-77218104D01*
X78870485Y-77313342D01*
X78918104Y-77360961D01*
X79013342Y-77408580D01*
X79203819Y-77408580D01*
X79299057Y-77360961D01*
X79346676Y-77313342D01*
X79394295Y-77218104D01*
X79394295Y-76980009D01*
X79346676Y-76884771D01*
X79299057Y-76837152D01*
X79203819Y-76789533D01*
X79013342Y-76789533D01*
X78918104Y-76837152D01*
X78870485Y-76884771D01*
X78822866Y-76980009D01*
G04 #@! TO.C,h4*
X58653323Y-61752380D02*
X58653323Y-60752380D01*
X59081895Y-61752380D02*
X59081895Y-61228571D01*
X59034276Y-61133333D01*
X58939038Y-61085714D01*
X58796180Y-61085714D01*
X58700942Y-61133333D01*
X58653323Y-61180952D01*
X59986657Y-61085714D02*
X59986657Y-61752380D01*
X59748561Y-60704761D02*
X59510466Y-61419047D01*
X60129514Y-61419047D01*
G04 #@! TO.C,h5*
X154465523Y-62127380D02*
X154465523Y-61127380D01*
X154894095Y-62127380D02*
X154894095Y-61603571D01*
X154846476Y-61508333D01*
X154751238Y-61460714D01*
X154608380Y-61460714D01*
X154513142Y-61508333D01*
X154465523Y-61555952D01*
X155846476Y-61127380D02*
X155370285Y-61127380D01*
X155322666Y-61603571D01*
X155370285Y-61555952D01*
X155465523Y-61508333D01*
X155703619Y-61508333D01*
X155798857Y-61555952D01*
X155846476Y-61603571D01*
X155894095Y-61698809D01*
X155894095Y-61936904D01*
X155846476Y-62032142D01*
X155798857Y-62079761D01*
X155703619Y-62127380D01*
X155465523Y-62127380D01*
X155370285Y-62079761D01*
X155322666Y-62032142D01*
G04 #@! TD*
M02*
