G04 #@! TF.GenerationSoftware,KiCad,Pcbnew,(5.0.0)*
G04 #@! TF.CreationDate,2018-10-18T18:59:20-04:00*
G04 #@! TF.ProjectId,orthomac2,6F7274686F6D6163322E6B696361645F,rev?*
G04 #@! TF.SameCoordinates,Original*
G04 #@! TF.FileFunction,Soldermask,Top*
G04 #@! TF.FilePolarity,Negative*
%FSLAX46Y46*%
G04 Gerber Fmt 4.6, Leading zero omitted, Abs format (unit mm)*
G04 Created by KiCad (PCBNEW (5.0.0)) date 10/18/18 18:59:20*
%MOMM*%
%LPD*%
G01*
G04 APERTURE LIST*
%ADD10C,2.152600*%
%ADD11R,2.152600X2.152600*%
%ADD12R,2.051000X2.051000*%
%ADD13C,2.051000*%
%ADD14C,0.100000*%
%ADD15C,2.686000*%
%ADD16C,4.387800*%
%ADD17C,2.101800*%
%ADD18C,1.900000*%
%ADD19C,2.000000*%
%ADD20C,2.000000*%
%ADD21C,2.600000*%
G04 APERTURE END LIST*
D10*
G04 #@! TO.C,M1*
X95182500Y-21936200D03*
X79942500Y-49876200D03*
X95182500Y-24476200D03*
X95182500Y-27016200D03*
X95182500Y-29556200D03*
X95182500Y-32096200D03*
X95182500Y-34636200D03*
X95182500Y-37176200D03*
X95182500Y-39716200D03*
X95182500Y-42256200D03*
X95182500Y-44796200D03*
X95182500Y-47336200D03*
X95182500Y-49876200D03*
X79942500Y-47336200D03*
X79942500Y-44796200D03*
X79942500Y-42256200D03*
X79942500Y-39716200D03*
X79942500Y-37176200D03*
X79942500Y-34636200D03*
X79942500Y-32096200D03*
X79942500Y-29556200D03*
X79942500Y-27016200D03*
X79942500Y-24476200D03*
D11*
X79942500Y-21936200D03*
G04 #@! TD*
D12*
G04 #@! TO.C,D26*
X135281000Y-96528800D03*
D13*
X135281000Y-88908800D03*
G04 #@! TD*
G04 #@! TO.C,D30*
X132982899Y-117211177D03*
D14*
G36*
X132257761Y-115955201D02*
X134238875Y-116486039D01*
X133708037Y-118467153D01*
X131726923Y-117936315D01*
X132257761Y-115955201D01*
X132257761Y-115955201D01*
G37*
D13*
X134955101Y-109850823D03*
G04 #@! TD*
D12*
G04 #@! TO.C,D13*
X154312000Y-56685000D03*
D13*
X154312000Y-49065000D03*
G04 #@! TD*
D12*
G04 #@! TO.C,D19*
X135281000Y-77497500D03*
D13*
X135281000Y-69877500D03*
G04 #@! TD*
D12*
G04 #@! TO.C,D20*
X154312000Y-80591200D03*
D13*
X154312000Y-72971200D03*
G04 #@! TD*
D12*
G04 #@! TO.C,D12*
X135281000Y-58372500D03*
D13*
X135281000Y-50752500D03*
G04 #@! TD*
D12*
G04 #@! TO.C,D6*
X135281000Y-39435000D03*
D13*
X135281000Y-31815000D03*
G04 #@! TD*
G04 #@! TO.C,D32*
X159290903Y-104549229D03*
D14*
G36*
X158677990Y-103234833D02*
X160605299Y-103936316D01*
X159903816Y-105863625D01*
X157976507Y-105162142D01*
X158677990Y-103234833D01*
X158677990Y-103234833D01*
G37*
D13*
X161897097Y-97388771D03*
G04 #@! TD*
G04 #@! TO.C,D31*
X152821903Y-121986229D03*
D14*
G36*
X152208990Y-120671833D02*
X154136299Y-121373316D01*
X153434816Y-123300625D01*
X151507507Y-122599142D01*
X152208990Y-120671833D01*
X152208990Y-120671833D01*
G37*
D13*
X155428097Y-114825771D03*
G04 #@! TD*
D12*
G04 #@! TO.C,D1*
X40781200Y-41310000D03*
D13*
X40781200Y-33690000D03*
G04 #@! TD*
D12*
G04 #@! TO.C,D2*
X59062500Y-39903800D03*
D13*
X59062500Y-32283800D03*
G04 #@! TD*
D12*
G04 #@! TO.C,D3*
X72435000Y-45562500D03*
D13*
X64815000Y-45562500D03*
G04 #@! TD*
D12*
G04 #@! TO.C,D4*
X110216000Y-38625000D03*
D13*
X102596000Y-38625000D03*
G04 #@! TD*
D12*
G04 #@! TO.C,D5*
X116250000Y-36622500D03*
D13*
X116250000Y-29002500D03*
G04 #@! TD*
D12*
G04 #@! TO.C,D7*
X40875000Y-60528800D03*
D13*
X40875000Y-52908800D03*
G04 #@! TD*
D12*
G04 #@! TO.C,D8*
X59156200Y-58747500D03*
D13*
X59156200Y-51127500D03*
G04 #@! TD*
D12*
G04 #@! TO.C,D9*
X78187500Y-62403800D03*
D13*
X78187500Y-54783800D03*
G04 #@! TD*
D12*
G04 #@! TO.C,D10*
X97218800Y-60247500D03*
D13*
X97218800Y-52627500D03*
G04 #@! TD*
D12*
G04 #@! TO.C,D11*
X116250000Y-55841200D03*
D13*
X116250000Y-48221200D03*
G04 #@! TD*
D12*
G04 #@! TO.C,D14*
X40875000Y-79372500D03*
D13*
X40875000Y-71752500D03*
G04 #@! TD*
D12*
G04 #@! TO.C,D15*
X59156200Y-78060000D03*
D13*
X59156200Y-70440000D03*
G04 #@! TD*
D12*
G04 #@! TO.C,D16*
X78187500Y-74403800D03*
D13*
X78187500Y-66783800D03*
G04 #@! TD*
D12*
G04 #@! TO.C,D17*
X97218800Y-71122500D03*
D13*
X97218800Y-63502500D03*
G04 #@! TD*
D12*
G04 #@! TO.C,D18*
X116156000Y-74778800D03*
D13*
X116156000Y-67158800D03*
G04 #@! TD*
D12*
G04 #@! TO.C,D21*
X40593800Y-98497500D03*
D13*
X40593800Y-90877500D03*
G04 #@! TD*
D12*
G04 #@! TO.C,D22*
X59156200Y-96997500D03*
D13*
X59156200Y-89377500D03*
G04 #@! TD*
D12*
G04 #@! TO.C,D23*
X78187500Y-93435000D03*
D13*
X78187500Y-85815000D03*
G04 #@! TD*
D12*
G04 #@! TO.C,D24*
X97218800Y-90153800D03*
D13*
X97218800Y-82533800D03*
G04 #@! TD*
D12*
G04 #@! TO.C,D25*
X116156000Y-93622500D03*
D13*
X116156000Y-86002500D03*
G04 #@! TD*
D12*
G04 #@! TO.C,D27*
X73593800Y-116029000D03*
D13*
X73593800Y-108409000D03*
G04 #@! TD*
D12*
G04 #@! TO.C,D28*
X92156200Y-112560000D03*
D13*
X92156200Y-104940000D03*
G04 #@! TD*
G04 #@! TO.C,D29*
X113338400Y-113533118D03*
D14*
G36*
X112506556Y-112345121D02*
X114526397Y-112701274D01*
X114170244Y-114721115D01*
X112150403Y-114364962D01*
X112506556Y-112345121D01*
X112506556Y-112345121D01*
G37*
D13*
X114661600Y-106028882D03*
G04 #@! TD*
G04 #@! TO.C,D33*
X177008903Y-111018229D03*
D14*
G36*
X176395990Y-109703833D02*
X178323299Y-110405316D01*
X177621816Y-112332625D01*
X175694507Y-111631142D01*
X176395990Y-109703833D01*
X176395990Y-109703833D01*
G37*
D13*
X179615097Y-103857771D03*
G04 #@! TD*
G04 #@! TO.C,D34*
X170446903Y-128736229D03*
D14*
G36*
X169833990Y-127421833D02*
X171761299Y-128123316D01*
X171059816Y-130050625D01*
X169132507Y-129349142D01*
X169833990Y-127421833D01*
X169833990Y-127421833D01*
G37*
D13*
X173053097Y-121575771D03*
G04 #@! TD*
D15*
G04 #@! TO.C,K20*
X166321000Y-80591200D03*
X168861000Y-74241200D03*
X168861000Y-79321200D03*
D16*
X163781000Y-76781200D03*
D15*
X166321000Y-72971200D03*
D17*
X163781000Y-81861200D03*
X163781000Y-71701200D03*
G04 #@! TD*
D15*
G04 #@! TO.C,K13*
X166321000Y-56778800D03*
X168861000Y-50428800D03*
X168861000Y-55508800D03*
D16*
X163781000Y-52968800D03*
D15*
X166321000Y-49158800D03*
D17*
X163781000Y-58048800D03*
X163781000Y-47888800D03*
G04 #@! TD*
G04 #@! TO.C,K21*
X44513800Y-94593800D03*
X54673800Y-94593800D03*
D15*
X45783800Y-92053800D03*
D16*
X49593800Y-94593800D03*
D15*
X52133800Y-89513800D03*
X47053800Y-89513800D03*
X53403800Y-92053800D03*
G04 #@! TD*
D17*
G04 #@! TO.C,K14*
X44513800Y-75562500D03*
X54673800Y-75562500D03*
D15*
X45783800Y-73022500D03*
D16*
X49593800Y-75562500D03*
D15*
X52133800Y-70482500D03*
X47053800Y-70482500D03*
X53403800Y-73022500D03*
G04 #@! TD*
D17*
G04 #@! TO.C,K7*
X44513800Y-56531200D03*
X54673800Y-56531200D03*
D15*
X45783800Y-53991200D03*
D16*
X49593800Y-56531200D03*
D15*
X52133800Y-51451200D03*
X47053800Y-51451200D03*
X53403800Y-53991200D03*
G04 #@! TD*
D17*
G04 #@! TO.C,K8*
X63545000Y-55031200D03*
X73705000Y-55031200D03*
D15*
X64815000Y-52491200D03*
D16*
X68625000Y-55031200D03*
D15*
X71165000Y-49951200D03*
X66085000Y-49951200D03*
X72435000Y-52491200D03*
G04 #@! TD*
D17*
G04 #@! TO.C,K15*
X63545000Y-74062500D03*
X73705000Y-74062500D03*
D15*
X64815000Y-71522500D03*
D16*
X68625000Y-74062500D03*
D15*
X71165000Y-68982500D03*
X66085000Y-68982500D03*
X72435000Y-71522500D03*
G04 #@! TD*
D17*
G04 #@! TO.C,K22*
X63545000Y-93093800D03*
X73705000Y-93093800D03*
D15*
X64815000Y-90553800D03*
D16*
X68625000Y-93093800D03*
D15*
X71165000Y-88013800D03*
X66085000Y-88013800D03*
X72435000Y-90553800D03*
G04 #@! TD*
D17*
G04 #@! TO.C,K23*
X82576200Y-89531200D03*
X92736200Y-89531200D03*
D15*
X83846200Y-86991200D03*
D16*
X87656200Y-89531200D03*
D15*
X90196200Y-84451200D03*
X85116200Y-84451200D03*
X91466200Y-86991200D03*
G04 #@! TD*
D17*
G04 #@! TO.C,K16*
X82576200Y-70500000D03*
X92736200Y-70500000D03*
D15*
X83846200Y-67960000D03*
D16*
X87656200Y-70500000D03*
D15*
X90196200Y-65420000D03*
X85116200Y-65420000D03*
X91466200Y-67960000D03*
G04 #@! TD*
D17*
G04 #@! TO.C,K9*
X82576200Y-51468800D03*
X92736200Y-51468800D03*
D15*
X83846200Y-48928800D03*
D16*
X87656200Y-51468800D03*
D15*
X90196200Y-46388800D03*
X85116200Y-46388800D03*
X91466200Y-48928800D03*
G04 #@! TD*
D17*
G04 #@! TO.C,K24*
X101608000Y-86250000D03*
X111768000Y-86250000D03*
D15*
X102878000Y-83710000D03*
D16*
X106688000Y-86250000D03*
D15*
X109228000Y-81170000D03*
X104148000Y-81170000D03*
X110498000Y-83710000D03*
G04 #@! TD*
D17*
G04 #@! TO.C,K17*
X101608000Y-67218800D03*
X111768000Y-67218800D03*
D15*
X102878000Y-64678800D03*
D16*
X106688000Y-67218800D03*
D15*
X109228000Y-62138800D03*
X104148000Y-62138800D03*
X110498000Y-64678800D03*
G04 #@! TD*
D17*
G04 #@! TO.C,K10*
X101608000Y-48187500D03*
X111768000Y-48187500D03*
D15*
X102878000Y-45647500D03*
D16*
X106688000Y-48187500D03*
D15*
X109228000Y-43107500D03*
X104148000Y-43107500D03*
X110498000Y-45647500D03*
G04 #@! TD*
D17*
G04 #@! TO.C,K11*
X120639000Y-51843800D03*
X130799000Y-51843800D03*
D15*
X121909000Y-49303800D03*
D16*
X125719000Y-51843800D03*
D15*
X128259000Y-46763800D03*
X123179000Y-46763800D03*
X129529000Y-49303800D03*
G04 #@! TD*
D17*
G04 #@! TO.C,K18*
X120639000Y-70875000D03*
X130799000Y-70875000D03*
D15*
X121909000Y-68335000D03*
D16*
X125719000Y-70875000D03*
D15*
X128259000Y-65795000D03*
X123179000Y-65795000D03*
X129529000Y-68335000D03*
G04 #@! TD*
D17*
G04 #@! TO.C,K25*
X120639000Y-89906200D03*
X130799000Y-89906200D03*
D15*
X121909000Y-87366200D03*
D16*
X125719000Y-89906200D03*
D15*
X128259000Y-84826200D03*
X123179000Y-84826200D03*
X129529000Y-87366200D03*
G04 #@! TD*
D17*
G04 #@! TO.C,K26*
X139764000Y-92531200D03*
X149924000Y-92531200D03*
D15*
X141034000Y-89991200D03*
D16*
X144844000Y-92531200D03*
D15*
X147384000Y-87451200D03*
X142304000Y-87451200D03*
X148654000Y-89991200D03*
G04 #@! TD*
D17*
G04 #@! TO.C,K19*
X139764000Y-73500000D03*
X149924000Y-73500000D03*
D15*
X141034000Y-70960000D03*
D16*
X144844000Y-73500000D03*
D15*
X147384000Y-68420000D03*
X142304000Y-68420000D03*
X148654000Y-70960000D03*
G04 #@! TD*
D17*
G04 #@! TO.C,K12*
X139764000Y-54468800D03*
X149924000Y-54468800D03*
D15*
X141034000Y-51928800D03*
D16*
X144844000Y-54468800D03*
D15*
X147384000Y-49388800D03*
X142304000Y-49388800D03*
X148654000Y-51928800D03*
G04 #@! TD*
D17*
G04 #@! TO.C,K31*
X158070361Y-120231538D03*
X167617639Y-123706462D03*
D15*
X160132502Y-118279084D03*
D16*
X162844000Y-121969000D03*
D15*
X166968283Y-118064093D03*
X162194643Y-116326630D03*
X167292960Y-120885277D03*
G04 #@! TD*
D17*
G04 #@! TO.C,K34*
X175882361Y-126700538D03*
X185429639Y-130175462D03*
D15*
X177944502Y-124748084D03*
D16*
X180656000Y-128438000D03*
D15*
X184780283Y-124533093D03*
X180006643Y-122795630D03*
X185104960Y-127354277D03*
G04 #@! TD*
D17*
G04 #@! TO.C,K33*
X182445361Y-108793538D03*
X191992639Y-112268462D03*
D15*
X184507502Y-106841084D03*
D16*
X187219000Y-110531000D03*
D15*
X191343283Y-106626093D03*
X186569643Y-104888630D03*
X191667960Y-109447277D03*
G04 #@! TD*
D17*
G04 #@! TO.C,K4*
X101608000Y-29156200D03*
X111768000Y-29156200D03*
D15*
X102878000Y-26616200D03*
D16*
X106688000Y-29156200D03*
D15*
X109228000Y-24076200D03*
X104148000Y-24076200D03*
X110498000Y-26616200D03*
G04 #@! TD*
D17*
G04 #@! TO.C,K1*
X44513800Y-37500000D03*
X54673800Y-37500000D03*
D15*
X45783800Y-34960000D03*
D16*
X49593800Y-37500000D03*
D15*
X52133800Y-32420000D03*
X47053800Y-32420000D03*
X53403800Y-34960000D03*
G04 #@! TD*
D17*
G04 #@! TO.C,K32*
X164632361Y-102324538D03*
X174179639Y-105799462D03*
D15*
X166694502Y-100372084D03*
D16*
X169406000Y-104062000D03*
D15*
X173530283Y-100157093D03*
X168756643Y-98419630D03*
X173854960Y-102978277D03*
G04 #@! TD*
D17*
G04 #@! TO.C,K30*
X138155097Y-114466199D03*
X147968903Y-117095801D03*
D15*
X140039223Y-112341448D03*
D16*
X143062000Y-115781000D03*
D15*
X146830252Y-111531497D03*
X141923349Y-110216696D03*
X147399578Y-114313649D03*
G04 #@! TD*
D17*
G04 #@! TO.C,K6*
X139764000Y-35437500D03*
X149924000Y-35437500D03*
D15*
X141034000Y-32897500D03*
D16*
X144844000Y-35437500D03*
D15*
X147384000Y-30357500D03*
X142304000Y-30357500D03*
X148654000Y-32897500D03*
G04 #@! TD*
D17*
G04 #@! TO.C,K2*
X63545000Y-36000000D03*
X73705000Y-36000000D03*
D15*
X64815000Y-33460000D03*
D16*
X68625000Y-36000000D03*
D15*
X71165000Y-30920000D03*
X66085000Y-30920000D03*
X72435000Y-33460000D03*
G04 #@! TD*
D17*
G04 #@! TO.C,K3*
X82576200Y-32437500D03*
X92736200Y-32437500D03*
D15*
X83846200Y-29897500D03*
D16*
X87656200Y-32437500D03*
D15*
X90196200Y-27357500D03*
X85116200Y-27357500D03*
X91466200Y-29897500D03*
G04 #@! TD*
D17*
G04 #@! TO.C,K5*
X120639000Y-32812500D03*
X130799000Y-32812500D03*
D15*
X121909000Y-30272500D03*
D16*
X125719000Y-32812500D03*
D15*
X128259000Y-27732500D03*
X123179000Y-27732500D03*
X129529000Y-30272500D03*
G04 #@! TD*
D17*
G04 #@! TO.C,K27*
X77513800Y-112125000D03*
X87673800Y-112125000D03*
D15*
X78783800Y-109585000D03*
D16*
X82593800Y-112125000D03*
D15*
X85133800Y-107045000D03*
X80053800Y-107045000D03*
X86403800Y-109585000D03*
G04 #@! TD*
D17*
G04 #@! TO.C,K28*
X96545000Y-108562000D03*
X106705000Y-108562000D03*
D15*
X97815000Y-106022000D03*
D16*
X101625000Y-108562000D03*
D15*
X104165000Y-103482000D03*
X99085000Y-103482000D03*
X105435000Y-106022000D03*
G04 #@! TD*
D17*
G04 #@! TO.C,K29*
X118278177Y-110398867D03*
X128283823Y-112163133D03*
D15*
X119969949Y-108117989D03*
D16*
X123281000Y-111281000D03*
D15*
X126664544Y-106719243D03*
X121661721Y-105837110D03*
X127474184Y-109441188D03*
G04 #@! TD*
D18*
G04 #@! TO.C,J1*
X184512814Y-90010339D03*
X191003100Y-87388094D03*
D19*
X182871012Y-93154299D03*
D20*
X183149167Y-93041917D02*
X182592857Y-93266681D01*
D19*
X179424632Y-84624209D03*
D20*
X179702787Y-84511827D02*
X179146477Y-84736591D01*
D19*
X182167725Y-88477188D03*
D20*
X182445880Y-88364806D02*
X181889570Y-88589570D01*
D19*
X188658014Y-85854940D03*
D20*
X188936169Y-85742558D02*
X188379859Y-85967322D01*
D18*
X182789626Y-85745293D03*
X189279911Y-83123049D03*
D19*
X185876460Y-86978761D03*
D20*
X186154615Y-86866379D02*
X185598305Y-87091143D01*
G04 #@! TD*
D13*
G04 #@! TO.C,R1*
X174382000Y-77887600D03*
X174382000Y-67727600D03*
G04 #@! TD*
G04 #@! TO.C,R2*
X176726000Y-67821300D03*
X176726000Y-77981300D03*
G04 #@! TD*
D21*
G04 #@! TO.C,h1*
X46031200Y-27093800D03*
G04 #@! TD*
G04 #@! TO.C,h3*
X161906000Y-36187500D03*
G04 #@! TD*
G04 #@! TO.C,h2*
X118875000Y-20812500D03*
G04 #@! TD*
G04 #@! TO.C,h8*
X46593800Y-105094000D03*
G04 #@! TD*
G04 #@! TO.C,h7*
X116719000Y-80343800D03*
G04 #@! TD*
G04 #@! TO.C,h11*
X198000000Y-102750000D03*
G04 #@! TD*
G04 #@! TO.C,h12*
X149718750Y-129656250D03*
G04 #@! TD*
G04 #@! TO.C,h9*
X111188000Y-120188000D03*
G04 #@! TD*
G04 #@! TO.C,h10*
X150938000Y-104531000D03*
G04 #@! TD*
G04 #@! TO.C,h6*
X78656200Y-80156200D03*
G04 #@! TD*
G04 #@! TO.C,h4*
X59343800Y-64500000D03*
G04 #@! TD*
G04 #@! TO.C,h5*
X155156000Y-64875000D03*
G04 #@! TD*
M02*
